<?xml version="1.0" encoding="UTF-8" standalone="no"?>
<!DOCTYPE svg PUBLIC "-//W3C//DTD SVG 1.1//EN"
 "http://www.w3.org/Graphics/SVG/1.1/DTD/svg11.dtd">
<!-- Generated by graphviz version 2.43.0 (0)
 -->
<!-- Title: animString.h Pages: 1 -->
<svg width="382pt" height="140pt"
 viewBox="0.00 0.00 381.50 140.00" xmlns="http://www.w3.org/2000/svg" xmlns:xlink="http://www.w3.org/1999/xlink">
<g id="graph0" class="graph" transform="scale(1 1) rotate(0) translate(4 136)">
<title>animString.h</title>
<!-- Node1 -->
<g id="node1" class="node">
<title>Node1</title>
<g id="a_node1"><a xlink:title="Header datei f端r eine Mehrzahl von animierbaren Strings und der Callable Klasse.">
<polygon fill="#bfbfbf" stroke="black" points="96.5,-112.5 96.5,-131.5 175.5,-131.5 175.5,-112.5 96.5,-112.5"/>
<text text-anchor="middle" x="136" y="-119.5" font-family="Helvetica,sans-Serif" font-size="10.00">animString.h</text>
</a>
</g>
</g>
<!-- Node2 -->
<g id="node2" class="node">
<title>Node2</title>
<g id="a_node2"><a xlink:href="animLcd_8h.html" target="_top" xlink:title="Header&#45;Datei f端r den animierbaren lcd (AnimatableLcd)">
<polygon fill="none" stroke="black" points="102.5,-56.5 102.5,-75.5 169.5,-75.5 169.5,-56.5 102.5,-56.5"/>
<text text-anchor="middle" x="136" y="-63.5" font-family="Helvetica,sans-Serif" font-size="10.00">animLcd.h</text>
</a>
</g>
</g>
<!-- Node1&#45;&gt;Node2 -->
<g id="edge1" class="edge">
<title>Node1&#45;&gt;Node2</title>
<path fill="none" stroke="midnightblue" d="M129.53,-102.1C128.9,-93.14 129.34,-82.86 130.87,-75.75"/>
<polygon fill="midnightblue" stroke="midnightblue" points="126.07,-102.62 130.83,-112.08 133.01,-101.71 126.07,-102.62"/>
</g>
<!-- Node4 -->
<g id="node4" class="node">
<title>Node4</title>
<g id="a_node4"><a xlink:href="animString_8ino.html" target="_top" xlink:title="Implementationen der Callable und LcdString Klassen.">
<polygon fill="none" stroke="black" points="0,-0.5 0,-19.5 88,-19.5 88,-0.5 0,-0.5"/>
<text text-anchor="middle" x="44" y="-7.5" font-family="Helvetica,sans-Serif" font-size="10.00">animString.ino</text>
</a>
</g>
</g>
<!-- Node1&#45;&gt;Node4 -->
<g id="edge6" class="edge">
<title>Node1&#45;&gt;Node4</title>
<path fill="none" stroke="midnightblue" d="M120.31,-104.94C112.24,-96.5 102.38,-85.88 94,-76 77.43,-56.45 59.44,-32.26 50.22,-19.62"/>
<polygon fill="midnightblue" stroke="midnightblue" points="117.91,-107.5 127.38,-112.26 122.95,-102.64 117.91,-107.5"/>
</g>
<!-- Node6 -->
<g id="node6" class="node">
<title>Node6</title>
<g id="a_node6"><a xlink:href="callHandler_8h.html" target="_top" xlink:title="header datei f端r den CallHandler">
<polygon fill="none" stroke="black" points="188,-56.5 188,-75.5 268,-75.5 268,-56.5 188,-56.5"/>
<text text-anchor="middle" x="228" y="-63.5" font-family="Helvetica,sans-Serif" font-size="10.00">callHandler.h</text>
</a>
</g>
</g>
<!-- Node1&#45;&gt;Node6 -->
<g id="edge7" class="edge">
<title>Node1&#45;&gt;Node6</title>
<path fill="none" stroke="midnightblue" d="M159.55,-107.18C176.48,-97.24 198.78,-84.15 213.26,-75.65"/>
<polygon fill="midnightblue" stroke="midnightblue" points="157.63,-104.24 150.78,-112.32 161.18,-110.28 157.63,-104.24"/>
</g>
<!-- Node7 -->
<g id="node7" class="node">
<title>Node7</title>
<g id="a_node7"><a xlink:href="callHandler_8ino.html" target="_top" xlink:title="Umsetzung der CallHandler Klasse.">
<polygon fill="none" stroke="black" points="284.5,-0.5 284.5,-19.5 373.5,-19.5 373.5,-0.5 284.5,-0.5"/>
<text text-anchor="middle" x="329" y="-7.5" font-family="Helvetica,sans-Serif" font-size="10.00">callHandler.ino</text>
</a>
</g>
</g>
<!-- Node1&#45;&gt;Node7 -->
<g id="edge12" class="edge">
<title>Node1&#45;&gt;Node7</title>
<path fill="none" stroke="midnightblue" d="M185.34,-112.67C213.96,-106.11 249.63,-94.82 277,-76 299.15,-60.77 316.56,-33.36 324.43,-19.51"/>
<polygon fill="midnightblue" stroke="midnightblue" points="184.56,-109.26 175.53,-114.8 186.05,-116.1 184.56,-109.26"/>
</g>
<!-- Node2&#45;&gt;Node1 -->
<g id="edge3" class="edge">
<title>Node2&#45;&gt;Node1</title>
<path fill="none" stroke="midnightblue" d="M142.46,-85.69C143.11,-94.64 142.68,-104.93 141.17,-112.08"/>
<polygon fill="midnightblue" stroke="midnightblue" points="145.92,-85.2 141.13,-75.75 138.98,-86.13 145.92,-85.2"/>
</g>
<!-- Node3 -->
<g id="node3" class="node">
<title>Node3</title>
<g id="a_node3"><a xlink:href="animLcd_8ino.html" target="_top" xlink:title="Implementation f端r die AnimatableLcd Klasse.">
<polygon fill="none" stroke="black" points="190,-0.5 190,-19.5 266,-19.5 266,-0.5 190,-0.5"/>
<text text-anchor="middle" x="228" y="-7.5" font-family="Helvetica,sans-Serif" font-size="10.00">animLcd.ino</text>
</a>
</g>
</g>
<!-- Node2&#45;&gt;Node3 -->
<g id="edge2" class="edge">
<title>Node2&#45;&gt;Node3</title>
<path fill="none" stroke="midnightblue" d="M159.55,-51.18C176.48,-41.24 198.78,-28.15 213.26,-19.65"/>
<polygon fill="midnightblue" stroke="midnightblue" points="157.63,-48.24 150.78,-56.32 161.18,-54.28 157.63,-48.24"/>
</g>
<!-- Node2&#45;&gt;Node4 -->
<g id="edge4" class="edge">
<title>Node2&#45;&gt;Node4</title>
<path fill="none" stroke="midnightblue" d="M112.45,-51.18C95.52,-41.24 73.22,-28.15 58.74,-19.65"/>
<polygon fill="midnightblue" stroke="midnightblue" points="110.82,-54.28 121.22,-56.32 114.37,-48.24 110.82,-54.28"/>
</g>
<!-- Node5 -->
<g id="node5" class="node">
<title>Node5</title>
<g id="a_node5"><a xlink:href="sketch_8ino.html" target="_top" xlink:title="Hauptdatei, wichtigste Funktionen sind setup() und loop()">
<polygon fill="none" stroke="black" points="106,-0.5 106,-19.5 172,-19.5 172,-0.5 106,-0.5"/>
<text text-anchor="middle" x="139" y="-7.5" font-family="Helvetica,sans-Serif" font-size="10.00">sketch.ino</text>
</a>
</g>
</g>
<!-- Node2&#45;&gt;Node5 -->
<g id="edge5" class="edge">
<title>Node2&#45;&gt;Node5</title>
<path fill="none" stroke="midnightblue" d="M137.07,-45.8C137.56,-36.91 138.12,-26.78 138.51,-19.75"/>
<polygon fill="midnightblue" stroke="midnightblue" points="133.56,-45.9 136.5,-56.08 140.54,-46.29 133.56,-45.9"/>
</g>
<!-- Node6&#45;&gt;Node3 -->
<g id="edge8" class="edge">
<title>Node6&#45;&gt;Node3</title>
<path fill="none" stroke="midnightblue" d="M228,-45.8C228,-36.91 228,-26.78 228,-19.75"/>
<polygon fill="midnightblue" stroke="midnightblue" points="224.5,-46.08 228,-56.08 231.5,-46.08 224.5,-46.08"/>
</g>
<!-- Node6&#45;&gt;Node4 -->
<g id="edge9" class="edge">
<title>Node6&#45;&gt;Node4</title>
<path fill="none" stroke="midnightblue" d="M189.05,-53.57C154.34,-43.38 104.32,-28.7 73.02,-19.52"/>
<polygon fill="midnightblue" stroke="midnightblue" points="188.26,-56.99 198.84,-56.44 190.23,-50.27 188.26,-56.99"/>
</g>
<!-- Node6&#45;&gt;Node5 -->
<g id="edge11" class="edge">
<title>Node6&#45;&gt;Node5</title>
<path fill="none" stroke="midnightblue" d="M204.76,-50.9C188.44,-41 167.13,-28.07 153.26,-19.65"/>
<polygon fill="midnightblue" stroke="midnightblue" points="203.34,-54.13 213.7,-56.32 206.97,-48.14 203.34,-54.13"/>
</g>
<!-- Node6&#45;&gt;Node7 -->
<g id="edge10" class="edge">
<title>Node6&#45;&gt;Node7</title>
<path fill="none" stroke="midnightblue" d="M253.08,-51.59C271.76,-41.61 296.7,-28.27 312.81,-19.65"/>
<polygon fill="midnightblue" stroke="midnightblue" points="251.4,-48.52 244.23,-56.32 254.7,-54.7 251.4,-48.52"/>
</g>
</g>
</svg>
