<?xml version="1.0" encoding="UTF-8" standalone="no"?>
<!DOCTYPE svg PUBLIC "-//W3C//DTD SVG 1.1//EN"
 "http://www.w3.org/Graphics/SVG/1.1/DTD/svg11.dtd">
<!-- Generated by graphviz version 2.43.0 (0)
 -->
<!-- Title: callHandler.h Pages: 1 -->
<svg width="381pt" height="84pt"
 viewBox="0.00 0.00 381.00 84.00" xmlns="http://www.w3.org/2000/svg" xmlns:xlink="http://www.w3.org/1999/xlink">
<g id="graph0" class="graph" transform="scale(1 1) rotate(0) translate(4 80)">
<title>callHandler.h</title>
<!-- Node1 -->
<g id="node1" class="node">
<title>Node1</title>
<g id="a_node1"><a xlink:title="header datei für den CallHandler">
<polygon fill="#bfbfbf" stroke="black" points="151,-56.5 151,-75.5 231,-75.5 231,-56.5 151,-56.5"/>
<text text-anchor="middle" x="191" y="-63.5" font-family="Helvetica,sans-Serif" font-size="10.00">callHandler.h</text>
</a>
</g>
</g>
<!-- Node2 -->
<g id="node2" class="node">
<title>Node2</title>
<g id="a_node2"><a xlink:href="animLcd_8ino.html" target="_top" xlink:title="Implementation für die AnimatableLcd Klasse.">
<polygon fill="none" stroke="black" points="0,-0.5 0,-19.5 76,-19.5 76,-0.5 0,-0.5"/>
<text text-anchor="middle" x="38" y="-7.5" font-family="Helvetica,sans-Serif" font-size="10.00">animLcd.ino</text>
</a>
</g>
</g>
<!-- Node1&#45;&gt;Node2 -->
<g id="edge1" class="edge">
<title>Node1&#45;&gt;Node2</title>
<path fill="none" stroke="midnightblue" d="M157.11,-53.04C128.32,-42.88 87.71,-28.55 62.13,-19.52"/>
<polygon fill="midnightblue" stroke="midnightblue" points="156.16,-56.42 166.76,-56.44 158.49,-49.81 156.16,-56.42"/>
</g>
<!-- Node3 -->
<g id="node3" class="node">
<title>Node3</title>
<g id="a_node3"><a xlink:href="animString_8ino.html" target="_top" xlink:title="Implementationen der Callable und LcdString Klassen.">
<polygon fill="none" stroke="black" points="94,-0.5 94,-19.5 182,-19.5 182,-0.5 94,-0.5"/>
<text text-anchor="middle" x="138" y="-7.5" font-family="Helvetica,sans-Serif" font-size="10.00">animString.ino</text>
</a>
</g>
</g>
<!-- Node1&#45;&gt;Node3 -->
<g id="edge2" class="edge">
<title>Node1&#45;&gt;Node3</title>
<path fill="none" stroke="midnightblue" d="M175.02,-48.72C165.68,-39.2 154.25,-27.56 146.59,-19.75"/>
<polygon fill="midnightblue" stroke="midnightblue" points="172.75,-51.4 182.25,-56.08 177.74,-46.49 172.75,-51.4"/>
</g>
<!-- Node4 -->
<g id="node4" class="node">
<title>Node4</title>
<g id="a_node4"><a xlink:href="callHandler_8ino.html" target="_top" xlink:title="Umsetzung der CallHandler Klasse.">
<polygon fill="none" stroke="black" points="199.5,-0.5 199.5,-19.5 288.5,-19.5 288.5,-0.5 199.5,-0.5"/>
<text text-anchor="middle" x="244" y="-7.5" font-family="Helvetica,sans-Serif" font-size="10.00">callHandler.ino</text>
</a>
</g>
</g>
<!-- Node1&#45;&gt;Node4 -->
<g id="edge3" class="edge">
<title>Node1&#45;&gt;Node4</title>
<path fill="none" stroke="midnightblue" d="M206.98,-48.72C216.32,-39.2 227.75,-27.56 235.41,-19.75"/>
<polygon fill="midnightblue" stroke="midnightblue" points="204.26,-46.49 199.75,-56.08 209.25,-51.4 204.26,-46.49"/>
</g>
<!-- Node5 -->
<g id="node5" class="node">
<title>Node5</title>
<g id="a_node5"><a xlink:href="sketch_8ino.html" target="_top" xlink:title="Hauptdatei, wichtigste Funktionen sind setup() und loop()">
<polygon fill="none" stroke="black" points="307,-0.5 307,-19.5 373,-19.5 373,-0.5 307,-0.5"/>
<text text-anchor="middle" x="340" y="-7.5" font-family="Helvetica,sans-Serif" font-size="10.00">sketch.ino</text>
</a>
</g>
</g>
<!-- Node1&#45;&gt;Node5 -->
<g id="edge4" class="edge">
<title>Node1&#45;&gt;Node5</title>
<path fill="none" stroke="midnightblue" d="M224.37,-52.91C252.38,-42.75 291.7,-28.51 316.5,-19.52"/>
<polygon fill="midnightblue" stroke="midnightblue" points="222.82,-49.75 214.61,-56.44 225.2,-56.33 222.82,-49.75"/>
</g>
</g>
</svg>
