<?xml version="1.0" encoding="UTF-8" standalone="no"?>
<!DOCTYPE svg PUBLIC "-//W3C//DTD SVG 1.1//EN"
 "http://www.w3.org/Graphics/SVG/1.1/DTD/svg11.dtd">
<!-- Generated by graphviz version 2.43.0 (0)
 -->
<!-- Title: callHandler.ino Pages: 1 -->
<svg width="177pt" height="252pt"
 viewBox="0.00 0.00 176.91 252.00" xmlns="http://www.w3.org/2000/svg" xmlns:xlink="http://www.w3.org/1999/xlink">
<g id="graph0" class="graph" transform="scale(1 1) rotate(0) translate(4 248)">
<title>callHandler.ino</title>
<!-- Node1 -->
<g id="node1" class="node">
<title>Node1</title>
<g id="a_node1"><a xlink:title="Umsetzung der CallHandler Klasse.">
<polygon fill="#bfbfbf" stroke="black" points="10.41,-224.5 10.41,-243.5 99.41,-243.5 99.41,-224.5 10.41,-224.5"/>
<text text-anchor="middle" x="54.91" y="-231.5" font-family="Helvetica,sans-Serif" font-size="10.00">callHandler.ino</text>
</a>
</g>
</g>
<!-- Node2 -->
<g id="node2" class="node">
<title>Node2</title>
<g id="a_node2"><a xlink:href="header_8h.html" target="_top" xlink:title="Definiert variablen&#45;types die 端berall im Programm benutzt werden.">
<polygon fill="none" stroke="black" points="3.41,-56.5 3.41,-75.5 62.41,-75.5 62.41,-56.5 3.41,-56.5"/>
<text text-anchor="middle" x="32.91" y="-63.5" font-family="Helvetica,sans-Serif" font-size="10.00">header.h</text>
</a>
</g>
</g>
<!-- Node1&#45;&gt;Node2 -->
<g id="edge1" class="edge">
<title>Node1&#45;&gt;Node2</title>
<path fill="none" stroke="midnightblue" d="M40.24,-224.4C28.5,-216.58 12.88,-203.86 5.91,-188 -9.46,-153.01 9.47,-108.36 22.52,-84.27"/>
<polygon fill="midnightblue" stroke="midnightblue" points="25.57,-85.99 27.47,-75.57 19.49,-82.53 25.57,-85.99"/>
</g>
<!-- Node3 -->
<g id="node3" class="node">
<title>Node3</title>
<g id="a_node3"><a xlink:href="animString_8h.html" target="_top" xlink:title="Header datei f端r eine Mehrzahl von animierbaren Strings und der Callable Klasse.">
<polygon fill="none" stroke="black" points="74.41,-112.5 74.41,-131.5 153.41,-131.5 153.41,-112.5 74.41,-112.5"/>
<text text-anchor="middle" x="113.91" y="-119.5" font-family="Helvetica,sans-Serif" font-size="10.00">animString.h</text>
</a>
</g>
</g>
<!-- Node1&#45;&gt;Node3 -->
<g id="edge2" class="edge">
<title>Node1&#45;&gt;Node3</title>
<path fill="none" stroke="midnightblue" d="M68.5,-224.42C79.92,-216.45 95.64,-203.49 103.91,-188 111.55,-173.68 113.79,-155.21 114.27,-141.63"/>
<polygon fill="midnightblue" stroke="midnightblue" points="117.77,-141.58 114.34,-131.56 110.77,-141.53 117.77,-141.58"/>
</g>
<!-- Node6 -->
<g id="node6" class="node">
<title>Node6</title>
<g id="a_node6"><a xlink:href="callHandler_8h.html" target="_top" xlink:title="header datei f端r den CallHandler">
<polygon fill="none" stroke="black" points="14.91,-168.5 14.91,-187.5 94.91,-187.5 94.91,-168.5 14.91,-168.5"/>
<text text-anchor="middle" x="54.91" y="-175.5" font-family="Helvetica,sans-Serif" font-size="10.00">callHandler.h</text>
</a>
</g>
</g>
<!-- Node1&#45;&gt;Node6 -->
<g id="edge7" class="edge">
<title>Node1&#45;&gt;Node6</title>
<path fill="none" stroke="midnightblue" d="M54.91,-224.08C54.91,-217.01 54.91,-206.86 54.91,-197.99"/>
<polygon fill="midnightblue" stroke="midnightblue" points="58.41,-197.75 54.91,-187.75 51.41,-197.75 58.41,-197.75"/>
</g>
<!-- Node3&#45;&gt;Node2 -->
<g id="edge6" class="edge">
<title>Node3&#45;&gt;Node2</title>
<path fill="none" stroke="midnightblue" d="M100.89,-112.32C88.37,-103.98 69.22,-91.21 54.43,-81.35"/>
<polygon fill="midnightblue" stroke="midnightblue" points="56.15,-78.29 45.89,-75.65 52.27,-84.11 56.15,-78.29"/>
</g>
<!-- Node4 -->
<g id="node4" class="node">
<title>Node4</title>
<g id="a_node4"><a xlink:href="animLcd_8h.html" target="_top" xlink:title="Header&#45;Datei f端r den animierbaren lcd (AnimatableLcd)">
<polygon fill="none" stroke="black" points="80.41,-56.5 80.41,-75.5 147.41,-75.5 147.41,-56.5 80.41,-56.5"/>
<text text-anchor="middle" x="113.91" y="-63.5" font-family="Helvetica,sans-Serif" font-size="10.00">animLcd.h</text>
</a>
</g>
</g>
<!-- Node3&#45;&gt;Node4 -->
<g id="edge3" class="edge">
<title>Node3&#45;&gt;Node4</title>
<path fill="none" stroke="midnightblue" d="M108.74,-112.08C107.23,-104.93 106.8,-94.64 107.45,-85.69"/>
<polygon fill="midnightblue" stroke="midnightblue" points="110.92,-86.13 108.78,-75.75 103.98,-85.2 110.92,-86.13"/>
</g>
<!-- Node4&#45;&gt;Node3 -->
<g id="edge5" class="edge">
<title>Node4&#45;&gt;Node3</title>
<path fill="none" stroke="midnightblue" d="M119.04,-75.75C120.56,-82.86 121.01,-93.14 120.38,-102.1"/>
<polygon fill="midnightblue" stroke="midnightblue" points="116.9,-101.71 119.07,-112.08 123.84,-102.62 116.9,-101.71"/>
</g>
<!-- Node5 -->
<g id="node5" class="node">
<title>Node5</title>
<g id="a_node5"><a xlink:title=" ">
<polygon fill="none" stroke="#bfbfbf" points="58.91,-0.5 58.91,-19.5 168.91,-19.5 168.91,-0.5 58.91,-0.5"/>
<text text-anchor="middle" x="113.91" y="-7.5" font-family="Helvetica,sans-Serif" font-size="10.00">LiquidCrystal_I2C.h</text>
</a>
</g>
</g>
<!-- Node4&#45;&gt;Node5 -->
<g id="edge4" class="edge">
<title>Node4&#45;&gt;Node5</title>
<path fill="none" stroke="midnightblue" d="M113.91,-56.08C113.91,-49.01 113.91,-38.86 113.91,-29.99"/>
<polygon fill="midnightblue" stroke="midnightblue" points="117.41,-29.75 113.91,-19.75 110.41,-29.75 117.41,-29.75"/>
</g>
<!-- Node6&#45;&gt;Node2 -->
<g id="edge8" class="edge">
<title>Node6&#45;&gt;Node2</title>
<path fill="none" stroke="midnightblue" d="M53.18,-168.37C49.63,-150.62 41.44,-109.67 36.63,-85.6"/>
<polygon fill="midnightblue" stroke="midnightblue" points="40.02,-84.71 34.62,-75.59 33.15,-86.08 40.02,-84.71"/>
</g>
<!-- Node6&#45;&gt;Node3 -->
<g id="edge9" class="edge">
<title>Node6&#45;&gt;Node3</title>
<path fill="none" stroke="midnightblue" d="M64.39,-168.32C73.11,-160.34 86.25,-148.31 96.8,-138.65"/>
<polygon fill="midnightblue" stroke="midnightblue" points="99.24,-141.17 104.25,-131.83 94.51,-136 99.24,-141.17"/>
</g>
</g>
</svg>
