<?xml version="1.0" encoding="UTF-8" standalone="no"?>
<!DOCTYPE svg PUBLIC "-//W3C//DTD SVG 1.1//EN"
 "http://www.w3.org/Graphics/SVG/1.1/DTD/svg11.dtd">
<!-- Generated by graphviz version 2.43.0 (0)
 -->
<!-- Title: CustomServo::start Pages: 1 -->
<svg width="339pt" height="28pt"
 viewBox="0.00 0.00 339.00 28.00" xmlns="http://www.w3.org/2000/svg" xmlns:xlink="http://www.w3.org/1999/xlink">
<g id="graph0" class="graph" transform="scale(1 1) rotate(0) translate(4 24)">
<title>CustomServo::start</title>
<!-- Node1 -->
<g id="node1" class="node">
<title>Node1</title>
<g id="a_node1"><a xlink:title="Lässt den Servo weiterlaufen.">
<polygon fill="#bfbfbf" stroke="black" points="221,-0.5 221,-19.5 331,-19.5 331,-0.5 221,-0.5"/>
<text text-anchor="middle" x="276" y="-7.5" font-family="Helvetica,sans-Serif" font-size="10.00">CustomServo::start</text>
</a>
</g>
</g>
<!-- Node2 -->
<g id="node2" class="node">
<title>Node2</title>
<g id="a_node2"><a xlink:href="sketch_8ino.html#abbbe19f80bf8227bbfbb68d98a1937cc" target="_top" xlink:title="wird ausgeführt wenn der Stop&#45;Knopf gedrückt wird">
<polygon fill="none" stroke="black" points="80,-0.5 80,-19.5 185,-19.5 185,-0.5 80,-0.5"/>
<text text-anchor="middle" x="132.5" y="-7.5" font-family="Helvetica,sans-Serif" font-size="10.00">stopButtonClicked</text>
</a>
</g>
</g>
<!-- Node1&#45;&gt;Node2 -->
<g id="edge1" class="edge">
<title>Node1&#45;&gt;Node2</title>
<path fill="none" stroke="midnightblue" d="M210.43,-10C201.94,-10 193.33,-10 185.1,-10"/>
<polygon fill="midnightblue" stroke="midnightblue" points="210.7,-13.5 220.7,-10 210.7,-6.5 210.7,-13.5"/>
</g>
<!-- Node3 -->
<g id="node3" class="node">
<title>Node3</title>
<g id="a_node3"><a xlink:href="sketch_8ino.html#a4fc01d736fe50cf5b977f755b675f11d" target="_top" xlink:title="Wird am Anfang des Programms aufgerufen.">
<polygon fill="none" stroke="black" points="0,-0.5 0,-19.5 44,-19.5 44,-0.5 0,-0.5"/>
<text text-anchor="middle" x="22" y="-7.5" font-family="Helvetica,sans-Serif" font-size="10.00">setup</text>
</a>
</g>
</g>
<!-- Node2&#45;&gt;Node3 -->
<g id="edge2" class="edge">
<title>Node2&#45;&gt;Node3</title>
<path fill="none" stroke="midnightblue" d="M69.71,-10C60.49,-10 51.55,-10 44.02,-10"/>
<polygon fill="midnightblue" stroke="midnightblue" points="69.79,-13.5 79.79,-10 69.79,-6.5 69.79,-13.5"/>
</g>
</g>
</svg>
