<?xml version="1.0" encoding="UTF-8" standalone="no"?>
<!DOCTYPE svg PUBLIC "-//W3C//DTD SVG 1.1//EN"
 "http://www.w3.org/Graphics/SVG/1.1/DTD/svg11.dtd">
<!-- Generated by graphviz version 2.43.0 (0)
 -->
<!-- Title: LcdDotAnim Pages: 1 -->
<svg width="310pt" height="162pt"
 viewBox="0.00 0.00 309.50 162.00" xmlns="http://www.w3.org/2000/svg" xmlns:xlink="http://www.w3.org/1999/xlink">
<g id="graph0" class="graph" transform="scale(1 1) rotate(0) translate(4 158)">
<title>LcdDotAnim</title>
<!-- Node1 -->
<g id="node1" class="node">
<title>Node1</title>
<g id="a_node1"><a xlink:title="Die Klasse der Lcd Punktanimationen.">
<polygon fill="#bfbfbf" stroke="black" points="0,-67.5 0,-86.5 76,-86.5 76,-67.5 0,-67.5"/>
<text text-anchor="middle" x="38" y="-74.5" font-family="Helvetica,sans-Serif" font-size="10.00">LcdDotAnim</text>
</a>
</g>
</g>
<!-- Node2 -->
<g id="node2" class="node">
<title>Node2</title>
<g id="a_node2"><a xlink:href="classAnimString.html" target="_top" xlink:title="Die Klasse für animierbare LcdStrings.">
<polygon fill="none" stroke="black" points="68.5,-134.5 68.5,-153.5 139.5,-153.5 139.5,-134.5 68.5,-134.5"/>
<text text-anchor="middle" x="104" y="-141.5" font-family="Helvetica,sans-Serif" font-size="10.00">AnimString</text>
</a>
</g>
</g>
<!-- Node2&#45;&gt;Node1 -->
<g id="edge1" class="edge">
<title>Node2&#45;&gt;Node1</title>
<path fill="none" stroke="midnightblue" d="M87.75,-127C74.81,-114.25 57.19,-96.89 46.76,-86.63"/>
<polygon fill="midnightblue" stroke="midnightblue" points="85.52,-129.71 95.1,-134.23 90.43,-124.72 85.52,-129.71"/>
</g>
<!-- Node5 -->
<g id="node5" class="node">
<title>Node5</title>
<g id="a_node5"><a xlink:href="classAnimatableLcd.html" target="_top" xlink:title="Eigener Lcd, ermöglicht es Animationen auf dem Lcd Display anzuzeigen.">
<polygon fill="none" stroke="black" points="206.5,-67.5 206.5,-86.5 295.5,-86.5 295.5,-67.5 206.5,-67.5"/>
<text text-anchor="middle" x="251" y="-74.5" font-family="Helvetica,sans-Serif" font-size="10.00">AnimatableLcd</text>
</a>
</g>
</g>
<!-- Node2&#45;&gt;Node5 -->
<g id="edge6" class="edge">
<title>Node2&#45;&gt;Node5</title>
<path fill="none" stroke="#9a32cd" stroke-dasharray="5,2" d="M132.76,-130.28C161.88,-117.41 206.1,-97.85 231.4,-86.67"/>
<polygon fill="#9a32cd" stroke="#9a32cd" points="131.25,-127.12 123.52,-134.37 134.08,-133.53 131.25,-127.12"/>
<text text-anchor="middle" x="215.5" y="-108" font-family="Helvetica,sans-Serif" font-size="10.00"> animString</text>
</g>
<!-- Node3 -->
<g id="node3" class="node">
<title>Node3</title>
<g id="a_node3"><a xlink:href="structLcdString.html" target="_top" xlink:title="Ein String der auf dem AnimatableLcd angezeigt werden kann.">
<polygon fill="none" stroke="black" points="129,-0.5 129,-19.5 191,-19.5 191,-0.5 129,-0.5"/>
<text text-anchor="middle" x="160" y="-7.5" font-family="Helvetica,sans-Serif" font-size="10.00">LcdString</text>
</a>
</g>
</g>
<!-- Node3&#45;&gt;Node2 -->
<g id="edge2" class="edge">
<title>Node3&#45;&gt;Node2</title>
<path fill="none" stroke="midnightblue" d="M146.87,-27.58C138.96,-38.29 129.23,-52.83 123,-67 112.81,-90.16 107.4,-119.78 105.2,-134.25"/>
<polygon fill="midnightblue" stroke="midnightblue" points="149.7,-29.65 152.98,-19.57 144.13,-25.4 149.7,-29.65"/>
</g>
<!-- Node4 -->
<g id="node4" class="node">
<title>Node4</title>
<g id="a_node4"><a xlink:href="classCallable.html" target="_top" xlink:title="Ein Call der vom CallHandler aufgerufen werden kann.">
<polygon fill="none" stroke="black" points="132,-67.5 132,-86.5 188,-86.5 188,-67.5 132,-67.5"/>
<text text-anchor="middle" x="160" y="-74.5" font-family="Helvetica,sans-Serif" font-size="10.00">Callable</text>
</a>
</g>
</g>
<!-- Node4&#45;&gt;Node3 -->
<g id="edge3" class="edge">
<title>Node4&#45;&gt;Node3</title>
<path fill="none" stroke="midnightblue" d="M160,-57.04C160,-44.67 160,-29.12 160,-19.63"/>
<polygon fill="midnightblue" stroke="midnightblue" points="156.5,-57.23 160,-67.23 163.5,-57.23 156.5,-57.23"/>
</g>
<!-- Node5&#45;&gt;Node3 -->
<g id="edge4" class="edge">
<title>Node5&#45;&gt;Node3</title>
<path fill="none" stroke="#9a32cd" stroke-dasharray="5,2" d="M230.59,-61.42C212.6,-48.57 186.99,-30.28 172.08,-19.63"/>
<polygon fill="#9a32cd" stroke="#9a32cd" points="228.56,-64.27 238.73,-67.23 232.62,-58.57 228.56,-64.27"/>
<text text-anchor="middle" x="220" y="-41" font-family="Helvetica,sans-Serif" font-size="10.00"> lcd</text>
</g>
<!-- Node6 -->
<g id="node6" class="node">
<title>Node6</title>
<g id="a_node6"><a xlink:title=" ">
<polygon fill="none" stroke="black" points="200.5,-134.5 200.5,-153.5 301.5,-153.5 301.5,-134.5 200.5,-134.5"/>
<text text-anchor="middle" x="251" y="-141.5" font-family="Helvetica,sans-Serif" font-size="10.00">LiquidCrystal_I2C</text>
</a>
</g>
</g>
<!-- Node6&#45;&gt;Node5 -->
<g id="edge5" class="edge">
<title>Node6&#45;&gt;Node5</title>
<path fill="none" stroke="midnightblue" d="M251,-124.04C251,-111.67 251,-96.12 251,-86.63"/>
<polygon fill="midnightblue" stroke="midnightblue" points="247.5,-124.23 251,-134.23 254.5,-124.23 247.5,-124.23"/>
</g>
</g>
</svg>
