<?xml version="1.0" encoding="UTF-8" standalone="no"?>
<!DOCTYPE svg PUBLIC "-//W3C//DTD SVG 1.1//EN"
 "http://www.w3.org/Graphics/SVG/1.1/DTD/svg11.dtd">
<!-- Generated by graphviz version 2.43.0 (0)
 -->
<!-- Title: CustomServo::write Pages: 1 -->
<svg width="270pt" height="66pt"
 viewBox="0.00 0.00 270.00 66.00" xmlns="http://www.w3.org/2000/svg" xmlns:xlink="http://www.w3.org/1999/xlink">
<g id="graph0" class="graph" transform="scale(1 1) rotate(0) translate(4 62)">
<title>CustomServo::write</title>
<!-- Node1 -->
<g id="node1" class="node">
<title>Node1</title>
<g id="a_node1"><a xlink:title="Bewegt den Servo mit einer vorher spezifizierten Geschwindigkeit.">
<polygon fill="#bfbfbf" stroke="black" points="149,-19.5 149,-38.5 262,-38.5 262,-19.5 149,-19.5"/>
<text text-anchor="middle" x="205.5" y="-26.5" font-family="Helvetica,sans-Serif" font-size="10.00">CustomServo::write</text>
</a>
</g>
</g>
<!-- Node2 -->
<g id="node2" class="node">
<title>Node2</title>
<g id="a_node2"><a xlink:href="sketch_8ino.html#afe461d27b9c48d5921c00d521181f12f" target="_top" xlink:title="Wird immer wieder ausgeführt.">
<polygon fill="none" stroke="black" points="37.5,-38.5 37.5,-57.5 75.5,-57.5 75.5,-38.5 37.5,-38.5"/>
<text text-anchor="middle" x="56.5" y="-45.5" font-family="Helvetica,sans-Serif" font-size="10.00">loop</text>
</a>
</g>
</g>
<!-- Node1&#45;&gt;Node2 -->
<g id="edge1" class="edge">
<title>Node1&#45;&gt;Node2</title>
<path fill="none" stroke="midnightblue" d="M138.8,-37.49C115.77,-40.47 91.71,-43.58 75.79,-45.64"/>
<polygon fill="midnightblue" stroke="midnightblue" points="139.46,-40.94 148.93,-36.18 138.56,-33.99 139.46,-40.94"/>
</g>
<!-- Node3 -->
<g id="node3" class="node">
<title>Node3</title>
<g id="a_node3"><a xlink:href="classCustomServo.html#a73b3e39ae0c5ac49cde683711517283a" target="_top" xlink:title="Bewegt den Servo in duration Millisekunden an den angegebenen Winkel.">
<polygon fill="none" stroke="black" points="0,-0.5 0,-19.5 113,-19.5 113,-0.5 0,-0.5"/>
<text text-anchor="middle" x="56.5" y="-7.5" font-family="Helvetica,sans-Serif" font-size="10.00">CustomServo::write</text>
</a>
</g>
</g>
<!-- Node1&#45;&gt;Node3 -->
<g id="edge2" class="edge">
<title>Node1&#45;&gt;Node3</title>
<path fill="none" stroke="midnightblue" d="M138.92,-20.52C130.32,-19.41 121.57,-18.28 113.15,-17.19"/>
<polygon fill="midnightblue" stroke="midnightblue" points="138.56,-24.01 148.93,-21.82 139.46,-17.06 138.56,-24.01"/>
</g>
</g>
</svg>
