<?xml version="1.0" encoding="UTF-8" standalone="no"?>
<!DOCTYPE svg PUBLIC "-//W3C//DTD SVG 1.1//EN"
 "http://www.w3.org/Graphics/SVG/1.1/DTD/svg11.dtd">
<!-- Generated by graphviz version 2.43.0 (0)
 -->
<!-- Title: CustomServo::startMove Pages: 1 -->
<svg width="463pt" height="104pt"
 viewBox="0.00 0.00 463.00 104.00" xmlns="http://www.w3.org/2000/svg" xmlns:xlink="http://www.w3.org/1999/xlink">
<g id="graph0" class="graph" transform="scale(1 1) rotate(0) translate(4 100)">
<title>CustomServo::startMove</title>
<!-- Node1 -->
<g id="node1" class="node">
<title>Node1</title>
<g id="a_node1"><a xlink:title="Setzt Variablen, die benötigt werden um den Servo zu bewegen.">
<polygon fill="#bfbfbf" stroke="black" points="318,-57.5 318,-76.5 455,-76.5 455,-57.5 318,-57.5"/>
<text text-anchor="middle" x="386.5" y="-64.5" font-family="Helvetica,sans-Serif" font-size="10.00">CustomServo::startMove</text>
</a>
</g>
</g>
<!-- Node2 -->
<g id="node2" class="node">
<title>Node2</title>
<g id="a_node2"><a xlink:href="classCustomServo.html#a0750f5868c694b9f46638038b8536e0a" target="_top" xlink:title="Setzt eine neue Geschwindigkeit des Servos.">
<polygon fill="none" stroke="black" points="149,-76.5 149,-95.5 282,-95.5 282,-76.5 149,-76.5"/>
<text text-anchor="middle" x="215.5" y="-83.5" font-family="Helvetica,sans-Serif" font-size="10.00">CustomServo::setSpeed</text>
</a>
</g>
</g>
<!-- Node1&#45;&gt;Node2 -->
<g id="edge1" class="edge">
<title>Node1&#45;&gt;Node2</title>
<path fill="none" stroke="midnightblue" d="M307.73,-75.74C299.16,-76.71 290.49,-77.68 282.08,-78.63"/>
<polygon fill="midnightblue" stroke="midnightblue" points="308.19,-79.21 317.74,-74.62 307.41,-72.26 308.19,-79.21"/>
</g>
<!-- Node4 -->
<g id="node4" class="node">
<title>Node4</title>
<g id="a_node4"><a xlink:href="classCustomServo.html#a9d67b7154c659f1bf60a8464115c1e94" target="_top" xlink:title="Bewegt den Servo mit einer vorher spezifizierten Geschwindigkeit.">
<polygon fill="none" stroke="black" points="159,-38.5 159,-57.5 272,-57.5 272,-38.5 159,-38.5"/>
<text text-anchor="middle" x="215.5" y="-45.5" font-family="Helvetica,sans-Serif" font-size="10.00">CustomServo::write</text>
</a>
</g>
</g>
<!-- Node1&#45;&gt;Node4 -->
<g id="edge3" class="edge">
<title>Node1&#45;&gt;Node4</title>
<path fill="none" stroke="midnightblue" d="M307.71,-58.25C295.69,-56.9 283.49,-55.53 272.09,-54.25"/>
<polygon fill="midnightblue" stroke="midnightblue" points="307.41,-61.74 317.74,-59.38 308.19,-54.79 307.41,-61.74"/>
</g>
<!-- Node3 -->
<g id="node3" class="node">
<title>Node3</title>
<g id="a_node3"><a xlink:href="sketch_8ino.html#afe461d27b9c48d5921c00d521181f12f" target="_top" xlink:title="Wird immer wieder ausgeführt.">
<polygon fill="none" stroke="black" points="37.5,-76.5 37.5,-95.5 75.5,-95.5 75.5,-76.5 37.5,-76.5"/>
<text text-anchor="middle" x="56.5" y="-83.5" font-family="Helvetica,sans-Serif" font-size="10.00">loop</text>
</a>
</g>
</g>
<!-- Node2&#45;&gt;Node3 -->
<g id="edge2" class="edge">
<title>Node2&#45;&gt;Node3</title>
<path fill="none" stroke="midnightblue" d="M138.8,-86C115.3,-86 91.46,-86 75.73,-86"/>
<polygon fill="midnightblue" stroke="midnightblue" points="138.83,-89.5 148.83,-86 138.83,-82.5 138.83,-89.5"/>
</g>
<!-- Node4&#45;&gt;Node3 -->
<g id="edge5" class="edge">
<title>Node4&#45;&gt;Node3</title>
<path fill="none" stroke="midnightblue" d="M164.87,-60.01C134.51,-67.36 97.46,-76.33 75.77,-81.58"/>
<polygon fill="midnightblue" stroke="midnightblue" points="165.99,-63.34 174.88,-57.59 164.34,-56.54 165.99,-63.34"/>
</g>
<!-- Node5 -->
<g id="node5" class="node">
<title>Node5</title>
<g id="a_node5"><a xlink:href="sketch_8ino.html#a6afc180dd30470854b71b1a9877a0d39" target="_top" xlink:title="Bewegt einen Ball zum Loch, legt ihn Ab und geht zurück.">
<polygon fill="none" stroke="black" points="25,-38.5 25,-57.5 88,-57.5 88,-38.5 25,-38.5"/>
<text text-anchor="middle" x="56.5" y="-45.5" font-family="Helvetica,sans-Serif" font-size="10.00">legBallAb</text>
</a>
</g>
</g>
<!-- Node4&#45;&gt;Node5 -->
<g id="edge4" class="edge">
<title>Node4&#45;&gt;Node5</title>
<path fill="none" stroke="midnightblue" d="M148.51,-48C127.49,-48 105.24,-48 88.01,-48"/>
<polygon fill="midnightblue" stroke="midnightblue" points="148.71,-51.5 158.71,-48 148.71,-44.5 148.71,-51.5"/>
</g>
<!-- Node6 -->
<g id="node6" class="node">
<title>Node6</title>
<g id="a_node6"><a xlink:href="classCustomServo.html#a73b3e39ae0c5ac49cde683711517283a" target="_top" xlink:title="Bewegt den Servo in duration Millisekunden an den angegebenen Winkel.">
<polygon fill="none" stroke="black" points="0,-0.5 0,-19.5 113,-19.5 113,-0.5 0,-0.5"/>
<text text-anchor="middle" x="56.5" y="-7.5" font-family="Helvetica,sans-Serif" font-size="10.00">CustomServo::write</text>
</a>
</g>
</g>
<!-- Node4&#45;&gt;Node6 -->
<g id="edge6" class="edge">
<title>Node4&#45;&gt;Node6</title>
<path fill="none" stroke="midnightblue" d="M165.05,-36.03C143.05,-30.71 117.51,-24.52 96.83,-19.52"/>
<polygon fill="midnightblue" stroke="midnightblue" points="164.34,-39.46 174.88,-38.41 165.99,-32.66 164.34,-39.46"/>
</g>
</g>
</svg>
