<?xml version="1.0" encoding="UTF-8" standalone="no"?>
<!DOCTYPE svg PUBLIC "-//W3C//DTD SVG 1.1//EN"
 "http://www.w3.org/Graphics/SVG/1.1/DTD/svg11.dtd">
<!-- Generated by graphviz version 2.43.0 (0)
 -->
<!-- Title: CallHandler::deleteCalls Pages: 1 -->
<svg width="363pt" height="104pt"
 viewBox="0.00 0.00 363.00 104.00" xmlns="http://www.w3.org/2000/svg" xmlns:xlink="http://www.w3.org/1999/xlink">
<g id="graph0" class="graph" transform="scale(1 1) rotate(0) translate(4 100)">
<title>CallHandler::deleteCalls</title>
<!-- Node1 -->
<g id="node1" class="node">
<title>Node1</title>
<g id="a_node1"><a xlink:title="setzt den Speicherplatz der von den Calls besetzt wurde mithilfe von delete frei">
<polygon fill="#bfbfbf" stroke="black" points="221,-38.5 221,-57.5 355,-57.5 355,-38.5 221,-38.5"/>
<text text-anchor="middle" x="288" y="-45.5" font-family="Helvetica,sans-Serif" font-size="10.00">CallHandler::deleteCalls</text>
</a>
</g>
</g>
<!-- Node2 -->
<g id="node2" class="node">
<title>Node2</title>
<g id="a_node2"><a xlink:href="sketch_8ino.html#a6afc180dd30470854b71b1a9877a0d39" target="_top" xlink:title="Bewegt einen Ball zum Loch, legt ihn Ab und geht zur端ck.">
<polygon fill="none" stroke="black" points="101,-76.5 101,-95.5 164,-95.5 164,-76.5 101,-76.5"/>
<text text-anchor="middle" x="132.5" y="-83.5" font-family="Helvetica,sans-Serif" font-size="10.00">legBallAb</text>
</a>
</g>
</g>
<!-- Node1&#45;&gt;Node2 -->
<g id="edge1" class="edge">
<title>Node1&#45;&gt;Node2</title>
<path fill="none" stroke="midnightblue" d="M238.53,-60C214.31,-65.99 185.73,-73.07 164.49,-78.33"/>
<polygon fill="midnightblue" stroke="midnightblue" points="239.4,-63.39 248.27,-57.59 237.72,-56.59 239.4,-63.39"/>
</g>
<!-- Node3 -->
<g id="node3" class="node">
<title>Node3</title>
<g id="a_node3"><a xlink:href="sketch_8ino.html#afe461d27b9c48d5921c00d521181f12f" target="_top" xlink:title="Wird immer wieder ausgef端hrt.">
<polygon fill="none" stroke="black" points="113.5,-38.5 113.5,-57.5 151.5,-57.5 151.5,-38.5 113.5,-38.5"/>
<text text-anchor="middle" x="132.5" y="-45.5" font-family="Helvetica,sans-Serif" font-size="10.00">loop</text>
</a>
</g>
</g>
<!-- Node1&#45;&gt;Node3 -->
<g id="edge2" class="edge">
<title>Node1&#45;&gt;Node3</title>
<path fill="none" stroke="midnightblue" d="M210.5,-48C188.54,-48 166.56,-48 151.73,-48"/>
<polygon fill="midnightblue" stroke="midnightblue" points="210.57,-51.5 220.57,-48 210.57,-44.5 210.57,-51.5"/>
</g>
<!-- Node4 -->
<g id="node4" class="node">
<title>Node4</title>
<g id="a_node4"><a xlink:href="sketch_8ino.html#abbbe19f80bf8227bbfbb68d98a1937cc" target="_top" xlink:title="wird ausgef端hrt wenn der Stop&#45;Knopf gedr端ckt wird">
<polygon fill="none" stroke="black" points="80,-0.5 80,-19.5 185,-19.5 185,-0.5 80,-0.5"/>
<text text-anchor="middle" x="132.5" y="-7.5" font-family="Helvetica,sans-Serif" font-size="10.00">stopButtonClicked</text>
</a>
</g>
</g>
<!-- Node1&#45;&gt;Node4 -->
<g id="edge3" class="edge">
<title>Node1&#45;&gt;Node4</title>
<path fill="none" stroke="midnightblue" d="M238.36,-35.96C216.92,-30.65 192.08,-24.5 171.96,-19.52"/>
<polygon fill="midnightblue" stroke="midnightblue" points="237.72,-39.41 248.27,-38.41 239.4,-32.61 237.72,-39.41"/>
</g>
<!-- Node5 -->
<g id="node5" class="node">
<title>Node5</title>
<g id="a_node5"><a xlink:href="sketch_8ino.html#a4fc01d736fe50cf5b977f755b675f11d" target="_top" xlink:title="Wird am Anfang des Programms aufgerufen.">
<polygon fill="none" stroke="black" points="0,-0.5 0,-19.5 44,-19.5 44,-0.5 0,-0.5"/>
<text text-anchor="middle" x="22" y="-7.5" font-family="Helvetica,sans-Serif" font-size="10.00">setup</text>
</a>
</g>
</g>
<!-- Node4&#45;&gt;Node5 -->
<g id="edge4" class="edge">
<title>Node4&#45;&gt;Node5</title>
<path fill="none" stroke="midnightblue" d="M69.71,-10C60.49,-10 51.55,-10 44.02,-10"/>
<polygon fill="midnightblue" stroke="midnightblue" points="69.79,-13.5 79.79,-10 69.79,-6.5 69.79,-13.5"/>
</g>
</g>
</svg>
