<?xml version="1.0" encoding="UTF-8" standalone="no"?>
<!DOCTYPE svg PUBLIC "-//W3C//DTD SVG 1.1//EN"
 "http://www.w3.org/Graphics/SVG/1.1/DTD/svg11.dtd">
<!-- Generated by graphviz version 2.43.0 (0)
 -->
<!-- Title: Callable::run Pages: 1 -->
<svg width="462pt" height="142pt"
 viewBox="0.00 0.00 462.00 142.00" xmlns="http://www.w3.org/2000/svg" xmlns:xlink="http://www.w3.org/1999/xlink">
<g id="graph0" class="graph" transform="scale(1 1) rotate(0) translate(4 138)">
<title>Callable::run</title>
<!-- Node1 -->
<g id="node1" class="node">
<title>Node1</title>
<g id="a_node1"><a xlink:title=" ">
<polygon fill="#bfbfbf" stroke="black" points="376,-95.5 376,-114.5 454,-114.5 454,-95.5 376,-95.5"/>
<text text-anchor="middle" x="415" y="-102.5" font-family="Helvetica,sans-Serif" font-size="10.00">Callable::run</text>
</a>
</g>
</g>
<!-- Node2 -->
<g id="node2" class="node">
<title>Node2</title>
<g id="a_node2"><a xlink:href="classCallHandler.html#afc5654ccaa266f3a81f8230afdb1c2a0" target="_top" xlink:title="Setzt die neuen Calls, die ausgeführt werden sollen.">
<polygon fill="none" stroke="black" points="221,-76.5 221,-95.5 340,-95.5 340,-76.5 221,-76.5"/>
<text text-anchor="middle" x="280.5" y="-83.5" font-family="Helvetica,sans-Serif" font-size="10.00">CallHandler::setCalls</text>
</a>
</g>
</g>
<!-- Node1&#45;&gt;Node2 -->
<g id="edge1" class="edge">
<title>Node1&#45;&gt;Node2</title>
<path fill="none" stroke="midnightblue" d="M365.58,-98.06C357.42,-96.89 348.86,-95.66 340.46,-94.45"/>
<polygon fill="midnightblue" stroke="midnightblue" points="365.28,-101.55 375.68,-99.5 366.27,-94.62 365.28,-101.55"/>
</g>
<!-- Node7 -->
<g id="node7" class="node">
<title>Node7</title>
<g id="a_node7"><a xlink:href="classCallHandler.html#a57ff2e7ae3955d5ed4806dcc6469dcf7" target="_top" xlink:title="Wechselt zum nächsten Call, wenn der Aktuelle vorbei ist und aktualisiert den jetzigen (z....">
<polygon fill="none" stroke="black" points="224,-114.5 224,-133.5 337,-133.5 337,-114.5 224,-114.5"/>
<text text-anchor="middle" x="280.5" y="-121.5" font-family="Helvetica,sans-Serif" font-size="10.00">CallHandler::update</text>
</a>
</g>
</g>
<!-- Node1&#45;&gt;Node7 -->
<g id="edge7" class="edge">
<title>Node1&#45;&gt;Node7</title>
<path fill="none" stroke="midnightblue" d="M365.6,-111.94C356.46,-113.25 346.83,-114.63 337.48,-115.97"/>
<polygon fill="midnightblue" stroke="midnightblue" points="366.27,-115.38 375.68,-110.5 365.28,-108.45 366.27,-115.38"/>
</g>
<!-- Node3 -->
<g id="node3" class="node">
<title>Node3</title>
<g id="a_node3"><a xlink:href="sketch_8ino.html#a39b44b8ad8390b202d1c91f96e22d7a2" target="_top" xlink:title="Bewegt einen Ball zum Loch, legt ihn Ab und geht zurück.">
<polygon fill="none" stroke="black" points="101,-76.5 101,-95.5 164,-95.5 164,-76.5 101,-76.5"/>
<text text-anchor="middle" x="132.5" y="-83.5" font-family="Helvetica,sans-Serif" font-size="10.00">legBallAb</text>
</a>
</g>
</g>
<!-- Node2&#45;&gt;Node3 -->
<g id="edge2" class="edge">
<title>Node2&#45;&gt;Node3</title>
<path fill="none" stroke="midnightblue" d="M210.88,-86C194.59,-86 178,-86 164.39,-86"/>
<polygon fill="midnightblue" stroke="midnightblue" points="210.96,-89.5 220.96,-86 210.96,-82.5 210.96,-89.5"/>
</g>
<!-- Node4 -->
<g id="node4" class="node">
<title>Node4</title>
<g id="a_node4"><a xlink:href="sketch_8ino.html#afe461d27b9c48d5921c00d521181f12f" target="_top" xlink:title="Wird immer wieder ausgeführt.">
<polygon fill="none" stroke="black" points="113.5,-114.5 113.5,-133.5 151.5,-133.5 151.5,-114.5 113.5,-114.5"/>
<text text-anchor="middle" x="132.5" y="-121.5" font-family="Helvetica,sans-Serif" font-size="10.00">loop</text>
</a>
</g>
</g>
<!-- Node2&#45;&gt;Node4 -->
<g id="edge3" class="edge">
<title>Node2&#45;&gt;Node4</title>
<path fill="none" stroke="midnightblue" d="M232.79,-98.16C205.2,-105.34 171.83,-114.02 151.66,-119.27"/>
<polygon fill="midnightblue" stroke="midnightblue" points="233.86,-101.5 242.66,-95.59 232.1,-94.72 233.86,-101.5"/>
</g>
<!-- Node5 -->
<g id="node5" class="node">
<title>Node5</title>
<g id="a_node5"><a xlink:href="sketch_8ino.html#a4fc01d736fe50cf5b977f755b675f11d" target="_top" xlink:title="Wird am Anfang des Programms aufgerufen.">
<polygon fill="none" stroke="black" points="0,-19.5 0,-38.5 44,-38.5 44,-19.5 0,-19.5"/>
<text text-anchor="middle" x="22" y="-26.5" font-family="Helvetica,sans-Serif" font-size="10.00">setup</text>
</a>
</g>
</g>
<!-- Node2&#45;&gt;Node5 -->
<g id="edge4" class="edge">
<title>Node2&#45;&gt;Node5</title>
<path fill="none" stroke="midnightblue" d="M226.76,-74.28C170.38,-61.75 83.77,-42.5 44.13,-33.69"/>
<polygon fill="midnightblue" stroke="midnightblue" points="226.05,-77.71 236.57,-76.46 227.57,-70.87 226.05,-77.71"/>
</g>
<!-- Node6 -->
<g id="node6" class="node">
<title>Node6</title>
<g id="a_node6"><a xlink:href="sketch_8ino.html#abbbe19f80bf8227bbfbb68d98a1937cc" target="_top" xlink:title="wird ausgeführt wenn der Stop&#45;Knopf gedrückt wird">
<polygon fill="none" stroke="black" points="80,-0.5 80,-19.5 185,-19.5 185,-0.5 80,-0.5"/>
<text text-anchor="middle" x="132.5" y="-7.5" font-family="Helvetica,sans-Serif" font-size="10.00">stopButtonClicked</text>
</a>
</g>
</g>
<!-- Node2&#45;&gt;Node6 -->
<g id="edge5" class="edge">
<title>Node2&#45;&gt;Node6</title>
<path fill="none" stroke="midnightblue" d="M254.08,-71.41C235.2,-60.72 208.71,-46.03 185,-34 175.24,-29.05 164.26,-23.88 154.95,-19.61"/>
<polygon fill="midnightblue" stroke="midnightblue" points="252.53,-74.55 262.95,-76.45 255.99,-68.47 252.53,-74.55"/>
</g>
<!-- Node6&#45;&gt;Node5 -->
<g id="edge6" class="edge">
<title>Node6&#45;&gt;Node5</title>
<path fill="none" stroke="midnightblue" d="M69.71,-20.82C60.49,-22.44 51.55,-24 44.02,-25.32"/>
<polygon fill="midnightblue" stroke="midnightblue" points="70.55,-24.23 79.79,-19.05 69.34,-17.33 70.55,-24.23"/>
</g>
<!-- Node7&#45;&gt;Node4 -->
<g id="edge8" class="edge">
<title>Node7&#45;&gt;Node4</title>
<path fill="none" stroke="midnightblue" d="M213.86,-124C191.05,-124 167.27,-124 151.56,-124"/>
<polygon fill="midnightblue" stroke="midnightblue" points="213.89,-127.5 223.89,-124 213.89,-120.5 213.89,-127.5"/>
</g>
</g>
</svg>
