<?xml version="1.0" encoding="UTF-8" standalone="no"?>
<!DOCTYPE svg PUBLIC "-//W3C//DTD SVG 1.1//EN"
 "http://www.w3.org/Graphics/SVG/1.1/DTD/svg11.dtd">
<!-- Generated by graphviz version 2.43.0 (0)
 -->
<!-- Title: AnimString Pages: 1 -->
<svg width="234pt" height="162pt"
 viewBox="0.00 0.00 233.50 162.00" xmlns="http://www.w3.org/2000/svg" xmlns:xlink="http://www.w3.org/1999/xlink">
<g id="graph0" class="graph" transform="scale(1 1) rotate(0) translate(4 158)">
<title>AnimString</title>
<!-- Node1 -->
<g id="node1" class="node">
<title>Node1</title>
<g id="a_node1"><a xlink:title="Die Klasse für animierbare LcdStrings.">
<polygon fill="#bfbfbf" stroke="black" points="0,-134.5 0,-153.5 71,-153.5 71,-134.5 0,-134.5"/>
<text text-anchor="middle" x="35.5" y="-141.5" font-family="Helvetica,sans-Serif" font-size="10.00">AnimString</text>
</a>
</g>
</g>
<!-- Node4 -->
<g id="node4" class="node">
<title>Node4</title>
<g id="a_node4"><a xlink:href="classAnimatableLcd.html" target="_top" xlink:title="Eigener Lcd, ermöglicht es Animationen auf dem Lcd Display anzuzeigen.">
<polygon fill="none" stroke="black" points="63,-67.5 63,-86.5 152,-86.5 152,-67.5 63,-67.5"/>
<text text-anchor="middle" x="107.5" y="-74.5" font-family="Helvetica,sans-Serif" font-size="10.00">AnimatableLcd</text>
</a>
</g>
</g>
<!-- Node1&#45;&gt;Node4 -->
<g id="edge5" class="edge">
<title>Node1&#45;&gt;Node4</title>
<path fill="none" stroke="#9a32cd" stroke-dasharray="5,2" d="M46.65,-125.76C51.61,-118.84 57.84,-111.08 64.5,-105 72.31,-97.87 82.25,-91.49 90.6,-86.73"/>
<polygon fill="#9a32cd" stroke="#9a32cd" points="43.47,-124.21 40.74,-134.44 49.26,-128.15 43.47,-124.21"/>
<text text-anchor="middle" x="93" y="-108" font-family="Helvetica,sans-Serif" font-size="10.00"> animString</text>
</g>
<!-- Node2 -->
<g id="node2" class="node">
<title>Node2</title>
<g id="a_node2"><a xlink:href="structLcdString.html" target="_top" xlink:title="Ein String der auf dem AnimatableLcd angezeigt werden kann.">
<polygon fill="none" stroke="black" points="76.5,-0.5 76.5,-19.5 138.5,-19.5 138.5,-0.5 76.5,-0.5"/>
<text text-anchor="middle" x="107.5" y="-7.5" font-family="Helvetica,sans-Serif" font-size="10.00">LcdString</text>
</a>
</g>
</g>
<!-- Node2&#45;&gt;Node1 -->
<g id="edge1" class="edge">
<title>Node2&#45;&gt;Node1</title>
<path fill="none" stroke="midnightblue" d="M88.63,-26.41C77.15,-36.76 63.09,-51.32 54.5,-67 42.34,-89.18 37.82,-119.25 36.26,-134.04"/>
<polygon fill="midnightblue" stroke="midnightblue" points="91.14,-28.86 96.41,-19.67 86.56,-23.57 91.14,-28.86"/>
</g>
<!-- Node3 -->
<g id="node3" class="node">
<title>Node3</title>
<g id="a_node3"><a xlink:href="classCallable.html" target="_top" xlink:title="Ein Call der vom CallHandler aufgerufen werden kann.">
<polygon fill="none" stroke="black" points="169.5,-67.5 169.5,-86.5 225.5,-86.5 225.5,-67.5 169.5,-67.5"/>
<text text-anchor="middle" x="197.5" y="-74.5" font-family="Helvetica,sans-Serif" font-size="10.00">Callable</text>
</a>
</g>
</g>
<!-- Node3&#45;&gt;Node2 -->
<g id="edge2" class="edge">
<title>Node3&#45;&gt;Node2</title>
<path fill="none" stroke="midnightblue" d="M176.82,-61.07C159.06,-48.24 134.06,-30.19 119.45,-19.63"/>
<polygon fill="midnightblue" stroke="midnightblue" points="175.21,-64.22 185.36,-67.23 179.3,-58.54 175.21,-64.22"/>
</g>
<!-- Node4&#45;&gt;Node2 -->
<g id="edge3" class="edge">
<title>Node4&#45;&gt;Node2</title>
<path fill="none" stroke="#9a32cd" stroke-dasharray="5,2" d="M107.5,-57.04C107.5,-44.67 107.5,-29.12 107.5,-19.63"/>
<polygon fill="#9a32cd" stroke="#9a32cd" points="104,-57.23 107.5,-67.23 111,-57.23 104,-57.23"/>
<text text-anchor="middle" x="116.5" y="-41" font-family="Helvetica,sans-Serif" font-size="10.00"> lcd</text>
</g>
<!-- Node5 -->
<g id="node5" class="node">
<title>Node5</title>
<g id="a_node5"><a xlink:title=" ">
<polygon fill="none" stroke="black" points="89,-134.5 89,-153.5 190,-153.5 190,-134.5 89,-134.5"/>
<text text-anchor="middle" x="139.5" y="-141.5" font-family="Helvetica,sans-Serif" font-size="10.00">LiquidCrystal_I2C</text>
</a>
</g>
</g>
<!-- Node5&#45;&gt;Node4 -->
<g id="edge4" class="edge">
<title>Node5&#45;&gt;Node4</title>
<path fill="none" stroke="midnightblue" d="M133.7,-124.59C131.44,-118.24 128.64,-111.18 125.5,-105 122.23,-98.57 117.73,-91.82 114.05,-86.68"/>
<polygon fill="midnightblue" stroke="midnightblue" points="130.46,-125.93 136.94,-134.31 137.1,-123.71 130.46,-125.93"/>
</g>
</g>
</svg>
