<?xml version="1.0" encoding="UTF-8" standalone="no"?>
<!DOCTYPE svg PUBLIC "-//W3C//DTD SVG 1.1//EN"
 "http://www.w3.org/Graphics/SVG/1.1/DTD/svg11.dtd">
<!-- Generated by graphviz version 2.43.0 (0)
 -->
<!-- Title: CallHandler::deleteCalls Pages: 1 -->
<svg width="241pt" height="66pt"
 viewBox="0.00 0.00 241.00 66.00" xmlns="http://www.w3.org/2000/svg" xmlns:xlink="http://www.w3.org/1999/xlink">
<g id="graph0" class="graph" transform="scale(1 1) rotate(0) translate(4 62)">
<title>CallHandler::deleteCalls</title>
<!-- Node1 -->
<g id="node1" class="node">
<title>Node1</title>
<g id="a_node1"><a xlink:title="setzt den Speicherplatz der von den Calls besetzt wurde mithilfe von delete frei">
<polygon fill="#bfbfbf" stroke="black" points="99,-19.5 99,-38.5 233,-38.5 233,-19.5 99,-19.5"/>
<text text-anchor="middle" x="166" y="-26.5" font-family="Helvetica,sans-Serif" font-size="10.00">CallHandler::deleteCalls</text>
</a>
</g>
</g>
<!-- Node2 -->
<g id="node2" class="node">
<title>Node2</title>
<g id="a_node2"><a xlink:href="sketch_8ino.html#a6afc180dd30470854b71b1a9877a0d39" target="_top" xlink:title="Bewegt einen Ball zum Loch, legt ihn Ab und geht zurück.">
<polygon fill="none" stroke="black" points="0,-38.5 0,-57.5 63,-57.5 63,-38.5 0,-38.5"/>
<text text-anchor="middle" x="31.5" y="-45.5" font-family="Helvetica,sans-Serif" font-size="10.00">legBallAb</text>
</a>
</g>
</g>
<!-- Node1&#45;&gt;Node2 -->
<g id="edge1" class="edge">
<title>Node1&#45;&gt;Node2</title>
<path fill="none" stroke="midnightblue" d="M88.6,-39.96C79.67,-41.24 70.99,-42.48 63.23,-43.59"/>
<polygon fill="midnightblue" stroke="midnightblue" points="89.35,-43.38 98.75,-38.5 88.35,-36.45 89.35,-43.38"/>
</g>
<!-- Node3 -->
<g id="node3" class="node">
<title>Node3</title>
<g id="a_node3"><a xlink:href="sketch_8ino.html#afe461d27b9c48d5921c00d521181f12f" target="_top" xlink:title="Wird immer wieder ausgeführt.">
<polygon fill="none" stroke="black" points="12.5,-0.5 12.5,-19.5 50.5,-19.5 50.5,-0.5 12.5,-0.5"/>
<text text-anchor="middle" x="31.5" y="-7.5" font-family="Helvetica,sans-Serif" font-size="10.00">loop</text>
</a>
</g>
</g>
<!-- Node1&#45;&gt;Node3 -->
<g id="edge2" class="edge">
<title>Node1&#45;&gt;Node3</title>
<path fill="none" stroke="midnightblue" d="M88.81,-18.07C74.55,-16.03 60.92,-14.08 50.65,-12.6"/>
<polygon fill="midnightblue" stroke="midnightblue" points="88.35,-21.55 98.75,-19.5 89.35,-14.62 88.35,-21.55"/>
</g>
</g>
</svg>
