<?xml version="1.0" encoding="UTF-8" standalone="no"?>
<!DOCTYPE svg PUBLIC "-//W3C//DTD SVG 1.1//EN"
 "http://www.w3.org/Graphics/SVG/1.1/DTD/svg11.dtd">
<!-- Generated by graphviz version 2.43.0 (0)
 -->
<!-- Title: AnimatableLcd::printCentered Pages: 1 -->
<svg width="505pt" height="104pt"
 viewBox="0.00 0.00 505.00 104.00" xmlns="http://www.w3.org/2000/svg" xmlns:xlink="http://www.w3.org/1999/xlink">
<g id="graph0" class="graph" transform="scale(1 1) rotate(0) translate(4 100)">
<title>AnimatableLcd::printCentered</title>
<!-- Node1 -->
<g id="node1" class="node">
<title>Node1</title>
<g id="a_node1"><a xlink:title="Gibt einen String zentriert auf dem Lcd&#45;Display aus.">
<polygon fill="#bfbfbf" stroke="black" points="335,-57.5 335,-76.5 497,-76.5 497,-57.5 335,-57.5"/>
<text text-anchor="middle" x="416" y="-64.5" font-family="Helvetica,sans-Serif" font-size="10.00">AnimatableLcd::printCentered</text>
</a>
</g>
</g>
<!-- Node2 -->
<g id="node2" class="node">
<title>Node2</title>
<g id="a_node2"><a xlink:href="classLcdLoadingAnim.html#a1dcb953ecdb84881d1c80769e7c3829c" target="_top" xlink:title="initialisierung der Ladeanimation">
<polygon fill="none" stroke="black" points="166,-76.5 166,-95.5 285,-95.5 285,-76.5 166,-76.5"/>
<text text-anchor="middle" x="225.5" y="-83.5" font-family="Helvetica,sans-Serif" font-size="10.00">LcdLoadingAnim::init</text>
</a>
</g>
</g>
<!-- Node1&#45;&gt;Node2 -->
<g id="edge1" class="edge">
<title>Node1&#45;&gt;Node2</title>
<path fill="none" stroke="midnightblue" d="M324.59,-76.11C311.22,-77.46 297.73,-78.82 285.23,-80.08"/>
<polygon fill="midnightblue" stroke="midnightblue" points="325.19,-79.57 334.79,-75.09 324.49,-72.61 325.19,-79.57"/>
</g>
<!-- Node3 -->
<g id="node3" class="node">
<title>Node3</title>
<g id="a_node3"><a xlink:href="classAnimatableLcd.html#ad5509573d45cc84cda93b125fdca749e" target="_top" xlink:title="gibt den Text &quot;schön&quot; aus, das heißt zentriert und mit automatischen Zeilenumbrüchen">
<polygon fill="none" stroke="black" points="152,-38.5 152,-57.5 299,-57.5 299,-38.5 152,-38.5"/>
<text text-anchor="middle" x="225.5" y="-45.5" font-family="Helvetica,sans-Serif" font-size="10.00">AnimatableLcd::printPretty</text>
</a>
</g>
</g>
<!-- Node1&#45;&gt;Node3 -->
<g id="edge2" class="edge">
<title>Node1&#45;&gt;Node3</title>
<path fill="none" stroke="midnightblue" d="M324.75,-57.9C316.18,-57.04 307.56,-56.17 299.18,-55.33"/>
<polygon fill="midnightblue" stroke="midnightblue" points="324.49,-61.39 334.79,-58.91 325.19,-54.43 324.49,-61.39"/>
</g>
<!-- Node4 -->
<g id="node4" class="node">
<title>Node4</title>
<g id="a_node4"><a xlink:href="classLcdDotAnim.html#afad9c4d44a8a5ef9063e941fd97714e7" target="_top" xlink:title="initialisiert die Punktanimation">
<polygon fill="none" stroke="black" points="9,-76.5 9,-95.5 107,-95.5 107,-76.5 9,-76.5"/>
<text text-anchor="middle" x="58" y="-83.5" font-family="Helvetica,sans-Serif" font-size="10.00">LcdDotAnim::init</text>
</a>
</g>
</g>
<!-- Node3&#45;&gt;Node4 -->
<g id="edge3" class="edge">
<title>Node3&#45;&gt;Node4</title>
<path fill="none" stroke="midnightblue" d="M172.69,-59.9C149.43,-65.24 122.35,-71.45 100.46,-76.48"/>
<polygon fill="midnightblue" stroke="midnightblue" points="173.77,-63.24 182.74,-57.59 172.21,-56.42 173.77,-63.24"/>
</g>
<!-- Node5 -->
<g id="node5" class="node">
<title>Node5</title>
<g id="a_node5"><a xlink:href="structLcdString.html#aa391ea895fc2ec0a5dfe249226daa017" target="_top" xlink:title="gibt den String auf dem Lcd&#45;Display aus">
<polygon fill="none" stroke="black" points="16.5,-38.5 16.5,-57.5 99.5,-57.5 99.5,-38.5 16.5,-38.5"/>
<text text-anchor="middle" x="58" y="-45.5" font-family="Helvetica,sans-Serif" font-size="10.00">LcdString::run</text>
</a>
</g>
</g>
<!-- Node3&#45;&gt;Node5 -->
<g id="edge4" class="edge">
<title>Node3&#45;&gt;Node5</title>
<path fill="none" stroke="midnightblue" d="M141.8,-48C127.16,-48 112.53,-48 99.72,-48"/>
<polygon fill="midnightblue" stroke="midnightblue" points="141.91,-51.5 151.91,-48 141.91,-44.5 141.91,-51.5"/>
</g>
<!-- Node6 -->
<g id="node6" class="node">
<title>Node6</title>
<g id="a_node6"><a xlink:href="classLcdDotAnim.html#a7dc0b25c1a3729a5c6aa652fffcccb71" target="_top" xlink:title="aktualisiert die Punktanimation, wird von loop() aufgerufen">
<polygon fill="none" stroke="black" points="0,-0.5 0,-19.5 116,-19.5 116,-0.5 0,-0.5"/>
<text text-anchor="middle" x="58" y="-7.5" font-family="Helvetica,sans-Serif" font-size="10.00">LcdDotAnim::update</text>
</a>
</g>
</g>
<!-- Node3&#45;&gt;Node6 -->
<g id="edge5" class="edge">
<title>Node3&#45;&gt;Node6</title>
<path fill="none" stroke="midnightblue" d="M172.69,-36.1C149.43,-30.76 122.35,-24.55 100.46,-19.52"/>
<polygon fill="midnightblue" stroke="midnightblue" points="172.21,-39.58 182.74,-38.41 173.77,-32.76 172.21,-39.58"/>
</g>
</g>
</svg>
