<?xml version="1.0" encoding="UTF-8" standalone="no"?>
<!DOCTYPE svg PUBLIC "-//W3C//DTD SVG 1.1//EN"
 "http://www.w3.org/Graphics/SVG/1.1/DTD/svg11.dtd">
<!-- Generated by graphviz version 2.43.0 (0)
 -->
<!-- Title: CustomServo::write Pages: 1 -->
<svg width="443pt" height="28pt"
 viewBox="0.00 0.00 443.00 28.00" xmlns="http://www.w3.org/2000/svg" xmlns:xlink="http://www.w3.org/1999/xlink">
<g id="graph0" class="graph" transform="scale(1 1) rotate(0) translate(4 24)">
<title>CustomServo::write</title>
<!-- Node1 -->
<g id="node1" class="node">
<title>Node1</title>
<g id="a_node1"><a xlink:title="Bewegt den Servo in duration Millisekunden an den angegebenen Winkel.">
<polygon fill="#bfbfbf" stroke="black" points="0,-0.5 0,-19.5 113,-19.5 113,-0.5 0,-0.5"/>
<text text-anchor="middle" x="56.5" y="-7.5" font-family="Helvetica,sans-Serif" font-size="10.00">CustomServo::write</text>
</a>
</g>
</g>
<!-- Node2 -->
<g id="node2" class="node">
<title>Node2</title>
<g id="a_node2"><a xlink:href="classCustomServo.html#a9d67b7154c659f1bf60a8464115c1e94" target="_top" xlink:title="Bewegt den Servo mit einer vorher spezifizierten Geschwindigkeit.">
<polygon fill="none" stroke="black" points="149,-0.5 149,-19.5 262,-19.5 262,-0.5 149,-0.5"/>
<text text-anchor="middle" x="205.5" y="-7.5" font-family="Helvetica,sans-Serif" font-size="10.00">CustomServo::write</text>
</a>
</g>
</g>
<!-- Node1&#45;&gt;Node2 -->
<g id="edge1" class="edge">
<title>Node1&#45;&gt;Node2</title>
<path fill="none" stroke="midnightblue" d="M113.07,-10C121.49,-10 130.24,-10 138.84,-10"/>
<polygon fill="midnightblue" stroke="midnightblue" points="138.85,-13.5 148.85,-10 138.85,-6.5 138.85,-13.5"/>
</g>
<!-- Node3 -->
<g id="node3" class="node">
<title>Node3</title>
<g id="a_node3"><a xlink:href="classCustomServo.html#a9ddb7875f2c036d6c4a06c4416e68fb2" target="_top" xlink:title="Setzt Variablen, die benötigt werden um den Servo zu bewegen.">
<polygon fill="none" stroke="black" points="298,-0.5 298,-19.5 435,-19.5 435,-0.5 298,-0.5"/>
<text text-anchor="middle" x="366.5" y="-7.5" font-family="Helvetica,sans-Serif" font-size="10.00">CustomServo::startMove</text>
</a>
</g>
</g>
<!-- Node2&#45;&gt;Node3 -->
<g id="edge2" class="edge">
<title>Node2&#45;&gt;Node3</title>
<path fill="none" stroke="midnightblue" d="M262.11,-10C270.41,-10 279.1,-10 287.76,-10"/>
<polygon fill="midnightblue" stroke="midnightblue" points="287.89,-13.5 297.89,-10 287.89,-6.5 287.89,-13.5"/>
</g>
</g>
</svg>
