<?xml version="1.0" encoding="UTF-8" standalone="no"?>
<!DOCTYPE svg PUBLIC "-//W3C//DTD SVG 1.1//EN"
 "http://www.w3.org/Graphics/SVG/1.1/DTD/svg11.dtd">
<!-- Generated by graphviz version 2.43.0 (0)
 -->
<!-- Title: CallHandler::setCalls Pages: 1 -->
<svg width="226pt" height="104pt"
 viewBox="0.00 0.00 226.00 104.00" xmlns="http://www.w3.org/2000/svg" xmlns:xlink="http://www.w3.org/1999/xlink">
<g id="graph0" class="graph" transform="scale(1 1) rotate(0) translate(4 100)">
<title>CallHandler::setCalls</title>
<!-- Node1 -->
<g id="node1" class="node">
<title>Node1</title>
<g id="a_node1"><a xlink:title="Setzt die neuen Calls, die ausgeführt werden sollen.">
<polygon fill="#bfbfbf" stroke="black" points="99,-38.5 99,-57.5 218,-57.5 218,-38.5 99,-38.5"/>
<text text-anchor="middle" x="158.5" y="-45.5" font-family="Helvetica,sans-Serif" font-size="10.00">CallHandler::setCalls</text>
</a>
</g>
</g>
<!-- Node2 -->
<g id="node2" class="node">
<title>Node2</title>
<g id="a_node2"><a xlink:href="sketch_8ino.html#a6afc180dd30470854b71b1a9877a0d39" target="_top" xlink:title="Bewegt einen Ball zum Loch, legt ihn Ab und geht zurück.">
<polygon fill="none" stroke="black" points="0,-76.5 0,-95.5 63,-95.5 63,-76.5 0,-76.5"/>
<text text-anchor="middle" x="31.5" y="-83.5" font-family="Helvetica,sans-Serif" font-size="10.00">legBallAb</text>
</a>
</g>
</g>
<!-- Node1&#45;&gt;Node2 -->
<g id="edge1" class="edge">
<title>Node1&#45;&gt;Node2</title>
<path fill="none" stroke="midnightblue" d="M116.11,-60.58C98.83,-65.83 79.12,-71.83 63.17,-76.68"/>
<polygon fill="midnightblue" stroke="midnightblue" points="117.41,-63.85 125.96,-57.59 115.37,-57.15 117.41,-63.85"/>
</g>
<!-- Node3 -->
<g id="node3" class="node">
<title>Node3</title>
<g id="a_node3"><a xlink:href="sketch_8ino.html#afe461d27b9c48d5921c00d521181f12f" target="_top" xlink:title="Wird immer wieder ausgeführt.">
<polygon fill="none" stroke="black" points="12.5,-38.5 12.5,-57.5 50.5,-57.5 50.5,-38.5 12.5,-38.5"/>
<text text-anchor="middle" x="31.5" y="-45.5" font-family="Helvetica,sans-Serif" font-size="10.00">loop</text>
</a>
</g>
</g>
<!-- Node1&#45;&gt;Node3 -->
<g id="edge2" class="edge">
<title>Node1&#45;&gt;Node3</title>
<path fill="none" stroke="midnightblue" d="M88.42,-48C74.4,-48 60.83,-48 50.57,-48"/>
<polygon fill="midnightblue" stroke="midnightblue" points="88.66,-51.5 98.66,-48 88.66,-44.5 88.66,-51.5"/>
</g>
<!-- Node4 -->
<g id="node4" class="node">
<title>Node4</title>
<g id="a_node4"><a xlink:href="sketch_8ino.html#a4fc01d736fe50cf5b977f755b675f11d" target="_top" xlink:title="Wird am Anfang des Programms aufgerufen.">
<polygon fill="none" stroke="black" points="9.5,-0.5 9.5,-19.5 53.5,-19.5 53.5,-0.5 9.5,-0.5"/>
<text text-anchor="middle" x="31.5" y="-7.5" font-family="Helvetica,sans-Serif" font-size="10.00">setup</text>
</a>
</g>
</g>
<!-- Node1&#45;&gt;Node4 -->
<g id="edge3" class="edge">
<title>Node1&#45;&gt;Node4</title>
<path fill="none" stroke="midnightblue" d="M116.34,-35.49C95.44,-29.13 70.92,-21.68 53.81,-16.48"/>
<polygon fill="midnightblue" stroke="midnightblue" points="115.37,-38.85 125.96,-38.41 117.41,-32.15 115.37,-38.85"/>
</g>
</g>
</svg>
