<?xml version="1.0" encoding="UTF-8" standalone="no"?>
<!DOCTYPE svg PUBLIC "-//W3C//DTD SVG 1.1//EN"
 "http://www.w3.org/Graphics/SVG/1.1/DTD/svg11.dtd">
<!-- Generated by graphviz version 2.43.0 (0)
 -->
<!-- Title: CustomServo::isDone Pages: 1 -->
<svg width="317pt" height="28pt"
 viewBox="0.00 0.00 317.00 28.00" xmlns="http://www.w3.org/2000/svg" xmlns:xlink="http://www.w3.org/1999/xlink">
<g id="graph0" class="graph" transform="scale(1 1) rotate(0) translate(4 24)">
<title>CustomServo::isDone</title>
<!-- Node1 -->
<g id="node1" class="node">
<title>Node1</title>
<g id="a_node1"><a xlink:title="Gibt an, ob der Servo angekommen ist.">
<polygon fill="#bfbfbf" stroke="black" points="187,-0.5 187,-19.5 309,-19.5 309,-0.5 187,-0.5"/>
<text text-anchor="middle" x="248" y="-7.5" font-family="Helvetica,sans-Serif" font-size="10.00">CustomServo::isDone</text>
</a>
</g>
</g>
<!-- Node2 -->
<g id="node2" class="node">
<title>Node2</title>
<g id="a_node2"><a xlink:href="sketch_8ino.html#a39ddda5c3402f1f7b2c9ccad07e18791" target="_top" xlink:title="Hilf Funktion, Methoden können nicht als Funktionsparameter benutzt werden.">
<polygon fill="none" stroke="black" points="74,-0.5 74,-19.5 151,-19.5 151,-0.5 74,-0.5"/>
<text text-anchor="middle" x="112.5" y="-7.5" font-family="Helvetica,sans-Serif" font-size="10.00">servoIsDone</text>
</a>
</g>
</g>
<!-- Node1&#45;&gt;Node2 -->
<g id="edge1" class="edge">
<title>Node1&#45;&gt;Node2</title>
<path fill="none" stroke="midnightblue" d="M176.86,-10C167.99,-10 159.19,-10 151.1,-10"/>
<polygon fill="midnightblue" stroke="midnightblue" points="176.89,-13.5 186.89,-10 176.89,-6.5 176.89,-13.5"/>
</g>
<!-- Node3 -->
<g id="node3" class="node">
<title>Node3</title>
<g id="a_node3"><a xlink:href="sketch_8ino.html#afe461d27b9c48d5921c00d521181f12f" target="_top" xlink:title="Wird immer wieder ausgeführt.">
<polygon fill="none" stroke="black" points="0,-0.5 0,-19.5 38,-19.5 38,-0.5 0,-0.5"/>
<text text-anchor="middle" x="19" y="-7.5" font-family="Helvetica,sans-Serif" font-size="10.00">loop</text>
</a>
</g>
</g>
<!-- Node2&#45;&gt;Node3 -->
<g id="edge2" class="edge">
<title>Node2&#45;&gt;Node3</title>
<path fill="none" stroke="midnightblue" d="M63.64,-10C54.65,-10 45.78,-10 38.4,-10"/>
<polygon fill="midnightblue" stroke="midnightblue" points="63.76,-13.5 73.76,-10 63.76,-6.5 63.76,-13.5"/>
</g>
</g>
</svg>
