<?xml version="1.0" encoding="UTF-8" standalone="no"?>
<!DOCTYPE svg PUBLIC "-//W3C//DTD SVG 1.1//EN"
 "http://www.w3.org/Graphics/SVG/1.1/DTD/svg11.dtd">
<!-- Generated by graphviz version 2.43.0 (0)
 -->
<!-- Title: customServo.h Pages: 1 -->
<svg width="190pt" height="84pt"
 viewBox="0.00 0.00 190.00 84.00" xmlns="http://www.w3.org/2000/svg" xmlns:xlink="http://www.w3.org/1999/xlink">
<g id="graph0" class="graph" transform="scale(1 1) rotate(0) translate(4 80)">
<title>customServo.h</title>
<!-- Node1 -->
<g id="node1" class="node">
<title>Node1</title>
<g id="a_node1"><a xlink:title="Header Datei der CustomServo Klasse.">
<polygon fill="#bfbfbf" stroke="black" points="54.5,-56.5 54.5,-75.5 143.5,-75.5 143.5,-56.5 54.5,-56.5"/>
<text text-anchor="middle" x="99" y="-63.5" font-family="Helvetica,sans-Serif" font-size="10.00">customServo.h</text>
</a>
</g>
</g>
<!-- Node2 -->
<g id="node2" class="node">
<title>Node2</title>
<g id="a_node2"><a xlink:href="customServo_8ino.html" target="_top" xlink:title="Umsetztung der CustomServo Klasse.">
<polygon fill="none" stroke="black" points="0,-0.5 0,-19.5 98,-19.5 98,-0.5 0,-0.5"/>
<text text-anchor="middle" x="49" y="-7.5" font-family="Helvetica,sans-Serif" font-size="10.00">customServo.ino</text>
</a>
</g>
</g>
<!-- Node1&#45;&gt;Node2 -->
<g id="edge1" class="edge">
<title>Node1&#45;&gt;Node2</title>
<path fill="none" stroke="midnightblue" d="M83.92,-48.72C75.11,-39.2 64.33,-27.56 57.1,-19.75"/>
<polygon fill="midnightblue" stroke="midnightblue" points="81.38,-51.12 90.74,-56.08 86.52,-46.37 81.38,-51.12"/>
</g>
<!-- Node3 -->
<g id="node3" class="node">
<title>Node3</title>
<g id="a_node3"><a xlink:href="sketch_8ino.html" target="_top" xlink:title="Hauptdatei, wichtigste Funktionen sind setup() und loop()">
<polygon fill="none" stroke="black" points="116,-0.5 116,-19.5 182,-19.5 182,-0.5 116,-0.5"/>
<text text-anchor="middle" x="149" y="-7.5" font-family="Helvetica,sans-Serif" font-size="10.00">sketch.ino</text>
</a>
</g>
</g>
<!-- Node1&#45;&gt;Node3 -->
<g id="edge2" class="edge">
<title>Node1&#45;&gt;Node3</title>
<path fill="none" stroke="midnightblue" d="M114.08,-48.72C122.89,-39.2 133.67,-27.56 140.9,-19.75"/>
<polygon fill="midnightblue" stroke="midnightblue" points="111.48,-46.37 107.26,-56.08 116.62,-51.12 111.48,-46.37"/>
</g>
</g>
</svg>
