<?xml version="1.0" encoding="UTF-8" standalone="no"?>
<!DOCTYPE svg PUBLIC "-//W3C//DTD SVG 1.1//EN"
 "http://www.w3.org/Graphics/SVG/1.1/DTD/svg11.dtd">
<!-- Generated by graphviz version 2.43.0 (0)
 -->
<!-- Title: header.h Pages: 1 -->
<svg width="502pt" height="196pt"
 viewBox="0.00 0.00 502.44 196.00" xmlns="http://www.w3.org/2000/svg" xmlns:xlink="http://www.w3.org/1999/xlink">
<g id="graph0" class="graph" transform="scale(1 1) rotate(0) translate(4 192)">
<title>header.h</title>
<!-- Node1 -->
<g id="node1" class="node">
<title>Node1</title>
<g id="a_node1"><a xlink:title="Definiert variablen&#45;types die überall im Programm benutzt werden.">
<polygon fill="#bfbfbf" stroke="black" points="181.5,-168.5 181.5,-187.5 240.5,-187.5 240.5,-168.5 181.5,-168.5"/>
<text text-anchor="middle" x="211" y="-175.5" font-family="Helvetica,sans-Serif" font-size="10.00">header.h</text>
</a>
</g>
</g>
<!-- Node2 -->
<g id="node2" class="node">
<title>Node2</title>
<g id="a_node2"><a xlink:href="animLcd_8ino.html" target="_top" xlink:title="Implementation für die AnimatableLcd Klasse.">
<polygon fill="none" stroke="black" points="106,-0.5 106,-19.5 182,-19.5 182,-0.5 106,-0.5"/>
<text text-anchor="middle" x="144" y="-7.5" font-family="Helvetica,sans-Serif" font-size="10.00">animLcd.ino</text>
</a>
</g>
</g>
<!-- Node1&#45;&gt;Node2 -->
<g id="edge1" class="edge">
<title>Node1&#45;&gt;Node2</title>
<path fill="none" stroke="midnightblue" d="M171.28,-174.14C141.88,-169.78 103.37,-158.92 82,-132 60.93,-105.46 59.96,-85.85 76,-56 85.38,-38.54 104.84,-26.72 120.55,-19.59"/>
<polygon fill="midnightblue" stroke="midnightblue" points="170.89,-177.62 181.26,-175.43 171.79,-170.68 170.89,-177.62"/>
</g>
<!-- Node3 -->
<g id="node3" class="node">
<title>Node3</title>
<g id="a_node3"><a xlink:href="animString_8h.html" target="_top" xlink:title="Header datei für eine Mehrzahl von animierbaren Strings und der Callable Klasse.">
<polygon fill="none" stroke="black" points="91.5,-112.5 91.5,-131.5 170.5,-131.5 170.5,-112.5 91.5,-112.5"/>
<text text-anchor="middle" x="131" y="-119.5" font-family="Helvetica,sans-Serif" font-size="10.00">animString.h</text>
</a>
</g>
</g>
<!-- Node1&#45;&gt;Node3 -->
<g id="edge2" class="edge">
<title>Node1&#45;&gt;Node3</title>
<path fill="none" stroke="midnightblue" d="M189.7,-162.62C175.08,-152.76 156.17,-139.99 143.82,-131.65"/>
<polygon fill="midnightblue" stroke="midnightblue" points="187.9,-165.63 198.15,-168.32 191.82,-159.83 187.9,-165.63"/>
</g>
<!-- Node5 -->
<g id="node5" class="node">
<title>Node5</title>
<g id="a_node5"><a xlink:href="animString_8ino.html" target="_top" xlink:title="Implementationen der Callable und LcdString Klassen.">
<polygon fill="none" stroke="black" points="0,-0.5 0,-19.5 88,-19.5 88,-0.5 0,-0.5"/>
<text text-anchor="middle" x="44" y="-7.5" font-family="Helvetica,sans-Serif" font-size="10.00">animString.ino</text>
</a>
</g>
</g>
<!-- Node1&#45;&gt;Node5 -->
<g id="edge15" class="edge">
<title>Node1&#45;&gt;Node5</title>
<path fill="none" stroke="midnightblue" d="M171.24,-175.55C138.18,-172.12 92.41,-161.82 66,-132 36.98,-99.23 40.33,-41.35 42.82,-19.59"/>
<polygon fill="midnightblue" stroke="midnightblue" points="171.22,-179.06 181.49,-176.43 171.83,-172.08 171.22,-179.06"/>
</g>
<!-- Node6 -->
<g id="node6" class="node">
<title>Node6</title>
<g id="a_node6"><a xlink:href="sketch_8ino.html" target="_top" xlink:title="Hauptdatei, wichtigste Funktionen sind setup() und loop()">
<polygon fill="none" stroke="black" points="200,-0.5 200,-19.5 266,-19.5 266,-0.5 200,-0.5"/>
<text text-anchor="middle" x="233" y="-7.5" font-family="Helvetica,sans-Serif" font-size="10.00">sketch.ino</text>
</a>
</g>
</g>
<!-- Node1&#45;&gt;Node6 -->
<g id="edge21" class="edge">
<title>Node1&#45;&gt;Node6</title>
<path fill="none" stroke="midnightblue" d="M222.42,-159.7C234.5,-140.28 252.79,-107.36 260,-76 261.99,-67.34 262.37,-64.57 260,-56 256.16,-42.13 246.77,-28.24 240.15,-19.64"/>
<polygon fill="midnightblue" stroke="midnightblue" points="219.35,-158.01 216.91,-168.32 225.25,-161.78 219.35,-158.01"/>
</g>
<!-- Node7 -->
<g id="node7" class="node">
<title>Node7</title>
<g id="a_node7"><a xlink:href="callHandler_8h.html" target="_top" xlink:title="header datei für den CallHandler">
<polygon fill="none" stroke="black" points="171,-56.5 171,-75.5 251,-75.5 251,-56.5 171,-56.5"/>
<text text-anchor="middle" x="211" y="-63.5" font-family="Helvetica,sans-Serif" font-size="10.00">callHandler.h</text>
</a>
</g>
</g>
<!-- Node1&#45;&gt;Node7 -->
<g id="edge16" class="edge">
<title>Node1&#45;&gt;Node7</title>
<path fill="none" stroke="midnightblue" d="M211,-158.35C211,-134.25 211,-93.31 211,-75.59"/>
<polygon fill="midnightblue" stroke="midnightblue" points="207.5,-158.37 211,-168.37 214.5,-158.37 207.5,-158.37"/>
</g>
<!-- Node8 -->
<g id="node8" class="node">
<title>Node8</title>
<g id="a_node8"><a xlink:href="callHandler_8ino.html" target="_top" xlink:title="Umsetzung der CallHandler Klasse.">
<polygon fill="none" stroke="black" points="284.5,-0.5 284.5,-19.5 373.5,-19.5 373.5,-0.5 284.5,-0.5"/>
<text text-anchor="middle" x="329" y="-7.5" font-family="Helvetica,sans-Serif" font-size="10.00">callHandler.ino</text>
</a>
</g>
</g>
<!-- Node1&#45;&gt;Node8 -->
<g id="edge17" class="edge">
<title>Node1&#45;&gt;Node8</title>
<path fill="none" stroke="midnightblue" d="M251.04,-177.54C316.9,-175.89 445.24,-161.35 490,-76 514.64,-29.02 429.3,-15.91 373.56,-12.31"/>
<polygon fill="midnightblue" stroke="midnightblue" points="250.59,-174.05 240.65,-177.7 250.7,-181.04 250.59,-174.05"/>
</g>
<!-- Node9 -->
<g id="node9" class="node">
<title>Node9</title>
<g id="a_node9"><a xlink:href="customServo_8h.html" target="_top" xlink:title="Header Datei der CustomServo Klasse.">
<polygon fill="none" stroke="black" points="310.5,-112.5 310.5,-131.5 399.5,-131.5 399.5,-112.5 310.5,-112.5"/>
<text text-anchor="middle" x="355" y="-119.5" font-family="Helvetica,sans-Serif" font-size="10.00">customServo.h</text>
</a>
</g>
</g>
<!-- Node1&#45;&gt;Node9 -->
<g id="edge18" class="edge">
<title>Node1&#45;&gt;Node9</title>
<path fill="none" stroke="midnightblue" d="M243.25,-164.91C270.32,-154.75 308.32,-140.51 332.29,-131.52"/>
<polygon fill="midnightblue" stroke="midnightblue" points="241.95,-161.66 233.82,-168.44 244.41,-168.21 241.95,-161.66"/>
</g>
<!-- Node4 -->
<g id="node4" class="node">
<title>Node4</title>
<g id="a_node4"><a xlink:href="animLcd_8h.html" target="_top" xlink:title="Header&#45;Datei für den animierbaren lcd (AnimatableLcd)">
<polygon fill="none" stroke="black" points="85.5,-56.5 85.5,-75.5 152.5,-75.5 152.5,-56.5 85.5,-56.5"/>
<text text-anchor="middle" x="119" y="-63.5" font-family="Helvetica,sans-Serif" font-size="10.00">animLcd.h</text>
</a>
</g>
</g>
<!-- Node3&#45;&gt;Node4 -->
<g id="edge3" class="edge">
<title>Node3&#45;&gt;Node4</title>
<path fill="none" stroke="midnightblue" d="M120.41,-102.4C117.74,-93.36 115.87,-82.94 115.81,-75.75"/>
<polygon fill="midnightblue" stroke="midnightblue" points="117.21,-103.83 123.85,-112.08 123.81,-101.49 117.21,-103.83"/>
</g>
<!-- Node3&#45;&gt;Node5 -->
<g id="edge8" class="edge">
<title>Node3&#45;&gt;Node5</title>
<path fill="none" stroke="midnightblue" d="M109.13,-106.51C98.19,-98.47 85.32,-87.74 76,-76 61.76,-58.07 51.59,-32.78 46.91,-19.66"/>
<polygon fill="midnightblue" stroke="midnightblue" points="107.2,-109.43 117.39,-112.35 111.24,-103.72 107.2,-109.43"/>
</g>
<!-- Node3&#45;&gt;Node7 -->
<g id="edge9" class="edge">
<title>Node3&#45;&gt;Node7</title>
<path fill="none" stroke="midnightblue" d="M152.3,-106.62C166.92,-96.76 185.83,-83.99 198.18,-75.65"/>
<polygon fill="midnightblue" stroke="midnightblue" points="150.18,-103.83 143.85,-112.32 154.1,-109.63 150.18,-103.83"/>
</g>
<!-- Node3&#45;&gt;Node8 -->
<g id="edge14" class="edge">
<title>Node3&#45;&gt;Node8</title>
<path fill="none" stroke="midnightblue" d="M177.91,-109.78C203.35,-102.46 234.67,-91.38 260,-76 285.89,-60.29 310.21,-33.58 321.84,-19.8"/>
<polygon fill="midnightblue" stroke="midnightblue" points="176.82,-106.45 168.12,-112.5 178.69,-113.2 176.82,-106.45"/>
</g>
<!-- Node4&#45;&gt;Node2 -->
<g id="edge4" class="edge">
<title>Node4&#45;&gt;Node2</title>
<path fill="none" stroke="midnightblue" d="M127.34,-46.98C131.58,-37.82 136.55,-27.09 139.95,-19.75"/>
<polygon fill="midnightblue" stroke="midnightblue" points="124.15,-45.54 123.13,-56.08 130.51,-48.48 124.15,-45.54"/>
</g>
<!-- Node4&#45;&gt;Node3 -->
<g id="edge5" class="edge">
<title>Node4&#45;&gt;Node3</title>
<path fill="none" stroke="midnightblue" d="M129.52,-85.4C132.21,-94.41 134.1,-104.85 134.18,-112.08"/>
<polygon fill="midnightblue" stroke="midnightblue" points="132.74,-83.99 126.08,-75.75 126.15,-86.35 132.74,-83.99"/>
</g>
<!-- Node4&#45;&gt;Node5 -->
<g id="edge6" class="edge">
<title>Node4&#45;&gt;Node5</title>
<path fill="none" stroke="midnightblue" d="M98.69,-50.38C85.14,-40.62 67.76,-28.11 56.27,-19.83"/>
<polygon fill="midnightblue" stroke="midnightblue" points="96.79,-53.32 106.95,-56.32 100.88,-47.64 96.79,-53.32"/>
</g>
<!-- Node4&#45;&gt;Node6 -->
<g id="edge7" class="edge">
<title>Node4&#45;&gt;Node6</title>
<path fill="none" stroke="midnightblue" d="M146.24,-52.1C167.54,-42.01 196.54,-28.27 215.02,-19.52"/>
<polygon fill="midnightblue" stroke="midnightblue" points="144.6,-49 137.06,-56.44 147.6,-55.33 144.6,-49"/>
</g>
<!-- Node7&#45;&gt;Node2 -->
<g id="edge10" class="edge">
<title>Node7&#45;&gt;Node2</title>
<path fill="none" stroke="midnightblue" d="M192.17,-49.82C180.16,-40.15 165.03,-27.95 154.96,-19.83"/>
<polygon fill="midnightblue" stroke="midnightblue" points="190.25,-52.77 200.24,-56.32 194.65,-47.32 190.25,-52.77"/>
</g>
<!-- Node7&#45;&gt;Node5 -->
<g id="edge11" class="edge">
<title>Node7&#45;&gt;Node5</title>
<path fill="none" stroke="midnightblue" d="M174.83,-53.3C143.36,-43.13 98.51,-28.62 70.34,-19.52"/>
<polygon fill="midnightblue" stroke="midnightblue" points="173.95,-56.7 184.54,-56.44 176.1,-50.04 173.95,-56.7"/>
</g>
<!-- Node7&#45;&gt;Node6 -->
<g id="edge13" class="edge">
<title>Node7&#45;&gt;Node6</title>
<path fill="none" stroke="midnightblue" d="M218.46,-46.69C222.17,-37.59 226.48,-27.01 229.43,-19.75"/>
<polygon fill="midnightblue" stroke="midnightblue" points="215.16,-45.5 214.63,-56.08 221.65,-48.14 215.16,-45.5"/>
</g>
<!-- Node7&#45;&gt;Node8 -->
<g id="edge12" class="edge">
<title>Node7&#45;&gt;Node8</title>
<path fill="none" stroke="midnightblue" d="M238.9,-52.23C260.97,-42.13 291.18,-28.31 310.39,-19.52"/>
<polygon fill="midnightblue" stroke="midnightblue" points="237.33,-49.1 229.7,-56.44 240.25,-55.46 237.33,-49.1"/>
</g>
<!-- Node9&#45;&gt;Node6 -->
<g id="edge20" class="edge">
<title>Node9&#45;&gt;Node6</title>
<path fill="none" stroke="midnightblue" d="M340.68,-104.53C328.54,-90.94 310.38,-71.44 293,-56 277.62,-42.34 258.37,-28.4 245.88,-19.73"/>
<polygon fill="midnightblue" stroke="midnightblue" points="338.16,-106.96 347.4,-112.14 343.41,-102.33 338.16,-106.96"/>
</g>
<!-- Node10 -->
<g id="node10" class="node">
<title>Node10</title>
<g id="a_node10"><a xlink:href="customServo_8ino.html" target="_top" xlink:title="Umsetztung der CustomServo Klasse.">
<polygon fill="none" stroke="black" points="383,-56.5 383,-75.5 481,-75.5 481,-56.5 383,-56.5"/>
<text text-anchor="middle" x="432" y="-63.5" font-family="Helvetica,sans-Serif" font-size="10.00">customServo.ino</text>
</a>
</g>
</g>
<!-- Node9&#45;&gt;Node10 -->
<g id="edge19" class="edge">
<title>Node9&#45;&gt;Node10</title>
<path fill="none" stroke="midnightblue" d="M375.9,-106.34C389.91,-96.52 407.88,-83.91 419.66,-75.65"/>
<polygon fill="midnightblue" stroke="midnightblue" points="373.55,-103.72 367.37,-112.32 377.57,-109.45 373.55,-103.72"/>
</g>
</g>
</svg>
