<?xml version="1.0" encoding="UTF-8" standalone="no"?>
<!DOCTYPE svg PUBLIC "-//W3C//DTD SVG 1.1//EN"
 "http://www.w3.org/Graphics/SVG/1.1/DTD/svg11.dtd">
<!-- Generated by graphviz version 2.43.0 (0)
 -->
<!-- Title: Grafische Darstellung der Klassenhierarchie Pages: 1 -->
<svg width="402pt" height="85pt"
 viewBox="0.00 0.00 402.00 85.00" xmlns="http://www.w3.org/2000/svg" xmlns:xlink="http://www.w3.org/1999/xlink">
<g id="graph0" class="graph" transform="scale(1 1) rotate(0) translate(4 81)">
<title>Grafische Darstellung der Klassenhierarchie</title>
<!-- Node0 -->
<g id="node1" class="node">
<title>Node0</title>
<g id="a_node1"><a xlink:href="structCallable.html" target="_top" xlink:title="Ein Call der vom CallHandler aufgerufen werden kann.">
<polygon fill="none" stroke="black" points="0,-38.5 0,-57.5 56,-57.5 56,-38.5 0,-38.5"/>
<text text-anchor="middle" x="28" y="-45.5" font-family="Helvetica,sans-Serif" font-size="10.00">Callable</text>
</a>
</g>
</g>
<!-- Node1 -->
<g id="node2" class="node">
<title>Node1</title>
<g id="a_node2"><a xlink:href="structFuncCall.html" target="_top" xlink:title="Ein Call der eine Funktion ausführt.">
<polygon fill="none" stroke="black" points="94,-57.5 94,-76.5 152,-76.5 152,-57.5 94,-57.5"/>
<text text-anchor="middle" x="123" y="-64.5" font-family="Helvetica,sans-Serif" font-size="10.00">FuncCall</text>
</a>
</g>
</g>
<!-- Node0&#45;&gt;Node1 -->
<g id="edge1" class="edge">
<title>Node0&#45;&gt;Node1</title>
<path fill="none" stroke="midnightblue" d="M66.43,-55.65C75.58,-57.52 85.2,-59.48 93.83,-61.24"/>
<polygon fill="midnightblue" stroke="midnightblue" points="66.9,-52.17 56.4,-53.6 65.5,-59.03 66.9,-52.17"/>
</g>
<!-- Node2 -->
<g id="node3" class="node">
<title>Node2</title>
<g id="a_node3"><a xlink:href="structLcdString.html" target="_top" xlink:title="Ein String der auf dem AnimatableLcd angezeigt werden kann.">
<polygon fill="none" stroke="black" points="92,-19.5 92,-38.5 154,-38.5 154,-19.5 92,-19.5"/>
<text text-anchor="middle" x="123" y="-26.5" font-family="Helvetica,sans-Serif" font-size="10.00">LcdString</text>
</a>
</g>
</g>
<!-- Node0&#45;&gt;Node2 -->
<g id="edge2" class="edge">
<title>Node0&#45;&gt;Node2</title>
<path fill="none" stroke="midnightblue" d="M66.43,-40.35C74.89,-38.63 83.76,-36.81 91.87,-35.16"/>
<polygon fill="midnightblue" stroke="midnightblue" points="65.5,-36.97 56.4,-42.4 66.9,-43.83 65.5,-36.97"/>
</g>
<!-- Node3 -->
<g id="node4" class="node">
<title>Node3</title>
<g id="a_node4"><a xlink:href="classAnimString.html" target="_top" xlink:title="Die Klasse für animierbare LcdStrings.">
<polygon fill="none" stroke="black" points="190,-19.5 190,-38.5 261,-38.5 261,-19.5 190,-19.5"/>
<text text-anchor="middle" x="225.5" y="-26.5" font-family="Helvetica,sans-Serif" font-size="10.00">AnimString</text>
</a>
</g>
</g>
<!-- Node2&#45;&gt;Node3 -->
<g id="edge3" class="edge">
<title>Node2&#45;&gt;Node3</title>
<path fill="none" stroke="midnightblue" d="M164.21,-29C172.68,-29 181.54,-29 189.78,-29"/>
<polygon fill="midnightblue" stroke="midnightblue" points="164.15,-25.5 154.15,-29 164.15,-32.5 164.15,-25.5"/>
</g>
<!-- Node4 -->
<g id="node5" class="node">
<title>Node4</title>
<g id="a_node5"><a xlink:href="classLcdDotAnim.html" target="_top" xlink:title="Die Klasse der Lcd Punktanimationen.">
<polygon fill="none" stroke="black" points="307.5,-38.5 307.5,-57.5 383.5,-57.5 383.5,-38.5 307.5,-38.5"/>
<text text-anchor="middle" x="345.5" y="-45.5" font-family="Helvetica,sans-Serif" font-size="10.00">LcdDotAnim</text>
</a>
</g>
</g>
<!-- Node3&#45;&gt;Node4 -->
<g id="edge4" class="edge">
<title>Node3&#45;&gt;Node4</title>
<path fill="none" stroke="midnightblue" d="M271.37,-36.22C283.16,-38.12 295.75,-40.15 307.1,-41.98"/>
<polygon fill="midnightblue" stroke="midnightblue" points="271.69,-32.73 261.27,-34.6 270.58,-39.64 271.69,-32.73"/>
</g>
<!-- Node5 -->
<g id="node6" class="node">
<title>Node5</title>
<g id="a_node6"><a xlink:href="classLcdLoadingAnim.html" target="_top" xlink:title="Die Klasse der Lcd Ladeanimationen.">
<polygon fill="none" stroke="black" points="297,-0.5 297,-19.5 394,-19.5 394,-0.5 297,-0.5"/>
<text text-anchor="middle" x="345.5" y="-7.5" font-family="Helvetica,sans-Serif" font-size="10.00">LcdLoadingAnim</text>
</a>
</g>
</g>
<!-- Node3&#45;&gt;Node5 -->
<g id="edge5" class="edge">
<title>Node3&#45;&gt;Node5</title>
<path fill="none" stroke="midnightblue" d="M271.24,-21.8C279.61,-20.45 288.4,-19.03 296.87,-17.67"/>
<polygon fill="midnightblue" stroke="midnightblue" points="270.58,-18.36 261.27,-23.4 271.69,-25.27 270.58,-18.36"/>
</g>
</g>
</svg>
