<?xml version="1.0" encoding="UTF-8" standalone="no"?>
<!DOCTYPE svg PUBLIC "-//W3C//DTD SVG 1.1//EN"
 "http://www.w3.org/Graphics/SVG/1.1/DTD/svg11.dtd">
<!-- Generated by graphviz version 2.43.0 (0)
 -->
<!-- Title: setup Pages: 1 -->
<svg width="514pt" height="180pt"
 viewBox="0.00 0.00 514.00 180.00" xmlns="http://www.w3.org/2000/svg" xmlns:xlink="http://www.w3.org/1999/xlink">
<g id="graph0" class="graph" transform="scale(1 1) rotate(0) translate(4 176)">
<title>setup</title>
<!-- Node1 -->
<g id="node1" class="node">
<title>Node1</title>
<g id="a_node1"><a xlink:title="Wird am Anfang des Programms aufgerufen.">
<polygon fill="#bfbfbf" stroke="black" points="0,-95.5 0,-114.5 44,-114.5 44,-95.5 0,-95.5"/>
<text text-anchor="middle" x="22" y="-102.5" font-family="Helvetica,sans-Serif" font-size="10.00">setup</text>
</a>
</g>
</g>
<!-- Node2 -->
<g id="node2" class="node">
<title>Node2</title>
<g id="a_node2"><a xlink:href="classAnimatableLcd.html#a0f93bbf8c49a76e17272721e67a24b38" target="_top" xlink:title="Überschreibt die normale lcd init function.">
<polygon fill="none" stroke="black" points="95.5,-152.5 95.5,-171.5 206.5,-171.5 206.5,-152.5 95.5,-152.5"/>
<text text-anchor="middle" x="151" y="-159.5" font-family="Helvetica,sans-Serif" font-size="10.00">AnimatableLcd::init</text>
</a>
</g>
</g>
<!-- Node1&#45;&gt;Node2 -->
<g id="edge1" class="edge">
<title>Node1&#45;&gt;Node2</title>
<path fill="none" stroke="midnightblue" d="M37.58,-114.5C48.85,-121.58 65.02,-131.17 80,-138 88.94,-142.07 98.78,-145.85 108.19,-149.15"/>
<polygon fill="midnightblue" stroke="midnightblue" points="107.19,-152.51 117.78,-152.41 109.44,-145.88 107.19,-152.51"/>
</g>
<!-- Node3 -->
<g id="node3" class="node">
<title>Node3</title>
<g id="a_node3"><a xlink:href="classCallHandler.html#afc5654ccaa266f3a81f8230afdb1c2a0" target="_top" xlink:title="Setzt die neuen Calls, die ausgeführt werden sollen.">
<polygon fill="none" stroke="black" points="265.5,-114.5 265.5,-133.5 384.5,-133.5 384.5,-114.5 265.5,-114.5"/>
<text text-anchor="middle" x="325" y="-121.5" font-family="Helvetica,sans-Serif" font-size="10.00">CallHandler::setCalls</text>
</a>
</g>
</g>
<!-- Node1&#45;&gt;Node3 -->
<g id="edge2" class="edge">
<title>Node1&#45;&gt;Node3</title>
<path fill="none" stroke="midnightblue" d="M44.17,-106.34C87.31,-109.06 187.1,-115.36 255.08,-119.65"/>
<polygon fill="midnightblue" stroke="midnightblue" points="255.08,-123.16 265.28,-120.29 255.52,-116.17 255.08,-123.16"/>
</g>
<!-- Node5 -->
<g id="node5" class="node">
<title>Node5</title>
<g id="a_node5"><a xlink:href="sketch_8ino.html#abbbe19f80bf8227bbfbb68d98a1937cc" target="_top" xlink:title="wird ausgeführt wenn der Stop&#45;Knopf gedrückt wird">
<polygon fill="none" stroke="black" points="98.5,-76.5 98.5,-95.5 203.5,-95.5 203.5,-76.5 98.5,-76.5"/>
<text text-anchor="middle" x="151" y="-83.5" font-family="Helvetica,sans-Serif" font-size="10.00">stopButtonClicked</text>
</a>
</g>
</g>
<!-- Node1&#45;&gt;Node5 -->
<g id="edge4" class="edge">
<title>Node1&#45;&gt;Node5</title>
<path fill="none" stroke="midnightblue" d="M44.26,-101.82C56.36,-100.01 72.22,-97.64 87.95,-95.28"/>
<polygon fill="midnightblue" stroke="midnightblue" points="88.87,-98.69 98.24,-93.74 87.83,-91.76 88.87,-98.69"/>
</g>
<!-- Node9 -->
<g id="node9" class="node">
<title>Node9</title>
<g id="a_node9"><a xlink:href="classCustomServo.html#a95761db4177f965e756bdf725cb10ada" target="_top" xlink:title="Steuert den Servo direkt an, enspricht dem normalen Servo::write">
<polygon fill="none" stroke="black" points="80,-38.5 80,-57.5 222,-57.5 222,-38.5 80,-38.5"/>
<text text-anchor="middle" x="151" y="-45.5" font-family="Helvetica,sans-Serif" font-size="10.00">CustomServo::writeDirect</text>
</a>
</g>
</g>
<!-- Node1&#45;&gt;Node9 -->
<g id="edge9" class="edge">
<title>Node1&#45;&gt;Node9</title>
<path fill="none" stroke="midnightblue" d="M34.99,-95.32C46.09,-86.79 63.33,-74.58 80,-67 85.29,-64.6 90.94,-62.44 96.66,-60.53"/>
<polygon fill="midnightblue" stroke="midnightblue" points="97.79,-63.84 106.29,-57.52 95.7,-57.16 97.79,-63.84"/>
</g>
<!-- Node4 -->
<g id="node4" class="node">
<title>Node4</title>
<g id="a_node4"><a xlink:href="structCallable.html#a0e146c329fbdf8720a9541f60fe910e9" target="_top" xlink:title="Wird ausgeführt wenn der Call an der Reihe ist.">
<polygon fill="none" stroke="black" points="428,-114.5 428,-133.5 506,-133.5 506,-114.5 428,-114.5"/>
<text text-anchor="middle" x="467" y="-121.5" font-family="Helvetica,sans-Serif" font-size="10.00">Callable::run</text>
</a>
</g>
</g>
<!-- Node3&#45;&gt;Node4 -->
<g id="edge3" class="edge">
<title>Node3&#45;&gt;Node4</title>
<path fill="none" stroke="midnightblue" d="M384.56,-124C395.46,-124 406.75,-124 417.31,-124"/>
<polygon fill="midnightblue" stroke="midnightblue" points="417.6,-127.5 427.6,-124 417.6,-120.5 417.6,-127.5"/>
</g>
<!-- Node5&#45;&gt;Node3 -->
<g id="edge6" class="edge">
<title>Node5&#45;&gt;Node3</title>
<path fill="none" stroke="midnightblue" d="M195.4,-95.59C218.41,-100.67 246.85,-106.96 271.13,-112.32"/>
<polygon fill="midnightblue" stroke="midnightblue" points="270.39,-115.74 280.91,-114.48 271.9,-108.91 270.39,-115.74"/>
</g>
<!-- Node6 -->
<g id="node6" class="node">
<title>Node6</title>
<g id="a_node6"><a xlink:href="classCallHandler.html#a49ab239f771b84300df21bd426788c3e" target="_top" xlink:title="setzt den Speicherplatz der von den Calls besetzt wurde mithilfe von delete frei">
<polygon fill="none" stroke="black" points="258,-76.5 258,-95.5 392,-95.5 392,-76.5 258,-76.5"/>
<text text-anchor="middle" x="325" y="-83.5" font-family="Helvetica,sans-Serif" font-size="10.00">CallHandler::deleteCalls</text>
</a>
</g>
</g>
<!-- Node5&#45;&gt;Node6 -->
<g id="edge5" class="edge">
<title>Node5&#45;&gt;Node6</title>
<path fill="none" stroke="midnightblue" d="M203.61,-86C217.43,-86 232.68,-86 247.55,-86"/>
<polygon fill="midnightblue" stroke="midnightblue" points="247.75,-89.5 257.75,-86 247.75,-82.5 247.75,-89.5"/>
</g>
<!-- Node7 -->
<g id="node7" class="node">
<title>Node7</title>
<g id="a_node7"><a xlink:href="sketch_8ino.html#a902e3350d6dfe8c210f24b31c7b284d8" target="_top" xlink:title="Setzt die Farbe der RGB&#45;Led.">
<polygon fill="none" stroke="black" points="288,-38.5 288,-57.5 362,-57.5 362,-38.5 288,-38.5"/>
<text text-anchor="middle" x="325" y="-45.5" font-family="Helvetica,sans-Serif" font-size="10.00">setLedColor</text>
</a>
</g>
</g>
<!-- Node5&#45;&gt;Node7 -->
<g id="edge7" class="edge">
<title>Node5&#45;&gt;Node7</title>
<path fill="none" stroke="midnightblue" d="M195.4,-76.41C220.62,-70.84 252.37,-63.83 278.01,-58.16"/>
<polygon fill="midnightblue" stroke="midnightblue" points="278.86,-61.56 287.87,-55.98 277.35,-54.72 278.86,-61.56"/>
</g>
<!-- Node8 -->
<g id="node8" class="node">
<title>Node8</title>
<g id="a_node8"><a xlink:href="classCustomServo.html#a2504ffc997018dad9f3811b18b16c672" target="_top" xlink:title="Stoppt den Servo.">
<polygon fill="none" stroke="black" points="270.5,-0.5 270.5,-19.5 379.5,-19.5 379.5,-0.5 270.5,-0.5"/>
<text text-anchor="middle" x="325" y="-7.5" font-family="Helvetica,sans-Serif" font-size="10.00">CustomServo::stop</text>
</a>
</g>
</g>
<!-- Node5&#45;&gt;Node8 -->
<g id="edge8" class="edge">
<title>Node5&#45;&gt;Node8</title>
<path fill="none" stroke="midnightblue" d="M200.86,-76.46C208.22,-73.98 215.51,-70.88 222,-67 241.97,-55.06 238.12,-41.09 258,-29 261.55,-26.84 265.36,-24.91 269.29,-23.2"/>
<polygon fill="midnightblue" stroke="midnightblue" points="270.57,-26.46 278.62,-19.58 268.03,-19.94 270.57,-26.46"/>
</g>
</g>
</svg>
