<?xml version="1.0" encoding="UTF-8" standalone="no"?>
<!DOCTYPE svg PUBLIC "-//W3C//DTD SVG 1.1//EN"
 "http://www.w3.org/Graphics/SVG/1.1/DTD/svg11.dtd">
<!-- Generated by graphviz version 2.43.0 (0)
 -->
<!-- Title: stopButtonClicked Pages: 1 -->
<svg width="648pt" height="142pt"
 viewBox="0.00 0.00 648.00 142.00" xmlns="http://www.w3.org/2000/svg" xmlns:xlink="http://www.w3.org/1999/xlink">
<g id="graph0" class="graph" transform="scale(1 1) rotate(0) translate(4 138)">
<title>stopButtonClicked</title>
<!-- Node1 -->
<g id="node1" class="node">
<title>Node1</title>
<g id="a_node1"><a xlink:title="wird ausgeführt wenn der Stop&#45;Knopf gedrückt wird">
<polygon fill="#bfbfbf" stroke="black" points="0,-57.5 0,-76.5 105,-76.5 105,-57.5 0,-57.5"/>
<text text-anchor="middle" x="52.5" y="-64.5" font-family="Helvetica,sans-Serif" font-size="10.00">stopButtonClicked</text>
</a>
</g>
</g>
<!-- Node2 -->
<g id="node2" class="node">
<title>Node2</title>
<g id="a_node2"><a xlink:href="classAnimatableLcd.html#ad5509573d45cc84cda93b125fdca749e" target="_top" xlink:title="gibt den Text &quot;schön&quot; aus, das heißt zentriert und mit automatischen Zeilenumbrüchen">
<polygon fill="none" stroke="black" points="141,-114.5 141,-133.5 288,-133.5 288,-114.5 141,-114.5"/>
<text text-anchor="middle" x="214.5" y="-121.5" font-family="Helvetica,sans-Serif" font-size="10.00">AnimatableLcd::printPretty</text>
</a>
</g>
</g>
<!-- Node1&#45;&gt;Node2 -->
<g id="edge1" class="edge">
<title>Node1&#45;&gt;Node2</title>
<path fill="none" stroke="midnightblue" d="M73.31,-76.64C90.82,-84.92 117.21,-96.77 141,-105 147.93,-107.4 155.33,-109.66 162.65,-111.73"/>
<polygon fill="midnightblue" stroke="midnightblue" points="161.96,-115.17 172.53,-114.43 163.8,-108.42 161.96,-115.17"/>
</g>
<!-- Node5 -->
<g id="node5" class="node">
<title>Node5</title>
<g id="a_node5"><a xlink:href="sketch_8ino.html#a902e3350d6dfe8c210f24b31c7b284d8" target="_top" xlink:title="Setzt die Farbe der RGB&#45;Led.">
<polygon fill="none" stroke="black" points="177.5,-76.5 177.5,-95.5 251.5,-95.5 251.5,-76.5 177.5,-76.5"/>
<text text-anchor="middle" x="214.5" y="-83.5" font-family="Helvetica,sans-Serif" font-size="10.00">setLedColor</text>
</a>
</g>
</g>
<!-- Node1&#45;&gt;Node5 -->
<g id="edge4" class="edge">
<title>Node1&#45;&gt;Node5</title>
<path fill="none" stroke="midnightblue" d="M105.01,-73.12C124.98,-75.49 147.69,-78.19 167.15,-80.5"/>
<polygon fill="midnightblue" stroke="midnightblue" points="166.95,-84 177.29,-81.7 167.77,-77.05 166.95,-84"/>
</g>
<!-- Node6 -->
<g id="node6" class="node">
<title>Node6</title>
<g id="a_node6"><a xlink:href="classCustomServo.html#ad0f2d2d481d21c4d97f333efa744e0e8" target="_top" xlink:title="Lässt den Servo weiterlaufen.">
<polygon fill="none" stroke="black" points="159.5,-38.5 159.5,-57.5 269.5,-57.5 269.5,-38.5 159.5,-38.5"/>
<text text-anchor="middle" x="214.5" y="-45.5" font-family="Helvetica,sans-Serif" font-size="10.00">CustomServo::start</text>
</a>
</g>
</g>
<!-- Node1&#45;&gt;Node6 -->
<g id="edge5" class="edge">
<title>Node1&#45;&gt;Node6</title>
<path fill="none" stroke="midnightblue" d="M105.01,-60.88C119.11,-59.21 134.57,-57.37 149.29,-55.63"/>
<polygon fill="midnightblue" stroke="midnightblue" points="149.82,-59.09 159.33,-54.43 148.99,-52.14 149.82,-59.09"/>
</g>
<!-- Node7 -->
<g id="node7" class="node">
<title>Node7</title>
<g id="a_node7"><a xlink:href="classCustomServo.html#a2504ffc997018dad9f3811b18b16c672" target="_top" xlink:title="Stoppt den Servo.">
<polygon fill="none" stroke="black" points="160,-0.5 160,-19.5 269,-19.5 269,-0.5 160,-0.5"/>
<text text-anchor="middle" x="214.5" y="-7.5" font-family="Helvetica,sans-Serif" font-size="10.00">CustomServo::stop</text>
</a>
</g>
</g>
<!-- Node1&#45;&gt;Node7 -->
<g id="edge6" class="edge">
<title>Node1&#45;&gt;Node7</title>
<path fill="none" stroke="midnightblue" d="M73.31,-57.36C90.82,-49.08 117.21,-37.23 141,-29 147.93,-26.6 155.33,-24.34 162.65,-22.27"/>
<polygon fill="midnightblue" stroke="midnightblue" points="163.8,-25.58 172.53,-19.57 161.96,-18.83 163.8,-25.58"/>
</g>
<!-- Node3 -->
<g id="node3" class="node">
<title>Node3</title>
<g id="a_node3"><a xlink:href="classAnimatableLcd.html#aaff767fb418dbc3e902dd4a1be3207a8" target="_top" xlink:title="Gibt einen String zentriert auf dem Lcd&#45;Display aus.">
<polygon fill="none" stroke="black" points="324,-114.5 324,-133.5 486,-133.5 486,-114.5 324,-114.5"/>
<text text-anchor="middle" x="405" y="-121.5" font-family="Helvetica,sans-Serif" font-size="10.00">AnimatableLcd::printCentered</text>
</a>
</g>
</g>
<!-- Node2&#45;&gt;Node3 -->
<g id="edge2" class="edge">
<title>Node2&#45;&gt;Node3</title>
<path fill="none" stroke="midnightblue" d="M288.11,-124C296.53,-124 305.2,-124 313.82,-124"/>
<polygon fill="midnightblue" stroke="midnightblue" points="313.9,-127.5 323.9,-124 313.9,-120.5 313.9,-127.5"/>
</g>
<!-- Node4 -->
<g id="node4" class="node">
<title>Node4</title>
<g id="a_node4"><a xlink:href="classAnimatableLcd.html#ae9f318e41e16a8527eaeffa9500831ca" target="_top" xlink:title="Eigene Lcd&#45;print funktion, die die Möglichkeit bietet eigene Characters in den Text einzufügen.">
<polygon fill="none" stroke="black" points="522,-114.5 522,-133.5 640,-133.5 640,-114.5 522,-114.5"/>
<text text-anchor="middle" x="581" y="-121.5" font-family="Helvetica,sans-Serif" font-size="10.00">AnimatableLcd::print</text>
</a>
</g>
</g>
<!-- Node3&#45;&gt;Node4 -->
<g id="edge3" class="edge">
<title>Node3&#45;&gt;Node4</title>
<path fill="none" stroke="midnightblue" d="M486.12,-124C494.68,-124 503.33,-124 511.74,-124"/>
<polygon fill="midnightblue" stroke="midnightblue" points="511.85,-127.5 521.85,-124 511.85,-120.5 511.85,-127.5"/>
</g>
</g>
</svg>
