<?xml version="1.0" encoding="UTF-8" standalone="no"?>
<!DOCTYPE svg PUBLIC "-//W3C//DTD SVG 1.1//EN"
 "http://www.w3.org/Graphics/SVG/1.1/DTD/svg11.dtd">
<!-- Generated by graphviz version 2.43.0 (0)
 -->
<!-- Title: loop Pages: 1 -->
<svg width="394pt" height="408pt"
 viewBox="0.00 0.00 394.00 408.00" xmlns="http://www.w3.org/2000/svg" xmlns:xlink="http://www.w3.org/1999/xlink">
<g id="graph0" class="graph" transform="scale(1 1) rotate(0) translate(4 404)">
<title>loop</title>
<!-- Node1 -->
<g id="node1" class="node">
<title>Node1</title>
<g id="a_node1"><a xlink:title="Wird immer wieder ausgeführt.">
<polygon fill="#bfbfbf" stroke="black" points="0,-190.5 0,-209.5 38,-209.5 38,-190.5 0,-190.5"/>
<text text-anchor="middle" x="19" y="-197.5" font-family="Helvetica,sans-Serif" font-size="10.00">loop</text>
</a>
</g>
</g>
<!-- Node2 -->
<g id="node2" class="node">
<title>Node2</title>
<g id="a_node2"><a xlink:href="classCallHandler.html#a49ab239f771b84300df21bd426788c3e" target="_top" xlink:title="setzt den Speicherplatz der von den Calls besetzt wurde mithilfe von delete frei">
<polygon fill="none" stroke="black" points="76.5,-380.5 76.5,-399.5 210.5,-399.5 210.5,-380.5 76.5,-380.5"/>
<text text-anchor="middle" x="143.5" y="-387.5" font-family="Helvetica,sans-Serif" font-size="10.00">CallHandler::deleteCalls</text>
</a>
</g>
</g>
<!-- Node1&#45;&gt;Node2 -->
<g id="edge1" class="edge">
<title>Node1&#45;&gt;Node2</title>
<path fill="none" stroke="midnightblue" d="M20.04,-209.76C20.7,-238.79 26.74,-325.38 74,-371 75.5,-372.45 77.1,-373.78 78.78,-375.02"/>
<polygon fill="midnightblue" stroke="midnightblue" points="77.37,-378.26 87.75,-380.42 80.98,-372.26 77.37,-378.26"/>
</g>
<!-- Node3 -->
<g id="node3" class="node">
<title>Node3</title>
<g id="a_node3"><a xlink:href="sketch_8ino.html#ac80eb6baeaace0198948fd8ff196e4fd" target="_top" xlink:title="Misst mithilfe des Reflexoptokopplers die Farbe des Balls.">
<polygon fill="none" stroke="black" points="104,-342.5 104,-361.5 183,-361.5 183,-342.5 104,-342.5"/>
<text text-anchor="middle" x="143.5" y="-349.5" font-family="Helvetica,sans-Serif" font-size="10.00">mesureColor</text>
</a>
</g>
</g>
<!-- Node1&#45;&gt;Node3 -->
<g id="edge2" class="edge">
<title>Node1&#45;&gt;Node3</title>
<path fill="none" stroke="midnightblue" d="M21.03,-209.69C24.17,-234.17 35.86,-299.01 74,-333 79.7,-338.08 86.65,-341.81 93.91,-344.56"/>
<polygon fill="midnightblue" stroke="midnightblue" points="93.32,-348.04 103.91,-347.71 95.42,-341.37 93.32,-348.04"/>
</g>
<!-- Node4 -->
<g id="node4" class="node">
<title>Node4</title>
<g id="a_node4"><a xlink:href="sketch_8ino.html#a39ddda5c3402f1f7b2c9ccad07e18791" target="_top" xlink:title="Hilfs Funktion, Methoden können nicht als Funktionsparameter benutzt werden.">
<polygon fill="none" stroke="black" points="105,-304.5 105,-323.5 182,-323.5 182,-304.5 105,-304.5"/>
<text text-anchor="middle" x="143.5" y="-311.5" font-family="Helvetica,sans-Serif" font-size="10.00">servoIsDone</text>
</a>
</g>
</g>
<!-- Node1&#45;&gt;Node4 -->
<g id="edge3" class="edge">
<title>Node1&#45;&gt;Node4</title>
<path fill="none" stroke="midnightblue" d="M22.77,-209.74C28.77,-229.04 44.83,-272.25 74,-295 80.23,-299.86 87.62,-303.47 95.21,-306.16"/>
<polygon fill="midnightblue" stroke="midnightblue" points="94.26,-309.53 104.85,-309.1 96.31,-302.84 94.26,-309.53"/>
</g>
<!-- Node6 -->
<g id="node6" class="node">
<title>Node6</title>
<g id="a_node6"><a xlink:href="classCallHandler.html#afc5654ccaa266f3a81f8230afdb1c2a0" target="_top" xlink:title="Setzt die neuen Calls, die ausgeführt werden sollen.">
<polygon fill="none" stroke="black" points="84,-266.5 84,-285.5 203,-285.5 203,-266.5 84,-266.5"/>
<text text-anchor="middle" x="143.5" y="-273.5" font-family="Helvetica,sans-Serif" font-size="10.00">CallHandler::setCalls</text>
</a>
</g>
</g>
<!-- Node1&#45;&gt;Node6 -->
<g id="edge5" class="edge">
<title>Node1&#45;&gt;Node6</title>
<path fill="none" stroke="midnightblue" d="M26.5,-209.6C35.63,-222.33 53.44,-244.63 74,-257 77.63,-259.18 81.52,-261.12 85.53,-262.84"/>
<polygon fill="midnightblue" stroke="midnightblue" points="84.45,-266.18 95.04,-266.48 86.95,-259.64 84.45,-266.18"/>
</g>
<!-- Node8 -->
<g id="node8" class="node">
<title>Node8</title>
<g id="a_node8"><a xlink:href="sketch_8ino.html#a902e3350d6dfe8c210f24b31c7b284d8" target="_top" xlink:title="Setzt die Farbe der RGB&#45;Led.">
<polygon fill="none" stroke="black" points="106.5,-228.5 106.5,-247.5 180.5,-247.5 180.5,-228.5 106.5,-228.5"/>
<text text-anchor="middle" x="143.5" y="-235.5" font-family="Helvetica,sans-Serif" font-size="10.00">setLedColor</text>
</a>
</g>
</g>
<!-- Node1&#45;&gt;Node8 -->
<g id="edge7" class="edge">
<title>Node1&#45;&gt;Node8</title>
<path fill="none" stroke="midnightblue" d="M38.39,-206.82C48.79,-210.58 62.05,-215.25 74,-219 81.29,-221.29 89.05,-223.58 96.64,-225.74"/>
<polygon fill="midnightblue" stroke="midnightblue" points="95.89,-229.17 106.46,-228.5 97.78,-222.43 95.89,-229.17"/>
</g>
<!-- Node9 -->
<g id="node9" class="node">
<title>Node9</title>
<g id="a_node9"><a xlink:href="classCustomServo.html#a0750f5868c694b9f46638038b8536e0a" target="_top" xlink:title="Setzt eine neue Geschwindigkeit des Servos.">
<polygon fill="none" stroke="black" points="77,-114.5 77,-133.5 210,-133.5 210,-114.5 77,-114.5"/>
<text text-anchor="middle" x="143.5" y="-121.5" font-family="Helvetica,sans-Serif" font-size="10.00">CustomServo::setSpeed</text>
</a>
</g>
</g>
<!-- Node1&#45;&gt;Node9 -->
<g id="edge8" class="edge">
<title>Node1&#45;&gt;Node9</title>
<path fill="none" stroke="midnightblue" d="M26.5,-190.4C35.63,-177.67 53.44,-155.37 74,-143 77.63,-140.82 81.52,-138.88 85.53,-137.16"/>
<polygon fill="midnightblue" stroke="midnightblue" points="86.95,-140.36 95.04,-133.52 84.45,-133.82 86.95,-140.36"/>
</g>
<!-- Node11 -->
<g id="node11" class="node">
<title>Node11</title>
<g id="a_node11"><a xlink:href="classAnimatableLcd.html#a85725484bae8d5c0b1190366b3121f99" target="_top" xlink:title="wird immer wieder von loop() aufgerufen um die Animationen zu updaten">
<polygon fill="none" stroke="black" points="79,-152.5 79,-171.5 208,-171.5 208,-152.5 79,-152.5"/>
<text text-anchor="middle" x="143.5" y="-159.5" font-family="Helvetica,sans-Serif" font-size="10.00">AnimatableLcd::update</text>
</a>
</g>
</g>
<!-- Node1&#45;&gt;Node11 -->
<g id="edge10" class="edge">
<title>Node1&#45;&gt;Node11</title>
<path fill="none" stroke="midnightblue" d="M38.39,-193.18C48.79,-189.42 62.05,-184.75 74,-181 81.29,-178.71 89.05,-176.42 96.64,-174.26"/>
<polygon fill="midnightblue" stroke="midnightblue" points="97.78,-177.57 106.46,-171.5 95.89,-170.83 97.78,-177.57"/>
</g>
<!-- Node13 -->
<g id="node13" class="node">
<title>Node13</title>
<g id="a_node13"><a xlink:href="classCallHandler.html#a57ff2e7ae3955d5ed4806dcc6469dcf7" target="_top" xlink:title="Wechselt zum nächsten Call, wenn der Aktuelle vorbei ist und aktualisiert den jetzigen (z....">
<polygon fill="none" stroke="black" points="87,-190.5 87,-209.5 200,-209.5 200,-190.5 87,-190.5"/>
<text text-anchor="middle" x="143.5" y="-197.5" font-family="Helvetica,sans-Serif" font-size="10.00">CallHandler::update</text>
</a>
</g>
</g>
<!-- Node1&#45;&gt;Node13 -->
<g id="edge12" class="edge">
<title>Node1&#45;&gt;Node13</title>
<path fill="none" stroke="midnightblue" d="M38.08,-200C48.52,-200 62.37,-200 76.56,-200"/>
<polygon fill="midnightblue" stroke="midnightblue" points="76.9,-203.5 86.9,-200 76.9,-196.5 76.9,-203.5"/>
</g>
<!-- Node14 -->
<g id="node14" class="node">
<title>Node14</title>
<g id="a_node14"><a xlink:href="classButtonHandler.html#aaed9117143aa1674a71aa012e558d4e8" target="_top" xlink:title="Prüft, ob der Knopf gedrückt/losgelassen wurde.">
<polygon fill="none" stroke="black" points="80,-76.5 80,-95.5 207,-95.5 207,-76.5 80,-76.5"/>
<text text-anchor="middle" x="143.5" y="-83.5" font-family="Helvetica,sans-Serif" font-size="10.00">ButtonHandler::update</text>
</a>
</g>
</g>
<!-- Node1&#45;&gt;Node14 -->
<g id="edge14" class="edge">
<title>Node1&#45;&gt;Node14</title>
<path fill="none" stroke="midnightblue" d="M22.77,-190.26C28.77,-170.96 44.83,-127.75 74,-105 76.33,-103.19 78.82,-101.54 81.42,-100.06"/>
<polygon fill="midnightblue" stroke="midnightblue" points="83.15,-103.11 90.62,-95.59 80.1,-96.81 83.15,-103.11"/>
</g>
<!-- Node15 -->
<g id="node15" class="node">
<title>Node15</title>
<g id="a_node15"><a xlink:href="classCustomServo.html#a91245621ca3e5340361f061d65025635" target="_top" xlink:title="Aktualisiert die Position des Servomotors.">
<polygon fill="none" stroke="black" points="74,-38.5 74,-57.5 213,-57.5 213,-38.5 74,-38.5"/>
<text text-anchor="middle" x="143.5" y="-45.5" font-family="Helvetica,sans-Serif" font-size="10.00">CustomServo::updatePos</text>
</a>
</g>
</g>
<!-- Node1&#45;&gt;Node15 -->
<g id="edge15" class="edge">
<title>Node1&#45;&gt;Node15</title>
<path fill="none" stroke="midnightblue" d="M21.03,-190.31C24.17,-165.83 35.86,-100.99 74,-67 75.76,-65.43 77.64,-63.99 79.61,-62.67"/>
<polygon fill="midnightblue" stroke="midnightblue" points="81.7,-65.51 88.74,-57.6 78.3,-59.39 81.7,-65.51"/>
</g>
<!-- Node16 -->
<g id="node16" class="node">
<title>Node16</title>
<g id="a_node16"><a xlink:href="classCustomServo.html#a9d67b7154c659f1bf60a8464115c1e94" target="_top" xlink:title="Bewegt den Servo mit einer vorher spezifizierten Geschwindigkeit.">
<polygon fill="none" stroke="black" points="87,-0.5 87,-19.5 200,-19.5 200,-0.5 87,-0.5"/>
<text text-anchor="middle" x="143.5" y="-7.5" font-family="Helvetica,sans-Serif" font-size="10.00">CustomServo::write</text>
</a>
</g>
</g>
<!-- Node1&#45;&gt;Node16 -->
<g id="edge16" class="edge">
<title>Node1&#45;&gt;Node16</title>
<path fill="none" stroke="midnightblue" d="M20.04,-190.24C20.7,-161.21 26.74,-74.62 74,-29 75.5,-27.55 77.1,-26.22 78.78,-24.98"/>
<polygon fill="midnightblue" stroke="midnightblue" points="80.98,-27.74 87.75,-19.58 77.37,-21.74 80.98,-27.74"/>
</g>
<!-- Node5 -->
<g id="node5" class="node">
<title>Node5</title>
<g id="a_node5"><a xlink:href="classCustomServo.html#ac247ddd89cf27db323522746e5afa922" target="_top" xlink:title="Gibt an, ob der Servo angekommen ist.">
<polygon fill="none" stroke="black" points="256.5,-304.5 256.5,-323.5 378.5,-323.5 378.5,-304.5 256.5,-304.5"/>
<text text-anchor="middle" x="317.5" y="-311.5" font-family="Helvetica,sans-Serif" font-size="10.00">CustomServo::isDone</text>
</a>
</g>
</g>
<!-- Node4&#45;&gt;Node5 -->
<g id="edge4" class="edge">
<title>Node4&#45;&gt;Node5</title>
<path fill="none" stroke="midnightblue" d="M182.25,-314C200.94,-314 224.14,-314 245.96,-314"/>
<polygon fill="midnightblue" stroke="midnightblue" points="246.2,-317.5 256.2,-314 246.2,-310.5 246.2,-317.5"/>
</g>
<!-- Node7 -->
<g id="node7" class="node">
<title>Node7</title>
<g id="a_node7"><a xlink:href="structCallable.html#a0e146c329fbdf8720a9541f60fe910e9" target="_top" xlink:title="Wird ausgeführt wenn der Call an der Reihe ist.">
<polygon fill="none" stroke="black" points="278.5,-228.5 278.5,-247.5 356.5,-247.5 356.5,-228.5 278.5,-228.5"/>
<text text-anchor="middle" x="317.5" y="-235.5" font-family="Helvetica,sans-Serif" font-size="10.00">Callable::run</text>
</a>
</g>
</g>
<!-- Node6&#45;&gt;Node7 -->
<g id="edge6" class="edge">
<title>Node6&#45;&gt;Node7</title>
<path fill="none" stroke="midnightblue" d="M187.9,-266.41C212.39,-261 243.05,-254.23 268.29,-248.65"/>
<polygon fill="midnightblue" stroke="midnightblue" points="269.37,-252 278.38,-246.42 267.86,-245.16 269.37,-252"/>
</g>
<!-- Node10 -->
<g id="node10" class="node">
<title>Node10</title>
<g id="a_node10"><a xlink:href="classCustomServo.html#a9ddb7875f2c036d6c4a06c4416e68fb2" target="_top" xlink:title="Setzt Variablen, die benötigt werden um den Servo zu bewegen.">
<polygon fill="none" stroke="black" points="249,-57.5 249,-76.5 386,-76.5 386,-57.5 249,-57.5"/>
<text text-anchor="middle" x="317.5" y="-64.5" font-family="Helvetica,sans-Serif" font-size="10.00">CustomServo::startMove</text>
</a>
</g>
</g>
<!-- Node9&#45;&gt;Node10 -->
<g id="edge9" class="edge">
<title>Node9&#45;&gt;Node10</title>
<path fill="none" stroke="midnightblue" d="M180.92,-114.49C191.34,-111.61 202.66,-108.33 213,-105 236.49,-97.44 262.57,-87.86 282.67,-80.21"/>
<polygon fill="midnightblue" stroke="midnightblue" points="283.93,-83.47 292.02,-76.63 281.43,-76.94 283.93,-83.47"/>
</g>
<!-- Node12 -->
<g id="node12" class="node">
<title>Node12</title>
<g id="a_node12"><a xlink:href="structLcdString.html#a1f014299eeb7654a391f1fbfc898719b" target="_top" xlink:title=" ">
<polygon fill="none" stroke="black" points="267,-152.5 267,-171.5 368,-171.5 368,-152.5 267,-152.5"/>
<text text-anchor="middle" x="317.5" y="-159.5" font-family="Helvetica,sans-Serif" font-size="10.00">LcdString::update</text>
</a>
</g>
</g>
<!-- Node11&#45;&gt;Node12 -->
<g id="edge11" class="edge">
<title>Node11&#45;&gt;Node12</title>
<path fill="none" stroke="midnightblue" d="M208.06,-162C223.99,-162 241.03,-162 256.78,-162"/>
<polygon fill="midnightblue" stroke="midnightblue" points="256.91,-165.5 266.91,-162 256.91,-158.5 256.91,-165.5"/>
</g>
<!-- Node13&#45;&gt;Node7 -->
<g id="edge13" class="edge">
<title>Node13&#45;&gt;Node7</title>
<path fill="none" stroke="midnightblue" d="M187.9,-209.59C212.39,-215 243.05,-221.77 268.29,-227.35"/>
<polygon fill="midnightblue" stroke="midnightblue" points="267.86,-230.84 278.38,-229.58 269.37,-224 267.86,-230.84"/>
</g>
<!-- Node16&#45;&gt;Node10 -->
<g id="edge17" class="edge">
<title>Node16&#45;&gt;Node10</title>
<path fill="none" stroke="midnightblue" d="M180.92,-19.51C191.34,-22.39 202.66,-25.67 213,-29 236.49,-36.56 262.57,-46.14 282.67,-53.79"/>
<polygon fill="midnightblue" stroke="midnightblue" points="281.43,-57.06 292.02,-57.37 283.93,-50.53 281.43,-57.06"/>
</g>
</g>
</svg>
