<?xml version="1.0" encoding="UTF-8" standalone="no"?>
<!DOCTYPE svg PUBLIC "-//W3C//DTD SVG 1.1//EN"
 "http://www.w3.org/Graphics/SVG/1.1/DTD/svg11.dtd">
<!-- Generated by graphviz version 2.43.0 (0)
 -->
<!-- Title: setup Pages: 1 -->
<svg width="611pt" height="180pt"
 viewBox="0.00 0.00 611.00 180.00" xmlns="http://www.w3.org/2000/svg" xmlns:xlink="http://www.w3.org/1999/xlink">
<g id="graph0" class="graph" transform="scale(1 1) rotate(0) translate(4 176)">
<title>setup</title>
<!-- Node1 -->
<g id="node1" class="node">
<title>Node1</title>
<g id="a_node1"><a xlink:title="Wird am Anfang des Programms aufgerufen.">
<polygon fill="#bfbfbf" stroke="black" points="0,-95.5 0,-114.5 44,-114.5 44,-95.5 0,-95.5"/>
<text text-anchor="middle" x="22" y="-102.5" font-family="Helvetica,sans-Serif" font-size="10.00">setup</text>
</a>
</g>
</g>
<!-- Node2 -->
<g id="node2" class="node">
<title>Node2</title>
<g id="a_node2"><a xlink:href="classAnimatableLcd.html#a0f93bbf8c49a76e17272721e67a24b38" target="_top" xlink:title="Überschreibt die normale lcd init function.">
<polygon fill="none" stroke="black" points="95.5,-152.5 95.5,-171.5 206.5,-171.5 206.5,-152.5 95.5,-152.5"/>
<text text-anchor="middle" x="151" y="-159.5" font-family="Helvetica,sans-Serif" font-size="10.00">AnimatableLcd::init</text>
</a>
</g>
</g>
<!-- Node1&#45;&gt;Node2 -->
<g id="edge1" class="edge">
<title>Node1&#45;&gt;Node2</title>
<path fill="none" stroke="midnightblue" d="M34.99,-114.68C46.09,-123.21 63.33,-135.42 80,-143 85.29,-145.4 90.94,-147.56 96.66,-149.47"/>
<polygon fill="midnightblue" stroke="midnightblue" points="95.7,-152.84 106.29,-152.48 97.79,-146.16 95.7,-152.84"/>
</g>
<!-- Node3 -->
<g id="node3" class="node">
<title>Node3</title>
<g id="a_node3"><a xlink:href="classCallHandler.html#afc5654ccaa266f3a81f8230afdb1c2a0" target="_top" xlink:title="Setzt die neuen Calls, die ausgeführt werden sollen.">
<polygon fill="none" stroke="black" points="91.5,-114.5 91.5,-133.5 210.5,-133.5 210.5,-114.5 91.5,-114.5"/>
<text text-anchor="middle" x="151" y="-121.5" font-family="Helvetica,sans-Serif" font-size="10.00">CallHandler::setCalls</text>
</a>
</g>
</g>
<!-- Node1&#45;&gt;Node3 -->
<g id="edge2" class="edge">
<title>Node1&#45;&gt;Node3</title>
<path fill="none" stroke="midnightblue" d="M44.26,-108.18C54.61,-109.73 67.71,-111.69 81.12,-113.7"/>
<polygon fill="midnightblue" stroke="midnightblue" points="81,-117.22 91.41,-115.23 82.04,-110.29 81,-117.22"/>
</g>
<!-- Node5 -->
<g id="node5" class="node">
<title>Node5</title>
<g id="a_node5"><a xlink:href="sketch_8ino.html#abbbe19f80bf8227bbfbb68d98a1937cc" target="_top" xlink:title="wird ausgeführt wenn der Stop&#45;Knopf gedrückt wird">
<polygon fill="none" stroke="black" points="98.5,-76.5 98.5,-95.5 203.5,-95.5 203.5,-76.5 98.5,-76.5"/>
<text text-anchor="middle" x="151" y="-83.5" font-family="Helvetica,sans-Serif" font-size="10.00">stopButtonClicked</text>
</a>
</g>
</g>
<!-- Node1&#45;&gt;Node5 -->
<g id="edge4" class="edge">
<title>Node1&#45;&gt;Node5</title>
<path fill="none" stroke="midnightblue" d="M44.26,-101.82C56.36,-100.01 72.22,-97.64 87.95,-95.28"/>
<polygon fill="midnightblue" stroke="midnightblue" points="88.87,-98.69 98.24,-93.74 87.83,-91.76 88.87,-98.69"/>
</g>
<!-- Node12 -->
<g id="node11" class="node">
<title>Node12</title>
<g id="a_node11"><a xlink:href="classCustomServo.html#a95761db4177f965e756bdf725cb10ada" target="_top" xlink:title="Steuert den Servo direkt an, enspricht dem normalen Servo::write">
<polygon fill="none" stroke="black" points="80,-38.5 80,-57.5 222,-57.5 222,-38.5 80,-38.5"/>
<text text-anchor="middle" x="151" y="-45.5" font-family="Helvetica,sans-Serif" font-size="10.00">CustomServo::writeDirect</text>
</a>
</g>
</g>
<!-- Node1&#45;&gt;Node12 -->
<g id="edge10" class="edge">
<title>Node1&#45;&gt;Node12</title>
<path fill="none" stroke="midnightblue" d="M34.99,-95.32C46.09,-86.79 63.33,-74.58 80,-67 85.29,-64.6 90.94,-62.44 96.66,-60.53"/>
<polygon fill="midnightblue" stroke="midnightblue" points="97.79,-63.84 106.29,-57.52 95.7,-57.16 97.79,-63.84"/>
</g>
<!-- Node4 -->
<g id="node4" class="node">
<title>Node4</title>
<g id="a_node4"><a xlink:href="structCallable.html#a0e146c329fbdf8720a9541f60fe910e9" target="_top" xlink:title="Wird ausgeführt wenn der Call an der Reihe ist.">
<polygon fill="none" stroke="black" points="292.5,-152.5 292.5,-171.5 370.5,-171.5 370.5,-152.5 292.5,-152.5"/>
<text text-anchor="middle" x="331.5" y="-159.5" font-family="Helvetica,sans-Serif" font-size="10.00">Callable::run</text>
</a>
</g>
</g>
<!-- Node3&#45;&gt;Node4 -->
<g id="edge3" class="edge">
<title>Node3&#45;&gt;Node4</title>
<path fill="none" stroke="midnightblue" d="M197.04,-133.59C223.14,-139.15 255.99,-146.14 282.57,-151.8"/>
<polygon fill="midnightblue" stroke="midnightblue" points="281.91,-155.23 292.42,-153.89 283.37,-148.39 281.91,-155.23"/>
</g>
<!-- Node6 -->
<g id="node6" class="node">
<title>Node6</title>
<g id="a_node6"><a xlink:href="classAnimatableLcd.html#ad5509573d45cc84cda93b125fdca749e" target="_top" xlink:title="gibt den Text &quot;schön&quot; aus, das heißt zentriert und mit automatischen Zeilenumbrüchen">
<polygon fill="none" stroke="black" points="258,-114.5 258,-133.5 405,-133.5 405,-114.5 258,-114.5"/>
<text text-anchor="middle" x="331.5" y="-121.5" font-family="Helvetica,sans-Serif" font-size="10.00">AnimatableLcd::printPretty</text>
</a>
</g>
</g>
<!-- Node5&#45;&gt;Node6 -->
<g id="edge5" class="edge">
<title>Node5&#45;&gt;Node6</title>
<path fill="none" stroke="midnightblue" d="M197.04,-95.59C221.02,-100.69 250.7,-107.01 275.97,-112.39"/>
<polygon fill="midnightblue" stroke="midnightblue" points="275.27,-115.82 285.78,-114.48 276.73,-108.97 275.27,-115.82"/>
</g>
<!-- Node9 -->
<g id="node8" class="node">
<title>Node9</title>
<g id="a_node8"><a xlink:href="sketch_8ino.html#a902e3350d6dfe8c210f24b31c7b284d8" target="_top" xlink:title="Setzt die Farbe der RGB&#45;Led.">
<polygon fill="none" stroke="black" points="294.5,-76.5 294.5,-95.5 368.5,-95.5 368.5,-76.5 294.5,-76.5"/>
<text text-anchor="middle" x="331.5" y="-83.5" font-family="Helvetica,sans-Serif" font-size="10.00">setLedColor</text>
</a>
</g>
</g>
<!-- Node5&#45;&gt;Node9 -->
<g id="edge7" class="edge">
<title>Node5&#45;&gt;Node9</title>
<path fill="none" stroke="midnightblue" d="M203.63,-86C229.04,-86 259.42,-86 284.08,-86"/>
<polygon fill="midnightblue" stroke="midnightblue" points="284.27,-89.5 294.27,-86 284.27,-82.5 284.27,-89.5"/>
</g>
<!-- Node10 -->
<g id="node9" class="node">
<title>Node10</title>
<g id="a_node9"><a xlink:href="classCustomServo.html#ad0f2d2d481d21c4d97f333efa744e0e8" target="_top" xlink:title="Lässt den Servo weiterlaufen.">
<polygon fill="none" stroke="black" points="276.5,-38.5 276.5,-57.5 386.5,-57.5 386.5,-38.5 276.5,-38.5"/>
<text text-anchor="middle" x="331.5" y="-45.5" font-family="Helvetica,sans-Serif" font-size="10.00">CustomServo::start</text>
</a>
</g>
</g>
<!-- Node5&#45;&gt;Node10 -->
<g id="edge8" class="edge">
<title>Node5&#45;&gt;Node10</title>
<path fill="none" stroke="midnightblue" d="M197.04,-76.41C221.02,-71.31 250.7,-64.99 275.97,-59.61"/>
<polygon fill="midnightblue" stroke="midnightblue" points="276.73,-63.03 285.78,-57.52 275.27,-56.18 276.73,-63.03"/>
</g>
<!-- Node11 -->
<g id="node10" class="node">
<title>Node11</title>
<g id="a_node10"><a xlink:href="classCustomServo.html#a2504ffc997018dad9f3811b18b16c672" target="_top" xlink:title="Stoppt den Servo.">
<polygon fill="none" stroke="black" points="277,-0.5 277,-19.5 386,-19.5 386,-0.5 277,-0.5"/>
<text text-anchor="middle" x="331.5" y="-7.5" font-family="Helvetica,sans-Serif" font-size="10.00">CustomServo::stop</text>
</a>
</g>
</g>
<!-- Node5&#45;&gt;Node11 -->
<g id="edge9" class="edge">
<title>Node5&#45;&gt;Node11</title>
<path fill="none" stroke="midnightblue" d="M200.86,-76.46C208.22,-73.98 215.51,-70.88 222,-67 241.97,-55.06 237.98,-40.85 258,-29 261.65,-26.84 265.55,-24.92 269.58,-23.21"/>
<polygon fill="midnightblue" stroke="midnightblue" points="271.01,-26.42 279.13,-19.62 268.54,-19.86 271.01,-26.42"/>
</g>
<!-- Node7 -->
<g id="node7" class="node">
<title>Node7</title>
<g id="a_node7"><a xlink:href="classAnimatableLcd.html#aaff767fb418dbc3e902dd4a1be3207a8" target="_top" xlink:title="Gibt einen String zentriert auf dem Lcd&#45;Display aus.">
<polygon fill="none" stroke="red" points="441,-114.5 441,-133.5 603,-133.5 603,-114.5 441,-114.5"/>
<text text-anchor="middle" x="522" y="-121.5" font-family="Helvetica,sans-Serif" font-size="10.00">AnimatableLcd::printCentered</text>
</a>
</g>
</g>
<!-- Node6&#45;&gt;Node7 -->
<g id="edge6" class="edge">
<title>Node6&#45;&gt;Node7</title>
<path fill="none" stroke="midnightblue" d="M405.11,-124C413.53,-124 422.2,-124 430.82,-124"/>
<polygon fill="midnightblue" stroke="midnightblue" points="430.9,-127.5 440.9,-124 430.9,-120.5 430.9,-127.5"/>
</g>
</g>
</svg>
