<?xml version="1.0" encoding="UTF-8" standalone="no"?>
<!DOCTYPE svg PUBLIC "-//W3C//DTD SVG 1.1//EN"
 "http://www.w3.org/Graphics/SVG/1.1/DTD/svg11.dtd">
<!-- Generated by graphviz version 2.43.0 (0)
 -->
<!-- Title: LcdString Pages: 1 -->
<svg width="200pt" height="196pt"
 viewBox="0.00 0.00 199.50 196.00" xmlns="http://www.w3.org/2000/svg" xmlns:xlink="http://www.w3.org/1999/xlink">
<g id="graph0" class="graph" transform="scale(1 1) rotate(0) translate(4 192)">
<title>LcdString</title>
<!-- Node1 -->
<g id="node1" class="node">
<title>Node1</title>
<g id="a_node1"><a xlink:title="Ein String der auf dem AnimatableLcd angezeigt werden kann.">
<polygon fill="#bfbfbf" stroke="black" points="59,-112.5 59,-131.5 121,-131.5 121,-112.5 59,-112.5"/>
<text text-anchor="middle" x="90" y="-119.5" font-family="Helvetica,sans-Serif" font-size="10.00">LcdString</text>
</a>
</g>
</g>
<!-- Node3 -->
<g id="node3" class="node">
<title>Node3</title>
<g id="a_node3"><a xlink:href="classAnimString.html" target="_top" xlink:title="Die Klasse für animierbare LcdStrings.">
<polygon fill="none" stroke="black" points="54.5,-56.5 54.5,-75.5 125.5,-75.5 125.5,-56.5 54.5,-56.5"/>
<text text-anchor="middle" x="90" y="-63.5" font-family="Helvetica,sans-Serif" font-size="10.00">AnimString</text>
</a>
</g>
</g>
<!-- Node1&#45;&gt;Node3 -->
<g id="edge2" class="edge">
<title>Node1&#45;&gt;Node3</title>
<path fill="none" stroke="midnightblue" d="M90,-101.8C90,-92.91 90,-82.78 90,-75.75"/>
<polygon fill="midnightblue" stroke="midnightblue" points="86.5,-102.08 90,-112.08 93.5,-102.08 86.5,-102.08"/>
</g>
<!-- Node2 -->
<g id="node2" class="node">
<title>Node2</title>
<g id="a_node2"><a xlink:href="classCallable.html" target="_top" xlink:title="Ein Call der vom CallHandler aufgerufen werden kann.">
<polygon fill="none" stroke="black" points="62,-168.5 62,-187.5 118,-187.5 118,-168.5 62,-168.5"/>
<text text-anchor="middle" x="90" y="-175.5" font-family="Helvetica,sans-Serif" font-size="10.00">Callable</text>
</a>
</g>
</g>
<!-- Node2&#45;&gt;Node1 -->
<g id="edge1" class="edge">
<title>Node2&#45;&gt;Node1</title>
<path fill="none" stroke="midnightblue" d="M90,-157.8C90,-148.91 90,-138.78 90,-131.75"/>
<polygon fill="midnightblue" stroke="midnightblue" points="86.5,-158.08 90,-168.08 93.5,-158.08 86.5,-158.08"/>
</g>
<!-- Node4 -->
<g id="node4" class="node">
<title>Node4</title>
<g id="a_node4"><a xlink:href="classLcdDotAnim.html" target="_top" xlink:title="Die Klasse der Lcd Punktanimationen.">
<polygon fill="none" stroke="black" points="0,-0.5 0,-19.5 76,-19.5 76,-0.5 0,-0.5"/>
<text text-anchor="middle" x="38" y="-7.5" font-family="Helvetica,sans-Serif" font-size="10.00">LcdDotAnim</text>
</a>
</g>
</g>
<!-- Node3&#45;&gt;Node4 -->
<g id="edge3" class="edge">
<title>Node3&#45;&gt;Node4</title>
<path fill="none" stroke="midnightblue" d="M74.32,-48.72C65.16,-39.2 53.95,-27.56 46.43,-19.75"/>
<polygon fill="midnightblue" stroke="midnightblue" points="71.96,-51.31 81.41,-56.08 77,-46.45 71.96,-51.31"/>
</g>
<!-- Node5 -->
<g id="node5" class="node">
<title>Node5</title>
<g id="a_node5"><a xlink:href="classLcdLoadingAnim.html" target="_top" xlink:title="Die Klasse der Lcd Ladeanimationen.">
<polygon fill="none" stroke="black" points="94.5,-0.5 94.5,-19.5 191.5,-19.5 191.5,-0.5 94.5,-0.5"/>
<text text-anchor="middle" x="143" y="-7.5" font-family="Helvetica,sans-Serif" font-size="10.00">LcdLoadingAnim</text>
</a>
</g>
</g>
<!-- Node3&#45;&gt;Node5 -->
<g id="edge4" class="edge">
<title>Node3&#45;&gt;Node5</title>
<path fill="none" stroke="midnightblue" d="M105.98,-48.72C115.32,-39.2 126.75,-27.56 134.41,-19.75"/>
<polygon fill="midnightblue" stroke="midnightblue" points="103.26,-46.49 98.75,-56.08 108.25,-51.4 103.26,-46.49"/>
</g>
</g>
</svg>
