<?xml version="1.0" encoding="UTF-8" standalone="no"?>
<!DOCTYPE svg PUBLIC "-//W3C//DTD SVG 1.1//EN"
 "http://www.w3.org/Graphics/SVG/1.1/DTD/svg11.dtd">
<!-- Generated by graphviz version 2.43.0 (0)
 -->
<!-- Title: LcdString::update Pages: 1 -->
<svg width="348pt" height="28pt"
 viewBox="0.00 0.00 348.00 28.00" xmlns="http://www.w3.org/2000/svg" xmlns:xlink="http://www.w3.org/1999/xlink">
<g id="graph0" class="graph" transform="scale(1 1) rotate(0) translate(4 24)">
<title>LcdString::update</title>
<!-- Node1 -->
<g id="node1" class="node">
<title>Node1</title>
<g id="a_node1"><a xlink:title=" ">
<polygon fill="#bfbfbf" stroke="black" points="239,-0.5 239,-19.5 340,-19.5 340,-0.5 239,-0.5"/>
<text text-anchor="middle" x="289.5" y="-7.5" font-family="Helvetica,sans-Serif" font-size="10.00">LcdString::update</text>
</a>
</g>
</g>
<!-- Node2 -->
<g id="node2" class="node">
<title>Node2</title>
<g id="a_node2"><a xlink:href="classAnimatableLcd.html#a85725484bae8d5c0b1190366b3121f99" target="_top" xlink:title="wird immer wieder von loop aufgerufen um die Animationen zu updaten">
<polygon fill="none" stroke="black" points="74,-0.5 74,-19.5 203,-19.5 203,-0.5 74,-0.5"/>
<text text-anchor="middle" x="138.5" y="-7.5" font-family="Helvetica,sans-Serif" font-size="10.00">AnimatableLcd::update</text>
</a>
</g>
</g>
<!-- Node1&#45;&gt;Node2 -->
<g id="edge1" class="edge">
<title>Node1&#45;&gt;Node2</title>
<path fill="none" stroke="midnightblue" d="M228.78,-10C220.37,-10 211.7,-10 203.21,-10"/>
<polygon fill="midnightblue" stroke="midnightblue" points="228.89,-13.5 238.89,-10 228.89,-6.5 228.89,-13.5"/>
</g>
<!-- Node3 -->
<g id="node3" class="node">
<title>Node3</title>
<g id="a_node3"><a xlink:href="sketch_8ino.html#afe461d27b9c48d5921c00d521181f12f" target="_top" xlink:title="Wird immer wieder ausgeführt.">
<polygon fill="none" stroke="black" points="0,-0.5 0,-19.5 38,-19.5 38,-0.5 0,-0.5"/>
<text text-anchor="middle" x="19" y="-7.5" font-family="Helvetica,sans-Serif" font-size="10.00">loop</text>
</a>
</g>
</g>
<!-- Node2&#45;&gt;Node3 -->
<g id="edge2" class="edge">
<title>Node2&#45;&gt;Node3</title>
<path fill="none" stroke="midnightblue" d="M63.84,-10C54.31,-10 45.33,-10 38.02,-10"/>
<polygon fill="midnightblue" stroke="midnightblue" points="63.94,-13.5 73.94,-10 63.94,-6.5 63.94,-13.5"/>
</g>
</g>
</svg>
