<?xml version="1.0" encoding="UTF-8" standalone="no"?>
<!DOCTYPE svg PUBLIC "-//W3C//DTD SVG 1.1//EN"
 "http://www.w3.org/Graphics/SVG/1.1/DTD/svg11.dtd">
<!-- Generated by graphviz version 2.43.0 (0)
 -->
<!-- Title: animLcd.h Pages: 1 -->
<svg width="381pt" height="196pt"
 viewBox="0.00 0.00 381.00 196.00" xmlns="http://www.w3.org/2000/svg" xmlns:xlink="http://www.w3.org/1999/xlink">
<g id="graph0" class="graph" transform="scale(1 1) rotate(0) translate(4 192)">
<title>animLcd.h</title>
<!-- Node1 -->
<g id="node1" class="node">
<title>Node1</title>
<g id="a_node1"><a xlink:title="Header&#45;Datei f端r den animierbaren lcd (AnimatableLcd)">
<polygon fill="#bfbfbf" stroke="black" points="153.5,-168.5 153.5,-187.5 220.5,-187.5 220.5,-168.5 153.5,-168.5"/>
<text text-anchor="middle" x="187" y="-175.5" font-family="Helvetica,sans-Serif" font-size="10.00">animLcd.h</text>
</a>
</g>
</g>
<!-- Node2 -->
<g id="node2" class="node">
<title>Node2</title>
<g id="a_node2"><a xlink:href="animLcd_8ino.html" target="_top" xlink:title="Implementation f端r die AnimatableLcd Klasse.">
<polygon fill="none" stroke="black" points="0,-0.5 0,-19.5 76,-19.5 76,-0.5 0,-0.5"/>
<text text-anchor="middle" x="38" y="-7.5" font-family="Helvetica,sans-Serif" font-size="10.00">animLcd.ino</text>
</a>
</g>
</g>
<!-- Node1&#45;&gt;Node2 -->
<g id="edge1" class="edge">
<title>Node1&#45;&gt;Node2</title>
<path fill="none" stroke="midnightblue" d="M165.16,-162.57C153.49,-154.33 139.26,-143.39 128,-132 90.65,-94.19 55.94,-40.26 43.17,-19.55"/>
<polygon fill="midnightblue" stroke="midnightblue" points="163.27,-165.52 173.49,-168.31 167.24,-159.75 163.27,-165.52"/>
</g>
<!-- Node3 -->
<g id="node3" class="node">
<title>Node3</title>
<g id="a_node3"><a xlink:href="animString_8h.html" target="_top" xlink:title="Header datei f端r eine Mehrzahl von animierbaren Strings und der Callable Klasse.">
<polygon fill="none" stroke="black" points="147.5,-112.5 147.5,-131.5 226.5,-131.5 226.5,-112.5 147.5,-112.5"/>
<text text-anchor="middle" x="187" y="-119.5" font-family="Helvetica,sans-Serif" font-size="10.00">animString.h</text>
</a>
</g>
</g>
<!-- Node1&#45;&gt;Node3 -->
<g id="edge2" class="edge">
<title>Node1&#45;&gt;Node3</title>
<path fill="none" stroke="midnightblue" d="M180.53,-158.1C179.9,-149.14 180.34,-138.86 181.87,-131.75"/>
<polygon fill="midnightblue" stroke="midnightblue" points="177.07,-158.62 181.83,-168.08 184.01,-157.71 177.07,-158.62"/>
</g>
<!-- Node4 -->
<g id="node4" class="node">
<title>Node4</title>
<g id="a_node4"><a xlink:href="animString_8ino.html" target="_top" xlink:title="Implementationen der Callable und LcdString Klassen.">
<polygon fill="none" stroke="black" points="94,-0.5 94,-19.5 182,-19.5 182,-0.5 94,-0.5"/>
<text text-anchor="middle" x="138" y="-7.5" font-family="Helvetica,sans-Serif" font-size="10.00">animString.ino</text>
</a>
</g>
</g>
<!-- Node1&#45;&gt;Node4 -->
<g id="edge11" class="edge">
<title>Node1&#45;&gt;Node4</title>
<path fill="none" stroke="midnightblue" d="M163.9,-162.35C153.96,-154.66 143.39,-144.27 138,-132 120.93,-93.15 130.8,-40.27 135.72,-19.69"/>
<polygon fill="midnightblue" stroke="midnightblue" points="162.17,-165.42 172.34,-168.4 166.25,-159.73 162.17,-165.42"/>
</g>
<!-- Node7 -->
<g id="node7" class="node">
<title>Node7</title>
<g id="a_node7"><a xlink:href="sketch_8ino.html" target="_top" xlink:title="Hauptdatei, wichtigste Funktionen sind setup() und loop()">
<polygon fill="none" stroke="black" points="307,-0.5 307,-19.5 373,-19.5 373,-0.5 307,-0.5"/>
<text text-anchor="middle" x="340" y="-7.5" font-family="Helvetica,sans-Serif" font-size="10.00">sketch.ino</text>
</a>
</g>
</g>
<!-- Node1&#45;&gt;Node7 -->
<g id="edge12" class="edge">
<title>Node1&#45;&gt;Node7</title>
<path fill="none" stroke="midnightblue" d="M204.35,-161.53C213.66,-153.04 225.2,-142.19 235,-132 273.76,-91.72 316.39,-40.1 332.91,-19.78"/>
<polygon fill="midnightblue" stroke="midnightblue" points="201.91,-159.02 196.84,-168.32 206.61,-164.21 201.91,-159.02"/>
</g>
<!-- Node3&#45;&gt;Node1 -->
<g id="edge3" class="edge">
<title>Node3&#45;&gt;Node1</title>
<path fill="none" stroke="midnightblue" d="M193.46,-141.69C194.11,-150.64 193.68,-160.93 192.17,-168.08"/>
<polygon fill="midnightblue" stroke="midnightblue" points="196.92,-141.2 192.13,-131.75 189.98,-142.13 196.92,-141.2"/>
</g>
<!-- Node3&#45;&gt;Node4 -->
<g id="edge4" class="edge">
<title>Node3&#45;&gt;Node4</title>
<path fill="none" stroke="midnightblue" d="M173.84,-103.95C168.06,-95.83 161.55,-85.77 157,-76 148.06,-56.82 142.3,-32.48 139.67,-19.71"/>
<polygon fill="midnightblue" stroke="midnightblue" points="171.17,-106.22 179.93,-112.18 176.8,-102.06 171.17,-106.22"/>
</g>
<!-- Node5 -->
<g id="node5" class="node">
<title>Node5</title>
<g id="a_node5"><a xlink:href="callHandler_8h.html" target="_top" xlink:title="header datei f端r den CallHandler">
<polygon fill="none" stroke="black" points="166,-56.5 166,-75.5 246,-75.5 246,-56.5 166,-56.5"/>
<text text-anchor="middle" x="206" y="-63.5" font-family="Helvetica,sans-Serif" font-size="10.00">callHandler.h</text>
</a>
</g>
</g>
<!-- Node3&#45;&gt;Node5 -->
<g id="edge5" class="edge">
<title>Node3&#45;&gt;Node5</title>
<path fill="none" stroke="midnightblue" d="M193.55,-102.4C196.72,-93.36 200.39,-82.94 202.92,-75.75"/>
<polygon fill="midnightblue" stroke="midnightblue" points="190.15,-101.49 190.14,-112.08 196.76,-103.81 190.15,-101.49"/>
</g>
<!-- Node6 -->
<g id="node6" class="node">
<title>Node6</title>
<g id="a_node6"><a xlink:href="callHandler_8ino.html" target="_top" xlink:title="Umsetzung der CallHandler Klasse.">
<polygon fill="none" stroke="black" points="199.5,-0.5 199.5,-19.5 288.5,-19.5 288.5,-0.5 199.5,-0.5"/>
<text text-anchor="middle" x="244" y="-7.5" font-family="Helvetica,sans-Serif" font-size="10.00">callHandler.ino</text>
</a>
</g>
</g>
<!-- Node3&#45;&gt;Node6 -->
<g id="edge10" class="edge">
<title>Node3&#45;&gt;Node6</title>
<path fill="none" stroke="midnightblue" d="M219.59,-107.9C233.1,-100.65 247.38,-90.18 255,-76 264.86,-57.65 255.14,-32.54 248.7,-19.55"/>
<polygon fill="midnightblue" stroke="midnightblue" points="217.87,-104.84 210.45,-112.41 220.97,-111.12 217.87,-104.84"/>
</g>
<!-- Node5&#45;&gt;Node2 -->
<g id="edge6" class="edge">
<title>Node5&#45;&gt;Node2</title>
<path fill="none" stroke="midnightblue" d="M169.61,-53.3C137.96,-43.13 92.83,-28.62 64.5,-19.52"/>
<polygon fill="midnightblue" stroke="midnightblue" points="168.79,-56.72 179.38,-56.44 170.93,-50.05 168.79,-56.72"/>
</g>
<!-- Node5&#45;&gt;Node4 -->
<g id="edge7" class="edge">
<title>Node5&#45;&gt;Node4</title>
<path fill="none" stroke="midnightblue" d="M187.24,-50.1C175,-40.38 159.44,-28.03 149.12,-19.83"/>
<polygon fill="midnightblue" stroke="midnightblue" points="185.07,-52.85 195.07,-56.32 189.42,-47.36 185.07,-52.85"/>
</g>
<!-- Node5&#45;&gt;Node6 -->
<g id="edge8" class="edge">
<title>Node5&#45;&gt;Node6</title>
<path fill="none" stroke="midnightblue" d="M218.06,-47.86C224.64,-38.5 232.51,-27.33 237.84,-19.75"/>
<polygon fill="midnightblue" stroke="midnightblue" points="215.17,-45.89 212.27,-56.08 220.89,-49.92 215.17,-45.89"/>
</g>
<!-- Node5&#45;&gt;Node7 -->
<g id="edge9" class="edge">
<title>Node5&#45;&gt;Node7</title>
<path fill="none" stroke="midnightblue" d="M236.68,-52.64C261.82,-42.5 296.75,-28.43 318.87,-19.52"/>
<polygon fill="midnightblue" stroke="midnightblue" points="235.2,-49.46 227.23,-56.44 237.82,-55.95 235.2,-49.46"/>
</g>
</g>
</svg>
