<?xml version="1.0" encoding="UTF-8" standalone="no"?>
<!DOCTYPE svg PUBLIC "-//W3C//DTD SVG 1.1//EN"
 "http://www.w3.org/Graphics/SVG/1.1/DTD/svg11.dtd">
<!-- Generated by graphviz version 2.43.0 (0)
 -->
<!-- Title: animString.ino Pages: 1 -->
<svg width="302pt" height="196pt"
 viewBox="0.00 0.00 302.17 196.00" xmlns="http://www.w3.org/2000/svg" xmlns:xlink="http://www.w3.org/1999/xlink">
<g id="graph0" class="graph" transform="scale(1 1) rotate(0) translate(4 192)">
<title>animString.ino</title>
<!-- Node1 -->
<g id="node1" class="node">
<title>Node1</title>
<g id="a_node1"><a xlink:title="Implementationen der Callable und LcdString Klassen.">
<polygon fill="#bfbfbf" stroke="black" points="111.17,-168.5 111.17,-187.5 199.17,-187.5 199.17,-168.5 111.17,-168.5"/>
<text text-anchor="middle" x="155.17" y="-175.5" font-family="Helvetica,sans-Serif" font-size="10.00">animString.ino</text>
</a>
</g>
</g>
<!-- Node2 -->
<g id="node2" class="node">
<title>Node2</title>
<g id="a_node2"><a xlink:href="animLcd_8h.html" target="_top" xlink:title="Header&#45;Datei f端r den animierbaren lcd (AnimatableLcd)">
<polygon fill="none" stroke="black" points="90.67,-112.5 90.67,-131.5 157.67,-131.5 157.67,-112.5 90.67,-112.5"/>
<text text-anchor="middle" x="124.17" y="-119.5" font-family="Helvetica,sans-Serif" font-size="10.00">animLcd.h</text>
</a>
</g>
</g>
<!-- Node1&#45;&gt;Node2 -->
<g id="edge1" class="edge">
<title>Node1&#45;&gt;Node2</title>
<path fill="none" stroke="midnightblue" d="M150.05,-168.08C145.76,-160.61 139.51,-149.72 134.22,-140.52"/>
<polygon fill="midnightblue" stroke="midnightblue" points="137.2,-138.68 129.19,-131.75 131.13,-142.17 137.2,-138.68"/>
</g>
<!-- Node4 -->
<g id="node4" class="node">
<title>Node4</title>
<g id="a_node4"><a xlink:href="animString_8h.html" target="_top" xlink:title="Header datei f端r eine Mehrzahl von animierbaren Strings und der Callable Klasse.">
<polygon fill="none" stroke="black" points="146.67,-56.5 146.67,-75.5 225.67,-75.5 225.67,-56.5 146.67,-56.5"/>
<text text-anchor="middle" x="186.17" y="-63.5" font-family="Helvetica,sans-Serif" font-size="10.00">animString.h</text>
</a>
</g>
</g>
<!-- Node1&#45;&gt;Node4 -->
<g id="edge10" class="edge">
<title>Node1&#45;&gt;Node4</title>
<path fill="none" stroke="midnightblue" d="M157.6,-168.37C162.62,-150.54 174.25,-109.3 181.02,-85.27"/>
<polygon fill="midnightblue" stroke="midnightblue" points="184.4,-86.17 183.74,-75.59 177.66,-84.27 184.4,-86.17"/>
</g>
<!-- Node5 -->
<g id="node5" class="node">
<title>Node5</title>
<g id="a_node5"><a xlink:href="header_8h.html" target="_top" xlink:title="Definiert variablen&#45;types die 端berall im Programm benutzt werden.">
<polygon fill="none" stroke="black" points="156.67,-0.5 156.67,-19.5 215.67,-19.5 215.67,-0.5 156.67,-0.5"/>
<text text-anchor="middle" x="186.17" y="-7.5" font-family="Helvetica,sans-Serif" font-size="10.00">header.h</text>
</a>
</g>
</g>
<!-- Node1&#45;&gt;Node5 -->
<g id="edge9" class="edge">
<title>Node1&#45;&gt;Node5</title>
<path fill="none" stroke="midnightblue" d="M127.94,-168.43C75.64,-150.58 -30.34,-106.81 9.17,-56 25.86,-34.53 99.64,-21.63 146.52,-15.45"/>
<polygon fill="midnightblue" stroke="midnightblue" points="147.18,-18.9 156.66,-14.17 146.3,-11.95 147.18,-18.9"/>
</g>
<!-- Node6 -->
<g id="node6" class="node">
<title>Node6</title>
<g id="a_node6"><a xlink:href="callHandler_8h.html" target="_top" xlink:title="header datei f端r den CallHandler">
<polygon fill="none" stroke="black" points="214.17,-112.5 214.17,-131.5 294.17,-131.5 294.17,-112.5 214.17,-112.5"/>
<text text-anchor="middle" x="254.17" y="-119.5" font-family="Helvetica,sans-Serif" font-size="10.00">callHandler.h</text>
</a>
</g>
</g>
<!-- Node1&#45;&gt;Node6 -->
<g id="edge6" class="edge">
<title>Node1&#45;&gt;Node6</title>
<path fill="none" stroke="midnightblue" d="M171.07,-168.32C186.8,-159.74 211.11,-146.49 229.37,-136.52"/>
<polygon fill="midnightblue" stroke="midnightblue" points="231.2,-139.52 238.3,-131.65 227.84,-133.37 231.2,-139.52"/>
</g>
<!-- Node3 -->
<g id="node3" class="node">
<title>Node3</title>
<g id="a_node3"><a xlink:title=" ">
<polygon fill="none" stroke="#bfbfbf" points="18.17,-56.5 18.17,-75.5 128.17,-75.5 128.17,-56.5 18.17,-56.5"/>
<text text-anchor="middle" x="73.17" y="-63.5" font-family="Helvetica,sans-Serif" font-size="10.00">LiquidCrystal_I2C.h</text>
</a>
</g>
</g>
<!-- Node2&#45;&gt;Node3 -->
<g id="edge2" class="edge">
<title>Node2&#45;&gt;Node3</title>
<path fill="none" stroke="midnightblue" d="M115.74,-112.08C108.32,-104.22 97.31,-92.57 88.35,-83.08"/>
<polygon fill="midnightblue" stroke="midnightblue" points="90.84,-80.62 81.43,-75.75 85.75,-85.42 90.84,-80.62"/>
</g>
<!-- Node2&#45;&gt;Node4 -->
<g id="edge3" class="edge">
<title>Node2&#45;&gt;Node4</title>
<path fill="none" stroke="midnightblue" d="M129.24,-112.08C136.9,-103.9 150.68,-91.63 162.88,-81.95"/>
<polygon fill="midnightblue" stroke="midnightblue" points="165.17,-84.61 170.99,-75.75 160.92,-79.05 165.17,-84.61"/>
</g>
<!-- Node4&#45;&gt;Node2 -->
<g id="edge4" class="edge">
<title>Node4&#45;&gt;Node2</title>
<path fill="none" stroke="midnightblue" d="M181.17,-75.83C173.51,-84.03 159.64,-96.38 147.38,-106.1"/>
<polygon fill="midnightblue" stroke="midnightblue" points="145.06,-103.47 139.24,-112.32 149.31,-109.03 145.06,-103.47"/>
</g>
<!-- Node4&#45;&gt;Node5 -->
<g id="edge5" class="edge">
<title>Node4&#45;&gt;Node5</title>
<path fill="none" stroke="midnightblue" d="M186.17,-56.08C186.17,-49.01 186.17,-38.86 186.17,-29.99"/>
<polygon fill="midnightblue" stroke="midnightblue" points="189.67,-29.75 186.17,-19.75 182.67,-29.75 189.67,-29.75"/>
</g>
<!-- Node6&#45;&gt;Node4 -->
<g id="edge8" class="edge">
<title>Node6&#45;&gt;Node4</title>
<path fill="none" stroke="midnightblue" d="M243.24,-112.32C232.99,-104.18 217.44,-91.84 205.16,-82.09"/>
<polygon fill="midnightblue" stroke="midnightblue" points="207.3,-79.31 197.29,-75.83 202.94,-84.79 207.3,-79.31"/>
</g>
<!-- Node6&#45;&gt;Node5 -->
<g id="edge7" class="edge">
<title>Node6&#45;&gt;Node5</title>
<path fill="none" stroke="midnightblue" d="M252.97,-112.42C250.85,-99.39 245.54,-74.23 234.17,-56 226.96,-44.46 216.07,-33.92 206.48,-25.94"/>
<polygon fill="midnightblue" stroke="midnightblue" points="208.53,-23.1 198.52,-19.63 204.18,-28.58 208.53,-23.1"/>
</g>
</g>
</svg>
