<?xml version="1.0" encoding="UTF-8" standalone="no"?>
<!DOCTYPE svg PUBLIC "-//W3C//DTD SVG 1.1//EN"
 "http://www.w3.org/Graphics/SVG/1.1/DTD/svg11.dtd">
<!-- Generated by graphviz version 2.43.0 (0)
 -->
<!-- Title: callHandler.h Pages: 1 -->
<svg width="174pt" height="196pt"
 viewBox="0.00 0.00 173.50 196.00" xmlns="http://www.w3.org/2000/svg" xmlns:xlink="http://www.w3.org/1999/xlink">
<g id="graph0" class="graph" transform="scale(1 1) rotate(0) translate(4 192)">
<title>callHandler.h</title>
<!-- Node1 -->
<g id="node1" class="node">
<title>Node1</title>
<g id="a_node1"><a xlink:title="header datei f端r den CallHandler">
<polygon fill="#bfbfbf" stroke="black" points="29.5,-168.5 29.5,-187.5 109.5,-187.5 109.5,-168.5 29.5,-168.5"/>
<text text-anchor="middle" x="69.5" y="-175.5" font-family="Helvetica,sans-Serif" font-size="10.00">callHandler.h</text>
</a>
</g>
</g>
<!-- Node2 -->
<g id="node2" class="node">
<title>Node2</title>
<g id="a_node2"><a xlink:href="header_8h.html" target="_top" xlink:title="Definiert variablen&#45;types die 端berall im Programm benutzt werden.">
<polygon fill="none" stroke="black" points="0,-56.5 0,-75.5 59,-75.5 59,-56.5 0,-56.5"/>
<text text-anchor="middle" x="29.5" y="-63.5" font-family="Helvetica,sans-Serif" font-size="10.00">header.h</text>
</a>
</g>
</g>
<!-- Node1&#45;&gt;Node2 -->
<g id="edge1" class="edge">
<title>Node1&#45;&gt;Node2</title>
<path fill="none" stroke="midnightblue" d="M66.36,-168.37C59.88,-150.54 44.88,-109.3 36.14,-85.27"/>
<polygon fill="midnightblue" stroke="midnightblue" points="39.33,-83.79 32.62,-75.59 32.75,-86.19 39.33,-83.79"/>
</g>
<!-- Node3 -->
<g id="node3" class="node">
<title>Node3</title>
<g id="a_node3"><a xlink:href="animString_8h.html" target="_top" xlink:title="Header datei f端r eine Mehrzahl von animierbaren Strings und der Callable Klasse.">
<polygon fill="none" stroke="black" points="67,-112.5 67,-131.5 146,-131.5 146,-112.5 67,-112.5"/>
<text text-anchor="middle" x="106.5" y="-119.5" font-family="Helvetica,sans-Serif" font-size="10.00">animString.h</text>
</a>
</g>
</g>
<!-- Node1&#45;&gt;Node3 -->
<g id="edge2" class="edge">
<title>Node1&#45;&gt;Node3</title>
<path fill="none" stroke="midnightblue" d="M75.61,-168.08C80.78,-160.53 88.35,-149.49 94.69,-140.23"/>
<polygon fill="midnightblue" stroke="midnightblue" points="97.74,-141.98 100.5,-131.75 91.96,-138.02 97.74,-141.98"/>
</g>
<!-- Node3&#45;&gt;Node2 -->
<g id="edge6" class="edge">
<title>Node3&#45;&gt;Node2</title>
<path fill="none" stroke="midnightblue" d="M94.13,-112.32C82.34,-104.06 64.37,-91.45 50.36,-81.63"/>
<polygon fill="midnightblue" stroke="midnightblue" points="52.04,-78.53 41.84,-75.65 48.02,-84.26 52.04,-78.53"/>
</g>
<!-- Node4 -->
<g id="node4" class="node">
<title>Node4</title>
<g id="a_node4"><a xlink:href="animLcd_8h.html" target="_top" xlink:title="Header&#45;Datei f端r den animierbaren lcd (AnimatableLcd)">
<polygon fill="none" stroke="black" points="77,-56.5 77,-75.5 144,-75.5 144,-56.5 77,-56.5"/>
<text text-anchor="middle" x="110.5" y="-63.5" font-family="Helvetica,sans-Serif" font-size="10.00">animLcd.h</text>
</a>
</g>
</g>
<!-- Node3&#45;&gt;Node4 -->
<g id="edge3" class="edge">
<title>Node3&#45;&gt;Node4</title>
<path fill="none" stroke="midnightblue" d="M101.99,-112.08C101.01,-104.93 101.35,-94.64 102.66,-85.69"/>
<polygon fill="midnightblue" stroke="midnightblue" points="106.12,-86.25 104.72,-75.75 99.26,-84.83 106.12,-86.25"/>
</g>
<!-- Node4&#45;&gt;Node3 -->
<g id="edge5" class="edge">
<title>Node4&#45;&gt;Node3</title>
<path fill="none" stroke="midnightblue" d="M114.98,-75.75C115.98,-82.86 115.67,-93.14 114.37,-102.1"/>
<polygon fill="midnightblue" stroke="midnightblue" points="110.91,-101.58 112.33,-112.08 117.76,-102.99 110.91,-101.58"/>
</g>
<!-- Node5 -->
<g id="node5" class="node">
<title>Node5</title>
<g id="a_node5"><a xlink:title=" ">
<polygon fill="none" stroke="#bfbfbf" points="55.5,-0.5 55.5,-19.5 165.5,-19.5 165.5,-0.5 55.5,-0.5"/>
<text text-anchor="middle" x="110.5" y="-7.5" font-family="Helvetica,sans-Serif" font-size="10.00">LiquidCrystal_I2C.h</text>
</a>
</g>
</g>
<!-- Node4&#45;&gt;Node5 -->
<g id="edge4" class="edge">
<title>Node4&#45;&gt;Node5</title>
<path fill="none" stroke="midnightblue" d="M110.5,-56.08C110.5,-49.01 110.5,-38.86 110.5,-29.99"/>
<polygon fill="midnightblue" stroke="midnightblue" points="114,-29.75 110.5,-19.75 107,-29.75 114,-29.75"/>
</g>
</g>
</svg>
