<?xml version="1.0" encoding="UTF-8" standalone="no"?>
<!DOCTYPE svg PUBLIC "-//W3C//DTD SVG 1.1//EN"
 "http://www.w3.org/Graphics/SVG/1.1/DTD/svg11.dtd">
<!-- Generated by graphviz version 2.43.0 (0)
 -->
<!-- Title: AnimatableLcd Pages: 1 -->
<svg width="178pt" height="209pt"
 viewBox="0.00 0.00 177.50 209.00" xmlns="http://www.w3.org/2000/svg" xmlns:xlink="http://www.w3.org/1999/xlink">
<g id="graph0" class="graph" transform="scale(1 1) rotate(0) translate(4 205)">
<title>AnimatableLcd</title>
<!-- Node1 -->
<g id="node1" class="node">
<title>Node1</title>
<g id="a_node1"><a xlink:title="Eigener Lcd, ermöglicht es Animationen auf dem Lcd Display anzuzeigen.">
<polygon fill="#bfbfbf" stroke="black" points="74.5,-124.5 74.5,-143.5 163.5,-143.5 163.5,-124.5 74.5,-124.5"/>
<text text-anchor="middle" x="119" y="-131.5" font-family="Helvetica,sans-Serif" font-size="10.00">AnimatableLcd</text>
</a>
</g>
</g>
<!-- Node4 -->
<g id="node4" class="node">
<title>Node4</title>
<g id="a_node4"><a xlink:href="structLcdString.html" target="_top" xlink:title="Ein String der auf dem AnimatableLcd angezeigt werden kann.">
<polygon fill="none" stroke="black" points="21,-57.5 21,-76.5 83,-76.5 83,-57.5 21,-57.5"/>
<text text-anchor="middle" x="52" y="-64.5" font-family="Helvetica,sans-Serif" font-size="10.00">LcdString</text>
</a>
</g>
</g>
<!-- Node1&#45;&gt;Node4 -->
<g id="edge5" class="edge">
<title>Node1&#45;&gt;Node4</title>
<path fill="none" stroke="#9a32cd" stroke-dasharray="5,2" d="M100.04,-117.68C95.67,-113.96 91.1,-109.92 87,-106 77.02,-96.45 66.38,-84.64 59.49,-76.74"/>
<polygon fill="#9a32cd" stroke="#9a32cd" points="98.11,-120.63 108.04,-124.33 102.59,-115.24 98.11,-120.63"/>
<text text-anchor="middle" x="96" y="-98" font-family="Helvetica,sans-Serif" font-size="10.00"> lcd</text>
</g>
<!-- Node2 -->
<g id="node2" class="node">
<title>Node2</title>
<g id="a_node2"><a xlink:title=" ">
<polygon fill="none" stroke="black" points="68.5,-181.5 68.5,-200.5 169.5,-200.5 169.5,-181.5 68.5,-181.5"/>
<text text-anchor="middle" x="119" y="-188.5" font-family="Helvetica,sans-Serif" font-size="10.00">LiquidCrystal_I2C</text>
</a>
</g>
</g>
<!-- Node2&#45;&gt;Node1 -->
<g id="edge1" class="edge">
<title>Node2&#45;&gt;Node1</title>
<path fill="none" stroke="midnightblue" d="M119,-171.12C119,-161.82 119,-151.06 119,-143.71"/>
<polygon fill="midnightblue" stroke="midnightblue" points="115.5,-171.41 119,-181.41 122.5,-171.41 115.5,-171.41"/>
</g>
<!-- Node3 -->
<g id="node3" class="node">
<title>Node3</title>
<g id="a_node3"><a xlink:href="classAnimString.html" target="_top" xlink:title="Die Klasse für animierbare LcdStrings.">
<polygon fill="none" stroke="black" points="49.5,-0.5 49.5,-19.5 120.5,-19.5 120.5,-0.5 49.5,-0.5"/>
<text text-anchor="middle" x="85" y="-7.5" font-family="Helvetica,sans-Serif" font-size="10.00">AnimString</text>
</a>
</g>
</g>
<!-- Node3&#45;&gt;Node1 -->
<g id="edge2" class="edge">
<title>Node3&#45;&gt;Node1</title>
<path fill="none" stroke="#9a32cd" stroke-dasharray="5,2" d="M90.11,-29.34C97.54,-56.01 111.04,-104.44 116.55,-124.23"/>
<polygon fill="#9a32cd" stroke="#9a32cd" points="93.48,-28.39 87.42,-19.69 86.74,-30.27 93.48,-28.39"/>
<text text-anchor="middle" x="131.5" y="-64.5" font-family="Helvetica,sans-Serif" font-size="10.00"> animString</text>
</g>
<!-- Node4&#45;&gt;Node3 -->
<g id="edge3" class="edge">
<title>Node4&#45;&gt;Node3</title>
<path fill="none" stroke="midnightblue" d="M62.42,-48.64C68.19,-39.01 75.12,-27.46 79.77,-19.71"/>
<polygon fill="midnightblue" stroke="midnightblue" points="59.3,-47.03 57.16,-57.41 65.3,-50.63 59.3,-47.03"/>
</g>
<!-- Node5 -->
<g id="node5" class="node">
<title>Node5</title>
<g id="a_node5"><a xlink:href="classCallable.html" target="_top" xlink:title="Ein Call der vom CallHandler aufgerufen werden kann.">
<polygon fill="none" stroke="black" points="0,-124.5 0,-143.5 56,-143.5 56,-124.5 0,-124.5"/>
<text text-anchor="middle" x="28" y="-131.5" font-family="Helvetica,sans-Serif" font-size="10.00">Callable</text>
</a>
</g>
</g>
<!-- Node5&#45;&gt;Node4 -->
<g id="edge4" class="edge">
<title>Node5&#45;&gt;Node4</title>
<path fill="none" stroke="midnightblue" d="M34.72,-114.79C39.33,-102.31 45.24,-86.31 48.81,-76.63"/>
<polygon fill="midnightblue" stroke="midnightblue" points="31.42,-113.64 31.24,-124.23 37.98,-116.07 31.42,-113.64"/>
</g>
</g>
</svg>
