<?xml version="1.0" encoding="UTF-8" standalone="no"?>
<!DOCTYPE svg PUBLIC "-//W3C//DTD SVG 1.1//EN"
 "http://www.w3.org/Graphics/SVG/1.1/DTD/svg11.dtd">
<!-- Generated by graphviz version 2.43.0 (0)
 -->
<!-- Title: LcdLoadingAnim::init Pages: 1 -->
<svg width="479pt" height="47pt"
 viewBox="0.00 0.00 479.00 47.00" xmlns="http://www.w3.org/2000/svg" xmlns:xlink="http://www.w3.org/1999/xlink">
<g id="graph0" class="graph" transform="scale(1 1) rotate(0) translate(4 43)">
<title>LcdLoadingAnim::init</title>
<!-- Node1 -->
<g id="node1" class="node">
<title>Node1</title>
<g id="a_node1"><a xlink:title="Initialisierung der Ladeanimation.">
<polygon fill="#bfbfbf" stroke="black" points="0,-19.5 0,-38.5 119,-38.5 119,-19.5 0,-19.5"/>
<text text-anchor="middle" x="59.5" y="-26.5" font-family="Helvetica,sans-Serif" font-size="10.00">LcdLoadingAnim::init</text>
</a>
</g>
</g>
<!-- Node2 -->
<g id="node2" class="node">
<title>Node2</title>
<g id="a_node2"><a xlink:href="classAnimatableLcd.html#ae9f318e41e16a8527eaeffa9500831ca" target="_top" xlink:title="Eigene Lcd&#45;print funktion, die die Möglichkeit bietet eigene Characters in den Text einzufügen.">
<polygon fill="none" stroke="black" points="353,-19.5 353,-38.5 471,-38.5 471,-19.5 353,-19.5"/>
<text text-anchor="middle" x="412" y="-26.5" font-family="Helvetica,sans-Serif" font-size="10.00">AnimatableLcd::print</text>
</a>
</g>
</g>
<!-- Node1&#45;&gt;Node2 -->
<g id="edge1" class="edge">
<title>Node1&#45;&gt;Node2</title>
<path fill="none" stroke="midnightblue" d="M119.17,-29C180.77,-29 277.54,-29 342.57,-29"/>
<polygon fill="midnightblue" stroke="midnightblue" points="342.73,-32.5 352.73,-29 342.73,-25.5 342.73,-32.5"/>
</g>
<!-- Node3 -->
<g id="node3" class="node">
<title>Node3</title>
<g id="a_node3"><a xlink:href="classAnimatableLcd.html#aaff767fb418dbc3e902dd4a1be3207a8" target="_top" xlink:title="Gibt einen String zentriert auf dem Lcd&#45;Display aus.">
<polygon fill="none" stroke="black" points="155,-0.5 155,-19.5 317,-19.5 317,-0.5 155,-0.5"/>
<text text-anchor="middle" x="236" y="-7.5" font-family="Helvetica,sans-Serif" font-size="10.00">AnimatableLcd::printCentered</text>
</a>
</g>
</g>
<!-- Node1&#45;&gt;Node3 -->
<g id="edge2" class="edge">
<title>Node1&#45;&gt;Node3</title>
<path fill="none" stroke="midnightblue" d="M119.09,-22.62C127.35,-21.72 135.99,-20.78 144.67,-19.84"/>
<polygon fill="midnightblue" stroke="midnightblue" points="145.29,-23.29 154.86,-18.73 144.54,-16.33 145.29,-23.29"/>
</g>
<!-- Node3&#45;&gt;Node2 -->
<g id="edge3" class="edge">
<title>Node3&#45;&gt;Node2</title>
<path fill="none" stroke="midnightblue" d="M317.12,-18.75C325.68,-19.68 334.33,-20.63 342.74,-21.55"/>
<polygon fill="midnightblue" stroke="midnightblue" points="342.53,-25.04 352.85,-22.65 343.29,-18.09 342.53,-25.04"/>
</g>
</g>
</svg>
