<?xml version="1.0" encoding="UTF-8" standalone="no"?>
<!DOCTYPE svg PUBLIC "-//W3C//DTD SVG 1.1//EN"
 "http://www.w3.org/Graphics/SVG/1.1/DTD/svg11.dtd">
<!-- Generated by graphviz version 2.43.0 (0)
 -->
<!-- Title: LcdLoadingAnim Pages: 1 -->
<svg width="325pt" height="162pt"
 viewBox="0.00 0.00 324.50 162.00" xmlns="http://www.w3.org/2000/svg" xmlns:xlink="http://www.w3.org/1999/xlink">
<g id="graph0" class="graph" transform="scale(1 1) rotate(0) translate(4 158)">
<title>LcdLoadingAnim</title>
<!-- Node1 -->
<g id="node1" class="node">
<title>Node1</title>
<g id="a_node1"><a xlink:title="Die Klasse der Lcd Ladeanimationen.">
<polygon fill="#bfbfbf" stroke="black" points="0,-67.5 0,-86.5 97,-86.5 97,-67.5 0,-67.5"/>
<text text-anchor="middle" x="48.5" y="-74.5" font-family="Helvetica,sans-Serif" font-size="10.00">LcdLoadingAnim</text>
</a>
</g>
</g>
<!-- Node2 -->
<g id="node2" class="node">
<title>Node2</title>
<g id="a_node2"><a xlink:href="classAnimString.html" target="_top" xlink:title="Die Klasse für animierbare LcdStrings.">
<polygon fill="none" stroke="black" points="124,-134.5 124,-153.5 195,-153.5 195,-134.5 124,-134.5"/>
<text text-anchor="middle" x="159.5" y="-141.5" font-family="Helvetica,sans-Serif" font-size="10.00">AnimString</text>
</a>
</g>
</g>
<!-- Node2&#45;&gt;Node1 -->
<g id="edge1" class="edge">
<title>Node2&#45;&gt;Node1</title>
<path fill="none" stroke="midnightblue" d="M135.79,-129.12C113.8,-116.24 81.76,-97.48 63.23,-86.63"/>
<polygon fill="midnightblue" stroke="midnightblue" points="134.13,-132.2 144.53,-134.23 137.67,-126.16 134.13,-132.2"/>
</g>
<!-- Node5 -->
<g id="node5" class="node">
<title>Node5</title>
<g id="a_node5"><a xlink:href="classAnimatableLcd.html" target="_top" xlink:title="Eigener Lcd, ermöglicht es Animationen auf dem Lcd Display anzuzeigen.">
<polygon fill="none" stroke="red" points="115,-67.5 115,-86.5 204,-86.5 204,-67.5 115,-67.5"/>
<text text-anchor="middle" x="159.5" y="-74.5" font-family="Helvetica,sans-Serif" font-size="10.00">AnimatableLcd</text>
</a>
</g>
</g>
<!-- Node2&#45;&gt;Node5 -->
<g id="edge5" class="edge">
<title>Node2&#45;&gt;Node5</title>
<path fill="none" stroke="#9a32cd" stroke-dasharray="5,2" d="M159.5,-124.04C159.5,-111.67 159.5,-96.12 159.5,-86.63"/>
<polygon fill="#9a32cd" stroke="#9a32cd" points="156,-124.23 159.5,-134.23 163,-124.23 156,-124.23"/>
<text text-anchor="middle" x="188" y="-108" font-family="Helvetica,sans-Serif" font-size="10.00"> animString</text>
</g>
<!-- Node3 -->
<g id="node3" class="node">
<title>Node3</title>
<g id="a_node3"><a xlink:href="structLcdString.html" target="_top" xlink:title="Ein String der auf dem AnimatableLcd angezeigt werden kann.">
<polygon fill="none" stroke="black" points="201.5,-0.5 201.5,-19.5 263.5,-19.5 263.5,-0.5 201.5,-0.5"/>
<text text-anchor="middle" x="232.5" y="-7.5" font-family="Helvetica,sans-Serif" font-size="10.00">LcdString</text>
</a>
</g>
</g>
<!-- Node3&#45;&gt;Node2 -->
<g id="edge2" class="edge">
<title>Node3&#45;&gt;Node2</title>
<path fill="none" stroke="midnightblue" d="M235.08,-29.64C237.17,-52.32 237.22,-90.71 218.5,-116 212.2,-124.51 202.57,-130.41 192.91,-134.47"/>
<polygon fill="midnightblue" stroke="midnightblue" points="238.55,-29.16 233.92,-19.63 231.59,-29.97 238.55,-29.16"/>
</g>
<!-- Node4 -->
<g id="node4" class="node">
<title>Node4</title>
<g id="a_node4"><a xlink:href="classCallable.html" target="_top" xlink:title="Ein Call der vom CallHandler aufgerufen werden kann.">
<polygon fill="none" stroke="black" points="260.5,-67.5 260.5,-86.5 316.5,-86.5 316.5,-67.5 260.5,-67.5"/>
<text text-anchor="middle" x="288.5" y="-74.5" font-family="Helvetica,sans-Serif" font-size="10.00">Callable</text>
</a>
</g>
</g>
<!-- Node4&#45;&gt;Node3 -->
<g id="edge3" class="edge">
<title>Node4&#45;&gt;Node3</title>
<path fill="none" stroke="midnightblue" d="M274.4,-59.63C263.45,-46.92 248.7,-29.8 239.93,-19.63"/>
<polygon fill="midnightblue" stroke="midnightblue" points="271.77,-61.94 280.95,-67.23 277.07,-57.37 271.77,-61.94"/>
</g>
<!-- Node5&#45;&gt;Node3 -->
<g id="edge4" class="edge">
<title>Node5&#45;&gt;Node3</title>
<path fill="none" stroke="#9a32cd" stroke-dasharray="5,2" d="M175.88,-60.49C183.32,-53.53 192.28,-45.27 200.5,-38 207.58,-31.74 215.72,-24.87 222.02,-19.63"/>
<polygon fill="#9a32cd" stroke="#9a32cd" points="173.4,-58.02 168.51,-67.43 178.19,-63.12 173.4,-58.02"/>
<text text-anchor="middle" x="209.5" y="-41" font-family="Helvetica,sans-Serif" font-size="10.00"> lcd</text>
</g>
</g>
</svg>
