<?xml version="1.0" encoding="UTF-8" standalone="no"?>
<!DOCTYPE svg PUBLIC "-//W3C//DTD SVG 1.1//EN"
 "http://www.w3.org/Graphics/SVG/1.1/DTD/svg11.dtd">
<!-- Generated by graphviz version 2.43.0 (0)
 -->
<!-- Title: AnimatableLcd::print Pages: 1 -->
<svg width="659pt" height="124pt"
 viewBox="0.00 0.00 659.00 123.56" xmlns="http://www.w3.org/2000/svg" xmlns:xlink="http://www.w3.org/1999/xlink">
<g id="graph0" class="graph" transform="scale(1 1) rotate(0) translate(4 119.56)">
<title>AnimatableLcd::print</title>
<!-- Node1 -->
<g id="node1" class="node">
<title>Node1</title>
<g id="a_node1"><a xlink:title="Eigene Lcd&#45;print funktion, die die Möglichkeit bietet eigene Characters in den Text einzufügen.">
<polygon fill="#bfbfbf" stroke="black" points="533,-57.5 533,-76.5 651,-76.5 651,-57.5 533,-57.5"/>
<text text-anchor="middle" x="592" y="-64.5" font-family="Helvetica,sans-Serif" font-size="10.00">AnimatableLcd::print</text>
</a>
</g>
</g>
<!-- Node2 -->
<g id="node2" class="node">
<title>Node2</title>
<g id="a_node2"><a xlink:href="classLcdLoadingAnim.html#a1dcb953ecdb84881d1c80769e7c3829c" target="_top" xlink:title="initialisierung der Ladeanimation">
<polygon fill="none" stroke="black" points="166,-95.5 166,-114.5 285,-114.5 285,-95.5 166,-95.5"/>
<text text-anchor="middle" x="225.5" y="-102.5" font-family="Helvetica,sans-Serif" font-size="10.00">LcdLoadingAnim::init</text>
</a>
</g>
</g>
<!-- Node1&#45;&gt;Node2 -->
<g id="edge1" class="edge">
<title>Node1&#45;&gt;Node2</title>
<path fill="none" stroke="midnightblue" d="M564.08,-81.12C545.73,-89.92 520.58,-100.41 497,-105 425.09,-118.99 340.37,-115.93 285.16,-111.4"/>
<polygon fill="midnightblue" stroke="midnightblue" points="565.85,-84.15 573.27,-76.58 562.75,-77.87 565.85,-84.15"/>
</g>
<!-- Node3 -->
<g id="node3" class="node">
<title>Node3</title>
<g id="a_node3"><a xlink:href="classAnimatableLcd.html#aca170e34fe99df76f7a1e4f4241878c1" target="_top" xlink:title=" ">
<polygon fill="none" stroke="black" points="357,-76.5 357,-95.5 475,-95.5 475,-76.5 357,-76.5"/>
<text text-anchor="middle" x="416" y="-83.5" font-family="Helvetica,sans-Serif" font-size="10.00">AnimatableLcd::print</text>
</a>
</g>
</g>
<!-- Node1&#45;&gt;Node3 -->
<g id="edge2" class="edge">
<title>Node1&#45;&gt;Node3</title>
<path fill="none" stroke="midnightblue" d="M522.46,-74.48C506.85,-76.19 490.41,-77.98 475.27,-79.64"/>
<polygon fill="midnightblue" stroke="midnightblue" points="523.02,-77.94 532.58,-73.38 522.26,-70.99 523.02,-77.94"/>
</g>
<!-- Node4 -->
<g id="node4" class="node">
<title>Node4</title>
<g id="a_node4"><a xlink:href="classAnimatableLcd.html#aaff767fb418dbc3e902dd4a1be3207a8" target="_top" xlink:title="Gibt einen String zentriert auf dem Lcd&#45;Display aus.">
<polygon fill="none" stroke="black" points="335,-38.5 335,-57.5 497,-57.5 497,-38.5 335,-38.5"/>
<text text-anchor="middle" x="416" y="-45.5" font-family="Helvetica,sans-Serif" font-size="10.00">AnimatableLcd::printCentered</text>
</a>
</g>
</g>
<!-- Node1&#45;&gt;Node4 -->
<g id="edge3" class="edge">
<title>Node1&#45;&gt;Node4</title>
<path fill="none" stroke="midnightblue" d="M522.57,-59.53C514.25,-58.62 505.69,-57.69 497.22,-56.76"/>
<polygon fill="midnightblue" stroke="midnightblue" points="522.26,-63.01 532.58,-60.62 523.02,-56.06 522.26,-63.01"/>
</g>
<!-- Node9 -->
<g id="node9" class="node">
<title>Node9</title>
<g id="a_node9"><a xlink:href="classLcdLoadingAnim.html#a939368d0d51f766b20a82176294fba70" target="_top" xlink:title="aktualisiert die Ladeanimation, wird von loop() aufgerufen">
<polygon fill="none" stroke="black" points="347.5,-0.5 347.5,-19.5 484.5,-19.5 484.5,-0.5 347.5,-0.5"/>
<text text-anchor="middle" x="416" y="-7.5" font-family="Helvetica,sans-Serif" font-size="10.00">LcdLoadingAnim::update</text>
</a>
</g>
</g>
<!-- Node1&#45;&gt;Node9 -->
<g id="edge9" class="edge">
<title>Node1&#45;&gt;Node9</title>
<path fill="none" stroke="midnightblue" d="M560.82,-53.44C542.59,-45.6 518.75,-35.94 497,-29 485.98,-25.49 473.93,-22.3 462.6,-19.57"/>
<polygon fill="midnightblue" stroke="midnightblue" points="559.49,-56.68 570.06,-57.47 562.29,-50.26 559.49,-56.68"/>
</g>
<!-- Node4&#45;&gt;Node2 -->
<g id="edge4" class="edge">
<title>Node4&#45;&gt;Node2</title>
<path fill="none" stroke="midnightblue" d="M361.33,-59.93C352.49,-62.13 343.46,-64.52 335,-67 306.08,-75.47 273.53,-87.17 251.69,-95.34"/>
<polygon fill="midnightblue" stroke="midnightblue" points="362.3,-63.3 371.19,-57.54 360.64,-56.5 362.3,-63.3"/>
</g>
<!-- Node5 -->
<g id="node5" class="node">
<title>Node5</title>
<g id="a_node5"><a xlink:href="classAnimatableLcd.html#ad5509573d45cc84cda93b125fdca749e" target="_top" xlink:title="gibt den Text &quot;schön&quot; aus, das heißt zentriert und mit automatischen Zeilenumbrüchen">
<polygon fill="none" stroke="black" points="152,-38.5 152,-57.5 299,-57.5 299,-38.5 152,-38.5"/>
<text text-anchor="middle" x="225.5" y="-45.5" font-family="Helvetica,sans-Serif" font-size="10.00">AnimatableLcd::printPretty</text>
</a>
</g>
</g>
<!-- Node4&#45;&gt;Node5 -->
<g id="edge5" class="edge">
<title>Node4&#45;&gt;Node5</title>
<path fill="none" stroke="midnightblue" d="M324.75,-48C316.18,-48 307.56,-48 299.18,-48"/>
<polygon fill="midnightblue" stroke="midnightblue" points="324.79,-51.5 334.79,-48 324.79,-44.5 324.79,-51.5"/>
</g>
<!-- Node6 -->
<g id="node6" class="node">
<title>Node6</title>
<g id="a_node6"><a xlink:href="classLcdDotAnim.html#afad9c4d44a8a5ef9063e941fd97714e7" target="_top" xlink:title="initialisiert die Punktanimation">
<polygon fill="none" stroke="black" points="9,-76.5 9,-95.5 107,-95.5 107,-76.5 9,-76.5"/>
<text text-anchor="middle" x="58" y="-83.5" font-family="Helvetica,sans-Serif" font-size="10.00">LcdDotAnim::init</text>
</a>
</g>
</g>
<!-- Node5&#45;&gt;Node6 -->
<g id="edge6" class="edge">
<title>Node5&#45;&gt;Node6</title>
<path fill="none" stroke="midnightblue" d="M172.69,-59.9C149.43,-65.24 122.35,-71.45 100.46,-76.48"/>
<polygon fill="midnightblue" stroke="midnightblue" points="173.77,-63.24 182.74,-57.59 172.21,-56.42 173.77,-63.24"/>
</g>
<!-- Node7 -->
<g id="node7" class="node">
<title>Node7</title>
<g id="a_node7"><a xlink:href="structLcdString.html#aa391ea895fc2ec0a5dfe249226daa017" target="_top" xlink:title="gibt den String auf dem Lcd&#45;Display aus">
<polygon fill="none" stroke="black" points="16.5,-38.5 16.5,-57.5 99.5,-57.5 99.5,-38.5 16.5,-38.5"/>
<text text-anchor="middle" x="58" y="-45.5" font-family="Helvetica,sans-Serif" font-size="10.00">LcdString::run</text>
</a>
</g>
</g>
<!-- Node5&#45;&gt;Node7 -->
<g id="edge7" class="edge">
<title>Node5&#45;&gt;Node7</title>
<path fill="none" stroke="midnightblue" d="M141.8,-48C127.16,-48 112.53,-48 99.72,-48"/>
<polygon fill="midnightblue" stroke="midnightblue" points="141.91,-51.5 151.91,-48 141.91,-44.5 141.91,-51.5"/>
</g>
<!-- Node8 -->
<g id="node8" class="node">
<title>Node8</title>
<g id="a_node8"><a xlink:href="classLcdDotAnim.html#a7dc0b25c1a3729a5c6aa652fffcccb71" target="_top" xlink:title="aktualisiert die Punktanimation, wird von loop() aufgerufen">
<polygon fill="none" stroke="black" points="0,-0.5 0,-19.5 116,-19.5 116,-0.5 0,-0.5"/>
<text text-anchor="middle" x="58" y="-7.5" font-family="Helvetica,sans-Serif" font-size="10.00">LcdDotAnim::update</text>
</a>
</g>
</g>
<!-- Node5&#45;&gt;Node8 -->
<g id="edge8" class="edge">
<title>Node5&#45;&gt;Node8</title>
<path fill="none" stroke="midnightblue" d="M172.69,-36.1C149.43,-30.76 122.35,-24.55 100.46,-19.52"/>
<polygon fill="midnightblue" stroke="midnightblue" points="172.21,-39.58 182.74,-38.41 173.77,-32.76 172.21,-39.58"/>
</g>
</g>
</svg>
