<?xml version="1.0" encoding="UTF-8" standalone="no"?>
<!DOCTYPE svg PUBLIC "-//W3C//DTD SVG 1.1//EN"
 "http://www.w3.org/Graphics/SVG/1.1/DTD/svg11.dtd">
<!-- Generated by graphviz version 2.43.0 (0)
 -->
<!-- Title: CustomServo::startMove Pages: 1 -->
<svg width="463pt" height="66pt"
 viewBox="0.00 0.00 463.00 66.00" xmlns="http://www.w3.org/2000/svg" xmlns:xlink="http://www.w3.org/1999/xlink">
<g id="graph0" class="graph" transform="scale(1 1) rotate(0) translate(4 62)">
<title>CustomServo::startMove</title>
<!-- Node1 -->
<g id="node1" class="node">
<title>Node1</title>
<g id="a_node1"><a xlink:title="Setzt Variabeln, die benötigt werden um den Servo zu bewegen.">
<polygon fill="#bfbfbf" stroke="black" points="318,-19.5 318,-38.5 455,-38.5 455,-19.5 318,-19.5"/>
<text text-anchor="middle" x="386.5" y="-26.5" font-family="Helvetica,sans-Serif" font-size="10.00">CustomServo::startMove</text>
</a>
</g>
</g>
<!-- Node2 -->
<g id="node2" class="node">
<title>Node2</title>
<g id="a_node2"><a xlink:href="classCustomServo.html#a0750f5868c694b9f46638038b8536e0a" target="_top" xlink:title="Setzt eine neue Geschwindigkeit des Servos.">
<polygon fill="none" stroke="black" points="149,-38.5 149,-57.5 282,-57.5 282,-38.5 149,-38.5"/>
<text text-anchor="middle" x="215.5" y="-45.5" font-family="Helvetica,sans-Serif" font-size="10.00">CustomServo::setSpeed</text>
</a>
</g>
</g>
<!-- Node1&#45;&gt;Node2 -->
<g id="edge1" class="edge">
<title>Node1&#45;&gt;Node2</title>
<path fill="none" stroke="midnightblue" d="M307.73,-37.74C299.16,-38.71 290.49,-39.68 282.08,-40.63"/>
<polygon fill="midnightblue" stroke="midnightblue" points="308.19,-41.21 317.74,-36.62 307.41,-34.26 308.19,-41.21"/>
</g>
<!-- Node4 -->
<g id="node4" class="node">
<title>Node4</title>
<g id="a_node4"><a xlink:href="classCustomServo.html#a9d67b7154c659f1bf60a8464115c1e94" target="_top" xlink:title="Bewegt den Servo mit einer vorher spezifizierten Geschwindigkeit.">
<polygon fill="none" stroke="black" points="159,-0.5 159,-19.5 272,-19.5 272,-0.5 159,-0.5"/>
<text text-anchor="middle" x="215.5" y="-7.5" font-family="Helvetica,sans-Serif" font-size="10.00">CustomServo::write</text>
</a>
</g>
</g>
<!-- Node1&#45;&gt;Node4 -->
<g id="edge3" class="edge">
<title>Node1&#45;&gt;Node4</title>
<path fill="none" stroke="midnightblue" d="M307.71,-20.25C295.69,-18.9 283.49,-17.53 272.09,-16.25"/>
<polygon fill="midnightblue" stroke="midnightblue" points="307.41,-23.74 317.74,-21.38 308.19,-16.79 307.41,-23.74"/>
</g>
<!-- Node3 -->
<g id="node3" class="node">
<title>Node3</title>
<g id="a_node3"><a xlink:href="sketch_8ino.html#afe461d27b9c48d5921c00d521181f12f" target="_top" xlink:title="Wird immer wieder ausgeführt.">
<polygon fill="none" stroke="black" points="37.5,-38.5 37.5,-57.5 75.5,-57.5 75.5,-38.5 37.5,-38.5"/>
<text text-anchor="middle" x="56.5" y="-45.5" font-family="Helvetica,sans-Serif" font-size="10.00">loop</text>
</a>
</g>
</g>
<!-- Node2&#45;&gt;Node3 -->
<g id="edge2" class="edge">
<title>Node2&#45;&gt;Node3</title>
<path fill="none" stroke="midnightblue" d="M138.8,-48C115.3,-48 91.46,-48 75.73,-48"/>
<polygon fill="midnightblue" stroke="midnightblue" points="138.83,-51.5 148.83,-48 138.83,-44.5 138.83,-51.5"/>
</g>
<!-- Node4&#45;&gt;Node3 -->
<g id="edge4" class="edge">
<title>Node4&#45;&gt;Node3</title>
<path fill="none" stroke="midnightblue" d="M164.87,-22.01C134.51,-29.36 97.46,-38.33 75.77,-43.58"/>
<polygon fill="midnightblue" stroke="midnightblue" points="165.99,-25.34 174.88,-19.59 164.34,-18.54 165.99,-25.34"/>
</g>
<!-- Node5 -->
<g id="node5" class="node">
<title>Node5</title>
<g id="a_node5"><a xlink:href="classCustomServo.html#a73b3e39ae0c5ac49cde683711517283a" target="_top" xlink:title="Bewegt den Servo in duration Millisekunden an den angegebenen Winkel.">
<polygon fill="none" stroke="black" points="0,-0.5 0,-19.5 113,-19.5 113,-0.5 0,-0.5"/>
<text text-anchor="middle" x="56.5" y="-7.5" font-family="Helvetica,sans-Serif" font-size="10.00">CustomServo::write</text>
</a>
</g>
</g>
<!-- Node4&#45;&gt;Node5 -->
<g id="edge5" class="edge">
<title>Node4&#45;&gt;Node5</title>
<path fill="none" stroke="midnightblue" d="M148.49,-10C136.72,-10 124.56,-10 113.11,-10"/>
<polygon fill="midnightblue" stroke="midnightblue" points="148.71,-13.5 158.71,-10 148.71,-6.5 148.71,-13.5"/>
</g>
</g>
</svg>
