<?xml version="1.0" encoding="UTF-8" standalone="no"?>
<!DOCTYPE svg PUBLIC "-//W3C//DTD SVG 1.1//EN"
 "http://www.w3.org/Graphics/SVG/1.1/DTD/svg11.dtd">
<!-- Generated by graphviz version 2.43.0 (0)
 -->
<!-- Title: LcdLoadingAnim Pages: 1 -->
<svg width="331pt" height="162pt"
 viewBox="0.00 0.00 331.00 162.00" xmlns="http://www.w3.org/2000/svg" xmlns:xlink="http://www.w3.org/1999/xlink">
<g id="graph0" class="graph" transform="scale(1 1) rotate(0) translate(4 158)">
<title>LcdLoadingAnim</title>
<!-- Node1 -->
<g id="node1" class="node">
<title>Node1</title>
<g id="a_node1"><a xlink:title="Die Klasse der Lcd Ladeanimationen.">
<polygon fill="#bfbfbf" stroke="black" points="0,-67.5 0,-86.5 97,-86.5 97,-67.5 0,-67.5"/>
<text text-anchor="middle" x="48.5" y="-74.5" font-family="Helvetica,sans-Serif" font-size="10.00">LcdLoadingAnim</text>
</a>
</g>
</g>
<!-- Node2 -->
<g id="node2" class="node">
<title>Node2</title>
<g id="a_node2"><a xlink:href="classAnimString.html" target="_top" xlink:title="Die Klasse für animierbare LcdStrings.">
<polygon fill="none" stroke="black" points="90,-134.5 90,-153.5 161,-153.5 161,-134.5 90,-134.5"/>
<text text-anchor="middle" x="125.5" y="-141.5" font-family="Helvetica,sans-Serif" font-size="10.00">AnimString</text>
</a>
</g>
</g>
<!-- Node2&#45;&gt;Node1 -->
<g id="edge1" class="edge">
<title>Node2&#45;&gt;Node1</title>
<path fill="none" stroke="midnightblue" d="M107.39,-127.71C92.22,-114.91 71.11,-97.09 58.72,-86.63"/>
<polygon fill="midnightblue" stroke="midnightblue" points="105.22,-130.46 115.12,-134.23 109.73,-125.11 105.22,-130.46"/>
</g>
<!-- Node5 -->
<g id="node5" class="node">
<title>Node5</title>
<g id="a_node5"><a xlink:href="classAnimatableLcd.html" target="_top" xlink:title="Eigener Lcd, ermöglicht es Animationen auf dem Lcd Display anzuzeigen.">
<polygon fill="none" stroke="black" points="228,-67.5 228,-86.5 317,-86.5 317,-67.5 228,-67.5"/>
<text text-anchor="middle" x="272.5" y="-74.5" font-family="Helvetica,sans-Serif" font-size="10.00">AnimatableLcd</text>
</a>
</g>
</g>
<!-- Node2&#45;&gt;Node5 -->
<g id="edge6" class="edge">
<title>Node2&#45;&gt;Node5</title>
<path fill="none" stroke="#9a32cd" stroke-dasharray="5,2" d="M154.26,-130.28C183.38,-117.41 227.6,-97.85 252.9,-86.67"/>
<polygon fill="#9a32cd" stroke="#9a32cd" points="152.75,-127.12 145.02,-134.37 155.58,-133.53 152.75,-127.12"/>
<text text-anchor="middle" x="237" y="-108" font-family="Helvetica,sans-Serif" font-size="10.00"> animString</text>
</g>
<!-- Node3 -->
<g id="node3" class="node">
<title>Node3</title>
<g id="a_node3"><a xlink:href="structLcdString.html" target="_top" xlink:title="Ein String der auf dem AnimatableLcd angezeigt werden kann.">
<polygon fill="none" stroke="black" points="150.5,-0.5 150.5,-19.5 212.5,-19.5 212.5,-0.5 150.5,-0.5"/>
<text text-anchor="middle" x="181.5" y="-7.5" font-family="Helvetica,sans-Serif" font-size="10.00">LcdString</text>
</a>
</g>
</g>
<!-- Node3&#45;&gt;Node2 -->
<g id="edge2" class="edge">
<title>Node3&#45;&gt;Node2</title>
<path fill="none" stroke="midnightblue" d="M168.37,-27.58C160.46,-38.29 150.73,-52.83 144.5,-67 134.31,-90.16 128.9,-119.78 126.7,-134.25"/>
<polygon fill="midnightblue" stroke="midnightblue" points="171.2,-29.65 174.48,-19.57 165.63,-25.4 171.2,-29.65"/>
</g>
<!-- Node4 -->
<g id="node4" class="node">
<title>Node4</title>
<g id="a_node4"><a xlink:href="classCallable.html" target="_top" xlink:title="Ein Call der vom CallHandler aufgerufen werden kann.">
<polygon fill="none" stroke="black" points="153.5,-67.5 153.5,-86.5 209.5,-86.5 209.5,-67.5 153.5,-67.5"/>
<text text-anchor="middle" x="181.5" y="-74.5" font-family="Helvetica,sans-Serif" font-size="10.00">Callable</text>
</a>
</g>
</g>
<!-- Node4&#45;&gt;Node3 -->
<g id="edge3" class="edge">
<title>Node4&#45;&gt;Node3</title>
<path fill="none" stroke="midnightblue" d="M181.5,-57.04C181.5,-44.67 181.5,-29.12 181.5,-19.63"/>
<polygon fill="midnightblue" stroke="midnightblue" points="178,-57.23 181.5,-67.23 185,-57.23 178,-57.23"/>
</g>
<!-- Node5&#45;&gt;Node3 -->
<g id="edge4" class="edge">
<title>Node5&#45;&gt;Node3</title>
<path fill="none" stroke="#9a32cd" stroke-dasharray="5,2" d="M252.09,-61.42C234.1,-48.57 208.49,-30.28 193.58,-19.63"/>
<polygon fill="#9a32cd" stroke="#9a32cd" points="250.06,-64.27 260.23,-67.23 254.12,-58.57 250.06,-64.27"/>
<text text-anchor="middle" x="241.5" y="-41" font-family="Helvetica,sans-Serif" font-size="10.00"> lcd</text>
</g>
<!-- Node6 -->
<g id="node6" class="node">
<title>Node6</title>
<g id="a_node6"><a xlink:title=" ">
<polygon fill="none" stroke="black" points="222,-134.5 222,-153.5 323,-153.5 323,-134.5 222,-134.5"/>
<text text-anchor="middle" x="272.5" y="-141.5" font-family="Helvetica,sans-Serif" font-size="10.00">LiquidCrystal_I2C</text>
</a>
</g>
</g>
<!-- Node6&#45;&gt;Node5 -->
<g id="edge5" class="edge">
<title>Node6&#45;&gt;Node5</title>
<path fill="none" stroke="midnightblue" d="M272.5,-124.04C272.5,-111.67 272.5,-96.12 272.5,-86.63"/>
<polygon fill="midnightblue" stroke="midnightblue" points="269,-124.23 272.5,-134.23 276,-124.23 269,-124.23"/>
</g>
</g>
</svg>
