<?xml version="1.0" encoding="UTF-8" standalone="no"?>
<!DOCTYPE svg PUBLIC "-//W3C//DTD SVG 1.1//EN"
 "http://www.w3.org/Graphics/SVG/1.1/DTD/svg11.dtd">
<!-- Generated by graphviz version 2.43.0 (0)
 -->
<!-- Title: AnimatableLcd::printCentered Pages: 1 -->
<svg width="585pt" height="142pt"
 viewBox="0.00 0.00 585.00 142.00" xmlns="http://www.w3.org/2000/svg" xmlns:xlink="http://www.w3.org/1999/xlink">
<g id="graph0" class="graph" transform="scale(1 1) rotate(0) translate(4 138)">
<title>AnimatableLcd::printCentered</title>
<!-- Node1 -->
<g id="node1" class="node">
<title>Node1</title>
<g id="a_node1"><a xlink:title="Gibt einen String zentriert auf dem Lcd&#45;Display aus.">
<polygon fill="#bfbfbf" stroke="black" points="415,-76.5 415,-95.5 577,-95.5 577,-76.5 415,-76.5"/>
<text text-anchor="middle" x="496" y="-83.5" font-family="Helvetica,sans-Serif" font-size="10.00">AnimatableLcd::printCentered</text>
</a>
</g>
</g>
<!-- Node2 -->
<g id="node2" class="node">
<title>Node2</title>
<g id="a_node2"><a xlink:href="classLcdLoadingAnim.html#a1dcb953ecdb84881d1c80769e7c3829c" target="_top" xlink:title="Initialisierung der Ladeanimation.">
<polygon fill="none" stroke="black" points="246,-95.5 246,-114.5 365,-114.5 365,-95.5 246,-95.5"/>
<text text-anchor="middle" x="305.5" y="-102.5" font-family="Helvetica,sans-Serif" font-size="10.00">LcdLoadingAnim::init</text>
</a>
</g>
</g>
<!-- Node1&#45;&gt;Node2 -->
<g id="edge1" class="edge">
<title>Node1&#45;&gt;Node2</title>
<path fill="none" stroke="midnightblue" d="M404.59,-95.11C391.22,-96.46 377.73,-97.82 365.23,-99.08"/>
<polygon fill="midnightblue" stroke="midnightblue" points="405.19,-98.57 414.79,-94.09 404.49,-91.61 405.19,-98.57"/>
</g>
<!-- Node3 -->
<g id="node3" class="node">
<title>Node3</title>
<g id="a_node3"><a xlink:href="classAnimatableLcd.html#ad5509573d45cc84cda93b125fdca749e" target="_top" xlink:title="gibt den Text &quot;schön&quot; aus, das heißt zentriert und mit automatischen Zeilenumbrüchen">
<polygon fill="none" stroke="black" points="232,-57.5 232,-76.5 379,-76.5 379,-57.5 232,-57.5"/>
<text text-anchor="middle" x="305.5" y="-64.5" font-family="Helvetica,sans-Serif" font-size="10.00">AnimatableLcd::printPretty</text>
</a>
</g>
</g>
<!-- Node1&#45;&gt;Node3 -->
<g id="edge2" class="edge">
<title>Node1&#45;&gt;Node3</title>
<path fill="none" stroke="midnightblue" d="M404.75,-76.9C396.18,-76.04 387.56,-75.17 379.18,-74.33"/>
<polygon fill="midnightblue" stroke="midnightblue" points="404.49,-80.39 414.79,-77.91 405.19,-73.43 404.49,-80.39"/>
</g>
<!-- Node4 -->
<g id="node4" class="node">
<title>Node4</title>
<g id="a_node4"><a xlink:href="classLcdDotAnim.html#afad9c4d44a8a5ef9063e941fd97714e7" target="_top" xlink:title="Initialisiert die Punktanimation.">
<polygon fill="none" stroke="black" points="89,-114.5 89,-133.5 187,-133.5 187,-114.5 89,-114.5"/>
<text text-anchor="middle" x="138" y="-121.5" font-family="Helvetica,sans-Serif" font-size="10.00">LcdDotAnim::init</text>
</a>
</g>
</g>
<!-- Node3&#45;&gt;Node4 -->
<g id="edge3" class="edge">
<title>Node3&#45;&gt;Node4</title>
<path fill="none" stroke="midnightblue" d="M251.67,-79.32C244.97,-81.33 238.27,-83.56 232,-86 215.14,-92.56 212.64,-97.89 196,-105 187.94,-108.44 179.04,-111.67 170.7,-114.46"/>
<polygon fill="midnightblue" stroke="midnightblue" points="252.77,-82.65 261.43,-76.55 250.85,-75.92 252.77,-82.65"/>
</g>
<!-- Node5 -->
<g id="node5" class="node">
<title>Node5</title>
<g id="a_node5"><a xlink:href="structLcdString.html#aa391ea895fc2ec0a5dfe249226daa017" target="_top" xlink:title="gibt den String (LcdString::text) auf dem Lcd&#45;Display aus">
<polygon fill="none" stroke="black" points="96.5,-76.5 96.5,-95.5 179.5,-95.5 179.5,-76.5 96.5,-76.5"/>
<text text-anchor="middle" x="138" y="-83.5" font-family="Helvetica,sans-Serif" font-size="10.00">LcdString::run</text>
</a>
</g>
</g>
<!-- Node3&#45;&gt;Node5 -->
<g id="edge4" class="edge">
<title>Node3&#45;&gt;Node5</title>
<path fill="none" stroke="midnightblue" d="M221.8,-76.49C207.16,-78.17 192.53,-79.85 179.72,-81.33"/>
<polygon fill="midnightblue" stroke="midnightblue" points="222.37,-79.95 231.91,-75.33 221.58,-73 222.37,-79.95"/>
</g>
<!-- Node6 -->
<g id="node6" class="node">
<title>Node6</title>
<g id="a_node6"><a xlink:href="sketch_8ino.html#abbbe19f80bf8227bbfbb68d98a1937cc" target="_top" xlink:title="wird ausgeführt wenn der Stop&#45;Knopf gedrückt wird">
<polygon fill="none" stroke="black" points="85.5,-38.5 85.5,-57.5 190.5,-57.5 190.5,-38.5 85.5,-38.5"/>
<text text-anchor="middle" x="138" y="-45.5" font-family="Helvetica,sans-Serif" font-size="10.00">stopButtonClicked</text>
</a>
</g>
</g>
<!-- Node3&#45;&gt;Node6 -->
<g id="edge5" class="edge">
<title>Node3&#45;&gt;Node6</title>
<path fill="none" stroke="midnightblue" d="M221.77,-57.5C211.17,-56.28 200.56,-55.07 190.66,-53.93"/>
<polygon fill="midnightblue" stroke="midnightblue" points="221.58,-61 231.91,-58.67 222.37,-54.05 221.58,-61"/>
</g>
<!-- Node8 -->
<g id="node8" class="node">
<title>Node8</title>
<g id="a_node8"><a xlink:href="classLcdDotAnim.html#a7dc0b25c1a3729a5c6aa652fffcccb71" target="_top" xlink:title="Aktualisiert die Punktanimation, wird von loop() aufgerufen.">
<polygon fill="none" stroke="black" points="80,-0.5 80,-19.5 196,-19.5 196,-0.5 80,-0.5"/>
<text text-anchor="middle" x="138" y="-7.5" font-family="Helvetica,sans-Serif" font-size="10.00">LcdDotAnim::update</text>
</a>
</g>
</g>
<!-- Node3&#45;&gt;Node8 -->
<g id="edge7" class="edge">
<title>Node3&#45;&gt;Node8</title>
<path fill="none" stroke="midnightblue" d="M267.84,-54C246.83,-46.6 219.97,-37.19 196,-29 186.92,-25.9 177,-22.57 168.03,-19.58"/>
<polygon fill="midnightblue" stroke="midnightblue" points="266.74,-57.33 277.34,-57.36 269.08,-50.73 266.74,-57.33"/>
</g>
<!-- Node7 -->
<g id="node7" class="node">
<title>Node7</title>
<g id="a_node7"><a xlink:href="sketch_8ino.html#a4fc01d736fe50cf5b977f755b675f11d" target="_top" xlink:title="Wird am Anfang des Programms aufgerufen.">
<polygon fill="none" stroke="black" points="0,-38.5 0,-57.5 44,-57.5 44,-38.5 0,-38.5"/>
<text text-anchor="middle" x="22" y="-45.5" font-family="Helvetica,sans-Serif" font-size="10.00">setup</text>
</a>
</g>
</g>
<!-- Node6&#45;&gt;Node7 -->
<g id="edge6" class="edge">
<title>Node6&#45;&gt;Node7</title>
<path fill="none" stroke="midnightblue" d="M75.12,-48C64.02,-48 53.16,-48 44.26,-48"/>
<polygon fill="midnightblue" stroke="midnightblue" points="75.34,-51.5 85.34,-48 75.34,-44.5 75.34,-51.5"/>
</g>
</g>
</svg>
