<?xml version="1.0" encoding="UTF-8" standalone="no"?>
<!DOCTYPE svg PUBLIC "-//W3C//DTD SVG 1.1//EN"
 "http://www.w3.org/Graphics/SVG/1.1/DTD/svg11.dtd">
<!-- Generated by graphviz version 2.43.0 (0)
 -->
<!-- Title: AnimString::run Pages: 1 -->
<svg width="297pt" height="66pt"
 viewBox="0.00 0.00 297.00 66.00" xmlns="http://www.w3.org/2000/svg" xmlns:xlink="http://www.w3.org/1999/xlink">
<g id="graph0" class="graph" transform="scale(1 1) rotate(0) translate(4 62)">
<title>AnimString::run</title>
<!-- Node1 -->
<g id="node1" class="node">
<title>Node1</title>
<g id="a_node1"><a xlink:title="setzt Variabeln die für alle Animationen notwendig sind und ruft dann ihre eigenen init Funktionen au...">
<polygon fill="#bfbfbf" stroke="black" points="0,-19.5 0,-38.5 92,-38.5 92,-19.5 0,-19.5"/>
<text text-anchor="middle" x="46" y="-26.5" font-family="Helvetica,sans-Serif" font-size="10.00">AnimString::run</text>
</a>
</g>
</g>
<!-- Node2 -->
<g id="node2" class="node">
<title>Node2</title>
<g id="a_node2"><a xlink:href="classAnimString.html#a0dcc82eddb210af1a61ff12622a58913" target="_top" xlink:title=" ">
<polygon fill="none" stroke="black" points="162.5,-38.5 162.5,-57.5 254.5,-57.5 254.5,-38.5 162.5,-38.5"/>
<text text-anchor="middle" x="208.5" y="-45.5" font-family="Helvetica,sans-Serif" font-size="10.00">AnimString::init</text>
</a>
</g>
</g>
<!-- Node1&#45;&gt;Node2 -->
<g id="edge1" class="edge">
<title>Node1&#45;&gt;Node2</title>
<path fill="none" stroke="midnightblue" d="M92.14,-34.34C110.85,-36.56 132.73,-39.15 152.38,-41.48"/>
<polygon fill="midnightblue" stroke="midnightblue" points="152.08,-44.96 162.43,-42.66 152.91,-38.01 152.08,-44.96"/>
</g>
<!-- Node3 -->
<g id="node3" class="node">
<title>Node3</title>
<g id="a_node3"><a xlink:href="classAnimatableLcd.html#abd8ee2191732afcaccc26c8caf5dc108" target="_top" xlink:title="Setzt die aktuelle Animation.">
<polygon fill="none" stroke="black" points="128,-0.5 128,-19.5 289,-19.5 289,-0.5 128,-0.5"/>
<text text-anchor="middle" x="208.5" y="-7.5" font-family="Helvetica,sans-Serif" font-size="10.00">AnimatableLcd::setAnimation</text>
</a>
</g>
</g>
<!-- Node1&#45;&gt;Node3 -->
<g id="edge2" class="edge">
<title>Node1&#45;&gt;Node3</title>
<path fill="none" stroke="midnightblue" d="M92.14,-23.66C100.22,-22.7 108.9,-21.67 117.73,-20.63"/>
<polygon fill="midnightblue" stroke="midnightblue" points="118.22,-24.09 127.74,-19.44 117.4,-17.14 118.22,-24.09"/>
</g>
</g>
</svg>
