<?xml version="1.0" encoding="UTF-8" standalone="no"?>
<!DOCTYPE svg PUBLIC "-//W3C//DTD SVG 1.1//EN"
 "http://www.w3.org/Graphics/SVG/1.1/DTD/svg11.dtd">
<!-- Generated by graphviz version 2.43.0 (0)
 -->
<!-- Title: AnimatableLcd::printPretty Pages: 1 -->
<svg width="387pt" height="142pt"
 viewBox="0.00 0.00 387.00 142.00" xmlns="http://www.w3.org/2000/svg" xmlns:xlink="http://www.w3.org/1999/xlink">
<g id="graph0" class="graph" transform="scale(1 1) rotate(0) translate(4 138)">
<title>AnimatableLcd::printPretty</title>
<!-- Node1 -->
<g id="node1" class="node">
<title>Node1</title>
<g id="a_node1"><a xlink:title="gibt den Text &quot;schön&quot; aus, das heißt zentriert und mit automatischen Zeilenumbrüchen">
<polygon fill="#bfbfbf" stroke="black" points="232,-57.5 232,-76.5 379,-76.5 379,-57.5 232,-57.5"/>
<text text-anchor="middle" x="305.5" y="-64.5" font-family="Helvetica,sans-Serif" font-size="10.00">AnimatableLcd::printPretty</text>
</a>
</g>
</g>
<!-- Node2 -->
<g id="node2" class="node">
<title>Node2</title>
<g id="a_node2"><a xlink:href="classLcdDotAnim.html#afad9c4d44a8a5ef9063e941fd97714e7" target="_top" xlink:title="Initialisiert die Punktanimation.">
<polygon fill="none" stroke="black" points="89,-114.5 89,-133.5 187,-133.5 187,-114.5 89,-114.5"/>
<text text-anchor="middle" x="138" y="-121.5" font-family="Helvetica,sans-Serif" font-size="10.00">LcdDotAnim::init</text>
</a>
</g>
</g>
<!-- Node1&#45;&gt;Node2 -->
<g id="edge1" class="edge">
<title>Node1&#45;&gt;Node2</title>
<path fill="none" stroke="midnightblue" d="M267.84,-80C246.83,-87.4 219.97,-96.81 196,-105 186.92,-108.1 177,-111.43 168.03,-114.42"/>
<polygon fill="midnightblue" stroke="midnightblue" points="269.08,-83.27 277.34,-76.64 266.74,-76.67 269.08,-83.27"/>
</g>
<!-- Node3 -->
<g id="node3" class="node">
<title>Node3</title>
<g id="a_node3"><a xlink:href="structLcdString.html#aa391ea895fc2ec0a5dfe249226daa017" target="_top" xlink:title="gibt den String (LcdString::text) auf dem Lcd&#45;Display aus">
<polygon fill="none" stroke="black" points="96.5,-76.5 96.5,-95.5 179.5,-95.5 179.5,-76.5 96.5,-76.5"/>
<text text-anchor="middle" x="138" y="-83.5" font-family="Helvetica,sans-Serif" font-size="10.00">LcdString::run</text>
</a>
</g>
</g>
<!-- Node1&#45;&gt;Node3 -->
<g id="edge2" class="edge">
<title>Node1&#45;&gt;Node3</title>
<path fill="none" stroke="midnightblue" d="M221.8,-76.49C207.16,-78.17 192.53,-79.85 179.72,-81.33"/>
<polygon fill="midnightblue" stroke="midnightblue" points="222.37,-79.95 231.91,-75.33 221.58,-73 222.37,-79.95"/>
</g>
<!-- Node4 -->
<g id="node4" class="node">
<title>Node4</title>
<g id="a_node4"><a xlink:href="sketch_8ino.html#abbbe19f80bf8227bbfbb68d98a1937cc" target="_top" xlink:title="wird ausgeführt wenn der Stop&#45;Knopf gedrückt wird">
<polygon fill="none" stroke="black" points="85.5,-38.5 85.5,-57.5 190.5,-57.5 190.5,-38.5 85.5,-38.5"/>
<text text-anchor="middle" x="138" y="-45.5" font-family="Helvetica,sans-Serif" font-size="10.00">stopButtonClicked</text>
</a>
</g>
</g>
<!-- Node1&#45;&gt;Node4 -->
<g id="edge3" class="edge">
<title>Node1&#45;&gt;Node4</title>
<path fill="none" stroke="midnightblue" d="M221.77,-57.5C211.17,-56.28 200.56,-55.07 190.66,-53.93"/>
<polygon fill="midnightblue" stroke="midnightblue" points="221.58,-61 231.91,-58.67 222.37,-54.05 221.58,-61"/>
</g>
<!-- Node6 -->
<g id="node6" class="node">
<title>Node6</title>
<g id="a_node6"><a xlink:href="classLcdDotAnim.html#a7dc0b25c1a3729a5c6aa652fffcccb71" target="_top" xlink:title="Aktualisiert die Punktanimation, wird von loop() aufgerufen.">
<polygon fill="none" stroke="black" points="80,-0.5 80,-19.5 196,-19.5 196,-0.5 80,-0.5"/>
<text text-anchor="middle" x="138" y="-7.5" font-family="Helvetica,sans-Serif" font-size="10.00">LcdDotAnim::update</text>
</a>
</g>
</g>
<!-- Node1&#45;&gt;Node6 -->
<g id="edge5" class="edge">
<title>Node1&#45;&gt;Node6</title>
<path fill="none" stroke="midnightblue" d="M267.84,-54C246.83,-46.6 219.97,-37.19 196,-29 186.92,-25.9 177,-22.57 168.03,-19.58"/>
<polygon fill="midnightblue" stroke="midnightblue" points="266.74,-57.33 277.34,-57.36 269.08,-50.73 266.74,-57.33"/>
</g>
<!-- Node5 -->
<g id="node5" class="node">
<title>Node5</title>
<g id="a_node5"><a xlink:href="sketch_8ino.html#a4fc01d736fe50cf5b977f755b675f11d" target="_top" xlink:title="Wird am Anfang des Programms aufgerufen.">
<polygon fill="none" stroke="black" points="0,-38.5 0,-57.5 44,-57.5 44,-38.5 0,-38.5"/>
<text text-anchor="middle" x="22" y="-45.5" font-family="Helvetica,sans-Serif" font-size="10.00">setup</text>
</a>
</g>
</g>
<!-- Node4&#45;&gt;Node5 -->
<g id="edge4" class="edge">
<title>Node4&#45;&gt;Node5</title>
<path fill="none" stroke="midnightblue" d="M75.12,-48C64.02,-48 53.16,-48 44.26,-48"/>
<polygon fill="midnightblue" stroke="midnightblue" points="75.34,-51.5 85.34,-48 75.34,-44.5 75.34,-51.5"/>
</g>
</g>
</svg>
