<?xml version="1.0" encoding="UTF-8" standalone="no"?>
<!DOCTYPE svg PUBLIC "-//W3C//DTD SVG 1.1//EN"
 "http://www.w3.org/Graphics/SVG/1.1/DTD/svg11.dtd">
<!-- Generated by graphviz version 2.43.0 (0)
 -->
<!-- Title: LcdDotAnim Pages: 1 -->
<svg width="304pt" height="162pt"
 viewBox="0.00 0.00 304.00 162.00" xmlns="http://www.w3.org/2000/svg" xmlns:xlink="http://www.w3.org/1999/xlink">
<g id="graph0" class="graph" transform="scale(1 1) rotate(0) translate(4 158)">
<title>LcdDotAnim</title>
<!-- Node1 -->
<g id="node1" class="node">
<title>Node1</title>
<g id="a_node1"><a xlink:title="Die Klasse der Lcd Punktanimationen.">
<polygon fill="#bfbfbf" stroke="black" points="0,-67.5 0,-86.5 76,-86.5 76,-67.5 0,-67.5"/>
<text text-anchor="middle" x="38" y="-74.5" font-family="Helvetica,sans-Serif" font-size="10.00">LcdDotAnim</text>
</a>
</g>
</g>
<!-- Node2 -->
<g id="node2" class="node">
<title>Node2</title>
<g id="a_node2"><a xlink:href="classAnimString.html" target="_top" xlink:title="Die Klasse für animierbare LcdStrings.">
<polygon fill="none" stroke="black" points="103.5,-134.5 103.5,-153.5 174.5,-153.5 174.5,-134.5 103.5,-134.5"/>
<text text-anchor="middle" x="139" y="-141.5" font-family="Helvetica,sans-Serif" font-size="10.00">AnimString</text>
</a>
</g>
</g>
<!-- Node2&#45;&gt;Node1 -->
<g id="edge1" class="edge">
<title>Node2&#45;&gt;Node1</title>
<path fill="none" stroke="midnightblue" d="M116.89,-128.77C96.89,-115.9 68.11,-97.38 51.41,-86.63"/>
<polygon fill="midnightblue" stroke="midnightblue" points="115.08,-131.77 125.38,-134.23 118.86,-125.88 115.08,-131.77"/>
</g>
<!-- Node5 -->
<g id="node5" class="node">
<title>Node5</title>
<g id="a_node5"><a xlink:href="classAnimatableLcd.html" target="_top" xlink:title="Eigener Lcd, ermöglicht es Animationen auf dem Lcd Display anzuzeigen.">
<polygon fill="none" stroke="red" points="94.5,-67.5 94.5,-86.5 183.5,-86.5 183.5,-67.5 94.5,-67.5"/>
<text text-anchor="middle" x="139" y="-74.5" font-family="Helvetica,sans-Serif" font-size="10.00">AnimatableLcd</text>
</a>
</g>
</g>
<!-- Node2&#45;&gt;Node5 -->
<g id="edge5" class="edge">
<title>Node2&#45;&gt;Node5</title>
<path fill="none" stroke="#9a32cd" stroke-dasharray="5,2" d="M139,-124.04C139,-111.67 139,-96.12 139,-86.63"/>
<polygon fill="#9a32cd" stroke="#9a32cd" points="135.5,-124.23 139,-134.23 142.5,-124.23 135.5,-124.23"/>
<text text-anchor="middle" x="167.5" y="-108" font-family="Helvetica,sans-Serif" font-size="10.00"> animString</text>
</g>
<!-- Node3 -->
<g id="node3" class="node">
<title>Node3</title>
<g id="a_node3"><a xlink:href="structLcdString.html" target="_top" xlink:title="Ein String der auf dem AnimatableLcd angezeigt werden kann.">
<polygon fill="none" stroke="black" points="181,-0.5 181,-19.5 243,-19.5 243,-0.5 181,-0.5"/>
<text text-anchor="middle" x="212" y="-7.5" font-family="Helvetica,sans-Serif" font-size="10.00">LcdString</text>
</a>
</g>
</g>
<!-- Node3&#45;&gt;Node2 -->
<g id="edge2" class="edge">
<title>Node3&#45;&gt;Node2</title>
<path fill="none" stroke="midnightblue" d="M214.58,-29.64C216.67,-52.32 216.72,-90.71 198,-116 191.7,-124.51 182.07,-130.41 172.41,-134.47"/>
<polygon fill="midnightblue" stroke="midnightblue" points="218.05,-29.16 213.42,-19.63 211.09,-29.97 218.05,-29.16"/>
</g>
<!-- Node4 -->
<g id="node4" class="node">
<title>Node4</title>
<g id="a_node4"><a xlink:href="classCallable.html" target="_top" xlink:title="Ein Call der vom CallHandler aufgerufen werden kann.">
<polygon fill="none" stroke="black" points="240,-67.5 240,-86.5 296,-86.5 296,-67.5 240,-67.5"/>
<text text-anchor="middle" x="268" y="-74.5" font-family="Helvetica,sans-Serif" font-size="10.00">Callable</text>
</a>
</g>
</g>
<!-- Node4&#45;&gt;Node3 -->
<g id="edge3" class="edge">
<title>Node4&#45;&gt;Node3</title>
<path fill="none" stroke="midnightblue" d="M253.9,-59.63C242.95,-46.92 228.2,-29.8 219.43,-19.63"/>
<polygon fill="midnightblue" stroke="midnightblue" points="251.27,-61.94 260.45,-67.23 256.57,-57.37 251.27,-61.94"/>
</g>
<!-- Node5&#45;&gt;Node3 -->
<g id="edge4" class="edge">
<title>Node5&#45;&gt;Node3</title>
<path fill="none" stroke="#9a32cd" stroke-dasharray="5,2" d="M155.38,-60.49C162.82,-53.53 171.78,-45.27 180,-38 187.08,-31.74 195.22,-24.87 201.52,-19.63"/>
<polygon fill="#9a32cd" stroke="#9a32cd" points="152.9,-58.02 148.01,-67.43 157.69,-63.12 152.9,-58.02"/>
<text text-anchor="middle" x="189" y="-41" font-family="Helvetica,sans-Serif" font-size="10.00"> lcd</text>
</g>
</g>
</svg>
