<?xml version="1.0" encoding="UTF-8" standalone="no"?>
<!DOCTYPE svg PUBLIC "-//W3C//DTD SVG 1.1//EN"
 "http://www.w3.org/Graphics/SVG/1.1/DTD/svg11.dtd">
<!-- Generated by graphviz version 2.43.0 (0)
 -->
<!-- Title: AnimatableLcd::print Pages: 1 -->
<svg width="659pt" height="143pt"
 viewBox="0.00 0.00 659.00 142.56" xmlns="http://www.w3.org/2000/svg" xmlns:xlink="http://www.w3.org/1999/xlink">
<g id="graph0" class="graph" transform="scale(1 1) rotate(0) translate(4 138.56)">
<title>AnimatableLcd::print</title>
<!-- Node1 -->
<g id="node1" class="node">
<title>Node1</title>
<g id="a_node1"><a xlink:title="Eigene Lcd&#45;print funktion, die die Möglichkeit bietet eigene Characters in den Text einzufügen.">
<polygon fill="#bfbfbf" stroke="black" points="533,-76.5 533,-95.5 651,-95.5 651,-76.5 533,-76.5"/>
<text text-anchor="middle" x="592" y="-83.5" font-family="Helvetica,sans-Serif" font-size="10.00">AnimatableLcd::print</text>
</a>
</g>
</g>
<!-- Node2 -->
<g id="node2" class="node">
<title>Node2</title>
<g id="a_node2"><a xlink:href="classLcdLoadingAnim.html#a1dcb953ecdb84881d1c80769e7c3829c" target="_top" xlink:title="Initialisierung der Ladeanimation.">
<polygon fill="none" stroke="black" points="166,-114.5 166,-133.5 285,-133.5 285,-114.5 166,-114.5"/>
<text text-anchor="middle" x="225.5" y="-121.5" font-family="Helvetica,sans-Serif" font-size="10.00">LcdLoadingAnim::init</text>
</a>
</g>
</g>
<!-- Node1&#45;&gt;Node2 -->
<g id="edge1" class="edge">
<title>Node1&#45;&gt;Node2</title>
<path fill="none" stroke="midnightblue" d="M564.08,-100.12C545.73,-108.92 520.58,-119.41 497,-124 425.09,-137.99 340.37,-134.93 285.16,-130.4"/>
<polygon fill="midnightblue" stroke="midnightblue" points="565.85,-103.15 573.27,-95.58 562.75,-96.87 565.85,-103.15"/>
</g>
<!-- Node3 -->
<g id="node3" class="node">
<title>Node3</title>
<g id="a_node3"><a xlink:href="classAnimatableLcd.html#aca170e34fe99df76f7a1e4f4241878c1" target="_top" xlink:title="Überschreibt die standard print Funktion für String&amp;&amp;, das heißt der Text wird direkt als Argument ge...">
<polygon fill="none" stroke="black" points="357,-95.5 357,-114.5 475,-114.5 475,-95.5 357,-95.5"/>
<text text-anchor="middle" x="416" y="-102.5" font-family="Helvetica,sans-Serif" font-size="10.00">AnimatableLcd::print</text>
</a>
</g>
</g>
<!-- Node1&#45;&gt;Node3 -->
<g id="edge2" class="edge">
<title>Node1&#45;&gt;Node3</title>
<path fill="none" stroke="midnightblue" d="M522.46,-93.48C506.85,-95.19 490.41,-96.98 475.27,-98.64"/>
<polygon fill="midnightblue" stroke="midnightblue" points="523.02,-96.94 532.58,-92.38 522.26,-89.99 523.02,-96.94"/>
</g>
<!-- Node4 -->
<g id="node4" class="node">
<title>Node4</title>
<g id="a_node4"><a xlink:href="classAnimatableLcd.html#aaff767fb418dbc3e902dd4a1be3207a8" target="_top" xlink:title="Gibt einen String zentriert auf dem Lcd&#45;Display aus.">
<polygon fill="none" stroke="black" points="335,-57.5 335,-76.5 497,-76.5 497,-57.5 335,-57.5"/>
<text text-anchor="middle" x="416" y="-64.5" font-family="Helvetica,sans-Serif" font-size="10.00">AnimatableLcd::printCentered</text>
</a>
</g>
</g>
<!-- Node1&#45;&gt;Node4 -->
<g id="edge3" class="edge">
<title>Node1&#45;&gt;Node4</title>
<path fill="none" stroke="midnightblue" d="M522.57,-78.53C514.25,-77.62 505.69,-76.69 497.22,-75.76"/>
<polygon fill="midnightblue" stroke="midnightblue" points="522.26,-82.01 532.58,-79.62 523.02,-75.06 522.26,-82.01"/>
</g>
<!-- Node11 -->
<g id="node10" class="node">
<title>Node11</title>
<g id="a_node10"><a xlink:href="classLcdLoadingAnim.html#a939368d0d51f766b20a82176294fba70" target="_top" xlink:title="Aktualisiert die Ladeanimation, wird von loop() aufgerufen.">
<polygon fill="none" stroke="black" points="347.5,-19.5 347.5,-38.5 484.5,-38.5 484.5,-19.5 347.5,-19.5"/>
<text text-anchor="middle" x="416" y="-26.5" font-family="Helvetica,sans-Serif" font-size="10.00">LcdLoadingAnim::update</text>
</a>
</g>
</g>
<!-- Node1&#45;&gt;Node11 -->
<g id="edge10" class="edge">
<title>Node1&#45;&gt;Node11</title>
<path fill="none" stroke="midnightblue" d="M560.82,-72.44C542.59,-64.6 518.75,-54.94 497,-48 485.98,-44.49 473.93,-41.3 462.6,-38.57"/>
<polygon fill="midnightblue" stroke="midnightblue" points="559.49,-75.68 570.06,-76.47 562.29,-69.26 559.49,-75.68"/>
</g>
<!-- Node4&#45;&gt;Node2 -->
<g id="edge4" class="edge">
<title>Node4&#45;&gt;Node2</title>
<path fill="none" stroke="midnightblue" d="M361.33,-78.93C352.49,-81.13 343.46,-83.52 335,-86 306.08,-94.47 273.53,-106.17 251.69,-114.34"/>
<polygon fill="midnightblue" stroke="midnightblue" points="362.3,-82.3 371.19,-76.54 360.64,-75.5 362.3,-82.3"/>
</g>
<!-- Node5 -->
<g id="node5" class="node">
<title>Node5</title>
<g id="a_node5"><a xlink:href="classAnimatableLcd.html#ad5509573d45cc84cda93b125fdca749e" target="_top" xlink:title="gibt den Text &quot;schön&quot; aus, das heißt zentriert und mit automatischen Zeilenumbrüchen">
<polygon fill="none" stroke="black" points="152,-57.5 152,-76.5 299,-76.5 299,-57.5 152,-57.5"/>
<text text-anchor="middle" x="225.5" y="-64.5" font-family="Helvetica,sans-Serif" font-size="10.00">AnimatableLcd::printPretty</text>
</a>
</g>
</g>
<!-- Node4&#45;&gt;Node5 -->
<g id="edge5" class="edge">
<title>Node4&#45;&gt;Node5</title>
<path fill="none" stroke="midnightblue" d="M324.75,-67C316.18,-67 307.56,-67 299.18,-67"/>
<polygon fill="midnightblue" stroke="midnightblue" points="324.79,-70.5 334.79,-67 324.79,-63.5 324.79,-70.5"/>
</g>
<!-- Node6 -->
<g id="node6" class="node">
<title>Node6</title>
<g id="a_node6"><a xlink:href="classLcdDotAnim.html#afad9c4d44a8a5ef9063e941fd97714e7" target="_top" xlink:title="Initialisiert die Punktanimation.">
<polygon fill="none" stroke="black" points="9,-114.5 9,-133.5 107,-133.5 107,-114.5 9,-114.5"/>
<text text-anchor="middle" x="58" y="-121.5" font-family="Helvetica,sans-Serif" font-size="10.00">LcdDotAnim::init</text>
</a>
</g>
</g>
<!-- Node5&#45;&gt;Node6 -->
<g id="edge6" class="edge">
<title>Node5&#45;&gt;Node6</title>
<path fill="none" stroke="midnightblue" d="M187.84,-80C166.83,-87.4 139.97,-96.81 116,-105 106.92,-108.1 97,-111.43 88.03,-114.42"/>
<polygon fill="midnightblue" stroke="midnightblue" points="189.08,-83.27 197.34,-76.64 186.74,-76.67 189.08,-83.27"/>
</g>
<!-- Node7 -->
<g id="node7" class="node">
<title>Node7</title>
<g id="a_node7"><a xlink:href="structLcdString.html#aa391ea895fc2ec0a5dfe249226daa017" target="_top" xlink:title="gibt den String (LcdString::text) auf dem Lcd&#45;Display aus">
<polygon fill="none" stroke="black" points="16.5,-76.5 16.5,-95.5 99.5,-95.5 99.5,-76.5 16.5,-76.5"/>
<text text-anchor="middle" x="58" y="-83.5" font-family="Helvetica,sans-Serif" font-size="10.00">LcdString::run</text>
</a>
</g>
</g>
<!-- Node5&#45;&gt;Node7 -->
<g id="edge7" class="edge">
<title>Node5&#45;&gt;Node7</title>
<path fill="none" stroke="midnightblue" d="M141.8,-76.49C127.16,-78.17 112.53,-79.85 99.72,-81.33"/>
<polygon fill="midnightblue" stroke="midnightblue" points="142.37,-79.95 151.91,-75.33 141.58,-73 142.37,-79.95"/>
</g>
<!-- Node8 -->
<g id="node8" class="node">
<title>Node8</title>
<g id="a_node8"><a xlink:href="sketch_8ino.html#abbbe19f80bf8227bbfbb68d98a1937cc" target="_top" xlink:title="wird ausgeführt wenn der Stop&#45;Knopf gedrückt wird">
<polygon fill="none" stroke="red" points="5.5,-38.5 5.5,-57.5 110.5,-57.5 110.5,-38.5 5.5,-38.5"/>
<text text-anchor="middle" x="58" y="-45.5" font-family="Helvetica,sans-Serif" font-size="10.00">stopButtonClicked</text>
</a>
</g>
</g>
<!-- Node5&#45;&gt;Node8 -->
<g id="edge8" class="edge">
<title>Node5&#45;&gt;Node8</title>
<path fill="none" stroke="midnightblue" d="M141.77,-57.5C131.17,-56.28 120.56,-55.07 110.66,-53.93"/>
<polygon fill="midnightblue" stroke="midnightblue" points="141.58,-61 151.91,-58.67 142.37,-54.05 141.58,-61"/>
</g>
<!-- Node10 -->
<g id="node9" class="node">
<title>Node10</title>
<g id="a_node9"><a xlink:href="classLcdDotAnim.html#a7dc0b25c1a3729a5c6aa652fffcccb71" target="_top" xlink:title="Aktualisiert die Punktanimation, wird von loop() aufgerufen.">
<polygon fill="none" stroke="black" points="0,-0.5 0,-19.5 116,-19.5 116,-0.5 0,-0.5"/>
<text text-anchor="middle" x="58" y="-7.5" font-family="Helvetica,sans-Serif" font-size="10.00">LcdDotAnim::update</text>
</a>
</g>
</g>
<!-- Node5&#45;&gt;Node10 -->
<g id="edge9" class="edge">
<title>Node5&#45;&gt;Node10</title>
<path fill="none" stroke="midnightblue" d="M187.84,-54C166.83,-46.6 139.97,-37.19 116,-29 106.92,-25.9 97,-22.57 88.03,-19.58"/>
<polygon fill="midnightblue" stroke="midnightblue" points="186.74,-57.33 197.34,-57.36 189.08,-50.73 186.74,-57.33"/>
</g>
</g>
</svg>
