<?xml version="1.0" encoding="UTF-8" standalone="no"?>
<!DOCTYPE svg PUBLIC "-//W3C//DTD SVG 1.1//EN"
 "http://www.w3.org/Graphics/SVG/1.1/DTD/svg11.dtd">
<!-- Generated by graphviz version 2.43.0 (0)
 -->
<!-- Title: Callable::run Pages: 1 -->
<svg width="462pt" height="104pt"
 viewBox="0.00 0.00 462.00 104.00" xmlns="http://www.w3.org/2000/svg" xmlns:xlink="http://www.w3.org/1999/xlink">
<g id="graph0" class="graph" transform="scale(1 1) rotate(0) translate(4 100)">
<title>Callable::run</title>
<!-- Node1 -->
<g id="node1" class="node">
<title>Node1</title>
<g id="a_node1"><a xlink:title=" ">
<polygon fill="#bfbfbf" stroke="black" points="376,-57.5 376,-76.5 454,-76.5 454,-57.5 376,-57.5"/>
<text text-anchor="middle" x="415" y="-64.5" font-family="Helvetica,sans-Serif" font-size="10.00">Callable::run</text>
</a>
</g>
</g>
<!-- Node2 -->
<g id="node2" class="node">
<title>Node2</title>
<g id="a_node2"><a xlink:href="classCallHandler.html#afc5654ccaa266f3a81f8230afdb1c2a0" target="_top" xlink:title="Setzt die neuen Calls, die ausgeführt werden sollen.">
<polygon fill="none" stroke="black" points="221,-38.5 221,-57.5 340,-57.5 340,-38.5 221,-38.5"/>
<text text-anchor="middle" x="280.5" y="-45.5" font-family="Helvetica,sans-Serif" font-size="10.00">CallHandler::setCalls</text>
</a>
</g>
</g>
<!-- Node1&#45;&gt;Node2 -->
<g id="edge1" class="edge">
<title>Node1&#45;&gt;Node2</title>
<path fill="none" stroke="midnightblue" d="M365.58,-60.06C357.42,-58.89 348.86,-57.66 340.46,-56.45"/>
<polygon fill="midnightblue" stroke="midnightblue" points="365.28,-63.55 375.68,-61.5 366.27,-56.62 365.28,-63.55"/>
</g>
<!-- Node6 -->
<g id="node6" class="node">
<title>Node6</title>
<g id="a_node6"><a xlink:href="classCallHandler.html#a57ff2e7ae3955d5ed4806dcc6469dcf7" target="_top" xlink:title="Wechselt zum nächsten Call, wenn der Aktuelle vorbei ist und aktualisiert den jetzigen (z....">
<polygon fill="none" stroke="black" points="224,-76.5 224,-95.5 337,-95.5 337,-76.5 224,-76.5"/>
<text text-anchor="middle" x="280.5" y="-83.5" font-family="Helvetica,sans-Serif" font-size="10.00">CallHandler::update</text>
</a>
</g>
</g>
<!-- Node1&#45;&gt;Node6 -->
<g id="edge6" class="edge">
<title>Node1&#45;&gt;Node6</title>
<path fill="none" stroke="midnightblue" d="M365.6,-73.94C356.46,-75.25 346.83,-76.63 337.48,-77.97"/>
<polygon fill="midnightblue" stroke="midnightblue" points="366.27,-77.38 375.68,-72.5 365.28,-70.45 366.27,-77.38"/>
</g>
<!-- Node3 -->
<g id="node3" class="node">
<title>Node3</title>
<g id="a_node3"><a xlink:href="sketch_8ino.html#afe461d27b9c48d5921c00d521181f12f" target="_top" xlink:title="Wird immer wieder ausgeführt.">
<polygon fill="none" stroke="black" points="113.5,-76.5 113.5,-95.5 151.5,-95.5 151.5,-76.5 113.5,-76.5"/>
<text text-anchor="middle" x="132.5" y="-83.5" font-family="Helvetica,sans-Serif" font-size="10.00">loop</text>
</a>
</g>
</g>
<!-- Node2&#45;&gt;Node3 -->
<g id="edge2" class="edge">
<title>Node2&#45;&gt;Node3</title>
<path fill="none" stroke="midnightblue" d="M232.79,-60.16C205.2,-67.34 171.83,-76.02 151.66,-81.27"/>
<polygon fill="midnightblue" stroke="midnightblue" points="233.86,-63.5 242.66,-57.59 232.1,-56.72 233.86,-63.5"/>
</g>
<!-- Node4 -->
<g id="node4" class="node">
<title>Node4</title>
<g id="a_node4"><a xlink:href="sketch_8ino.html#a4fc01d736fe50cf5b977f755b675f11d" target="_top" xlink:title="Wird am Anfang des Programms aufgerufen.">
<polygon fill="none" stroke="black" points="0,-19.5 0,-38.5 44,-38.5 44,-19.5 0,-19.5"/>
<text text-anchor="middle" x="22" y="-26.5" font-family="Helvetica,sans-Serif" font-size="10.00">setup</text>
</a>
</g>
</g>
<!-- Node2&#45;&gt;Node4 -->
<g id="edge3" class="edge">
<title>Node2&#45;&gt;Node4</title>
<path fill="none" stroke="midnightblue" d="M210.82,-42.91C155.17,-38.79 80.27,-33.24 44.19,-30.57"/>
<polygon fill="midnightblue" stroke="midnightblue" points="210.74,-46.42 220.98,-43.66 211.26,-39.44 210.74,-46.42"/>
</g>
<!-- Node5 -->
<g id="node5" class="node">
<title>Node5</title>
<g id="a_node5"><a xlink:href="sketch_8ino.html#abbbe19f80bf8227bbfbb68d98a1937cc" target="_top" xlink:title="wird ausgeführt wenn der Stop&#45;Knopf gedrückt wird">
<polygon fill="none" stroke="black" points="80,-0.5 80,-19.5 185,-19.5 185,-0.5 80,-0.5"/>
<text text-anchor="middle" x="132.5" y="-7.5" font-family="Helvetica,sans-Serif" font-size="10.00">stopButtonClicked</text>
</a>
</g>
</g>
<!-- Node2&#45;&gt;Node5 -->
<g id="edge4" class="edge">
<title>Node2&#45;&gt;Node5</title>
<path fill="none" stroke="midnightblue" d="M232.96,-35.89C212.63,-30.6 189.13,-24.48 170.08,-19.52"/>
<polygon fill="midnightblue" stroke="midnightblue" points="232.1,-39.28 242.66,-38.41 233.86,-32.5 232.1,-39.28"/>
</g>
<!-- Node5&#45;&gt;Node4 -->
<g id="edge5" class="edge">
<title>Node5&#45;&gt;Node4</title>
<path fill="none" stroke="midnightblue" d="M69.71,-20.82C60.49,-22.44 51.55,-24 44.02,-25.32"/>
<polygon fill="midnightblue" stroke="midnightblue" points="70.55,-24.23 79.79,-19.05 69.34,-17.33 70.55,-24.23"/>
</g>
<!-- Node6&#45;&gt;Node3 -->
<g id="edge7" class="edge">
<title>Node6&#45;&gt;Node3</title>
<path fill="none" stroke="midnightblue" d="M213.86,-86C191.05,-86 167.27,-86 151.56,-86"/>
<polygon fill="midnightblue" stroke="midnightblue" points="213.89,-89.5 223.89,-86 213.89,-82.5 213.89,-89.5"/>
</g>
</g>
</svg>
