<?xml version="1.0" encoding="UTF-8" standalone="no"?>
<!DOCTYPE svg PUBLIC "-//W3C//DTD SVG 1.1//EN"
 "http://www.w3.org/Graphics/SVG/1.1/DTD/svg11.dtd">
<!-- Generated by graphviz version 2.43.0 (0)
 -->
<!-- Title: legBallAb Pages: 1 -->
<svg width="414pt" height="142pt"
 viewBox="0.00 0.00 414.00 142.00" xmlns="http://www.w3.org/2000/svg" xmlns:xlink="http://www.w3.org/1999/xlink">
<g id="graph0" class="graph" transform="scale(1 1) rotate(0) translate(4 138)">
<title>legBallAb</title>
<!-- Node1 -->
<g id="node1" class="node">
<title>Node1</title>
<g id="a_node1"><a xlink:title="Bewegt einen Ball zum Loch, legt ihn Ab und geht zurück.">
<polygon fill="#bfbfbf" stroke="black" points="0,-57.5 0,-76.5 63,-76.5 63,-57.5 0,-57.5"/>
<text text-anchor="middle" x="31.5" y="-64.5" font-family="Helvetica,sans-Serif" font-size="10.00">legBallAb</text>
</a>
</g>
</g>
<!-- Node2 -->
<g id="node2" class="node">
<title>Node2</title>
<g id="a_node2"><a xlink:href="classCallHandler.html#a49ab239f771b84300df21bd426788c3e" target="_top" xlink:title="setzt den Speicherplatz der von den Calls besetzt wurde frei">
<polygon fill="none" stroke="black" points="99,-114.5 99,-133.5 233,-133.5 233,-114.5 99,-114.5"/>
<text text-anchor="middle" x="166" y="-121.5" font-family="Helvetica,sans-Serif" font-size="10.00">CallHandler::deleteCalls</text>
</a>
</g>
</g>
<!-- Node1&#45;&gt;Node2 -->
<g id="edge1" class="edge">
<title>Node1&#45;&gt;Node2</title>
<path fill="none" stroke="midnightblue" d="M47.03,-76.66C60.17,-85.06 80.26,-97.08 99,-105 104.49,-107.32 110.35,-109.46 116.23,-111.39"/>
<polygon fill="midnightblue" stroke="midnightblue" points="115.48,-114.83 126.07,-114.47 117.57,-108.15 115.48,-114.83"/>
</g>
<!-- Node3 -->
<g id="node3" class="node">
<title>Node3</title>
<g id="a_node3"><a xlink:href="sketch_8ino.html#a39ddda5c3402f1f7b2c9ccad07e18791" target="_top" xlink:title="Hilfs Funktion, Methoden können nicht als Funktionsparameter benutzt werden.">
<polygon fill="none" stroke="black" points="127.5,-76.5 127.5,-95.5 204.5,-95.5 204.5,-76.5 127.5,-76.5"/>
<text text-anchor="middle" x="166" y="-83.5" font-family="Helvetica,sans-Serif" font-size="10.00">servoIsDone</text>
</a>
</g>
</g>
<!-- Node1&#45;&gt;Node3 -->
<g id="edge2" class="edge">
<title>Node1&#45;&gt;Node3</title>
<path fill="none" stroke="midnightblue" d="M63.23,-71.41C79.28,-73.71 99.28,-76.58 117.29,-79.16"/>
<polygon fill="midnightblue" stroke="midnightblue" points="116.95,-82.64 127.34,-80.6 117.94,-75.72 116.95,-82.64"/>
</g>
<!-- Node5 -->
<g id="node5" class="node">
<title>Node5</title>
<g id="a_node5"><a xlink:href="classCallHandler.html#afc5654ccaa266f3a81f8230afdb1c2a0" target="_top" xlink:title="Setzt die neuen Calls, die ausgeführt werden sollen.">
<polygon fill="none" stroke="black" points="106.5,-38.5 106.5,-57.5 225.5,-57.5 225.5,-38.5 106.5,-38.5"/>
<text text-anchor="middle" x="166" y="-45.5" font-family="Helvetica,sans-Serif" font-size="10.00">CallHandler::setCalls</text>
</a>
</g>
</g>
<!-- Node1&#45;&gt;Node5 -->
<g id="edge4" class="edge">
<title>Node1&#45;&gt;Node5</title>
<path fill="none" stroke="midnightblue" d="M63.23,-62.59C73.16,-61.17 84.61,-59.53 96.16,-57.87"/>
<polygon fill="midnightblue" stroke="midnightblue" points="96.9,-61.3 106.3,-56.42 95.91,-54.37 96.9,-61.3"/>
</g>
<!-- Node7 -->
<g id="node7" class="node">
<title>Node7</title>
<g id="a_node7"><a xlink:href="classCustomServo.html#a9d67b7154c659f1bf60a8464115c1e94" target="_top" xlink:title="Bewegt den Servo mit einer vorher spezifizierten Geschwindigkeit.">
<polygon fill="none" stroke="black" points="109.5,-0.5 109.5,-19.5 222.5,-19.5 222.5,-0.5 109.5,-0.5"/>
<text text-anchor="middle" x="166" y="-7.5" font-family="Helvetica,sans-Serif" font-size="10.00">CustomServo::write</text>
</a>
</g>
</g>
<!-- Node1&#45;&gt;Node7 -->
<g id="edge6" class="edge">
<title>Node1&#45;&gt;Node7</title>
<path fill="none" stroke="midnightblue" d="M47.03,-57.34C60.17,-48.94 80.26,-36.92 99,-29 104.49,-26.68 110.35,-24.54 116.23,-22.61"/>
<polygon fill="midnightblue" stroke="midnightblue" points="117.57,-25.85 126.07,-19.53 115.48,-19.17 117.57,-25.85"/>
</g>
<!-- Node4 -->
<g id="node4" class="node">
<title>Node4</title>
<g id="a_node4"><a xlink:href="classCustomServo.html#ac247ddd89cf27db323522746e5afa922" target="_top" xlink:title="Gibt an, ob der Servo angekommen ist.">
<polygon fill="none" stroke="black" points="276.5,-76.5 276.5,-95.5 398.5,-95.5 398.5,-76.5 276.5,-76.5"/>
<text text-anchor="middle" x="337.5" y="-83.5" font-family="Helvetica,sans-Serif" font-size="10.00">CustomServo::isDone</text>
</a>
</g>
</g>
<!-- Node3&#45;&gt;Node4 -->
<g id="edge3" class="edge">
<title>Node3&#45;&gt;Node4</title>
<path fill="none" stroke="midnightblue" d="M204.62,-86C222.72,-86 245.03,-86 266.12,-86"/>
<polygon fill="midnightblue" stroke="midnightblue" points="266.35,-89.5 276.35,-86 266.35,-82.5 266.35,-89.5"/>
</g>
<!-- Node6 -->
<g id="node6" class="node">
<title>Node6</title>
<g id="a_node6"><a xlink:href="classCallable.html#a0e146c329fbdf8720a9541f60fe910e9" target="_top" xlink:title=" ">
<polygon fill="none" stroke="black" points="298.5,-38.5 298.5,-57.5 376.5,-57.5 376.5,-38.5 298.5,-38.5"/>
<text text-anchor="middle" x="337.5" y="-45.5" font-family="Helvetica,sans-Serif" font-size="10.00">Callable::run</text>
</a>
</g>
</g>
<!-- Node5&#45;&gt;Node6 -->
<g id="edge5" class="edge">
<title>Node5&#45;&gt;Node6</title>
<path fill="none" stroke="midnightblue" d="M225.81,-48C246.23,-48 268.88,-48 288.34,-48"/>
<polygon fill="midnightblue" stroke="midnightblue" points="288.5,-51.5 298.5,-48 288.5,-44.5 288.5,-51.5"/>
</g>
<!-- Node8 -->
<g id="node8" class="node">
<title>Node8</title>
<g id="a_node8"><a xlink:href="classCustomServo.html#a9ddb7875f2c036d6c4a06c4416e68fb2" target="_top" xlink:title="Setzt Variabeln, die benötigt werden um den Servo zu bewegen.">
<polygon fill="none" stroke="black" points="269,-0.5 269,-19.5 406,-19.5 406,-0.5 269,-0.5"/>
<text text-anchor="middle" x="337.5" y="-7.5" font-family="Helvetica,sans-Serif" font-size="10.00">CustomServo::startMove</text>
</a>
</g>
</g>
<!-- Node7&#45;&gt;Node8 -->
<g id="edge7" class="edge">
<title>Node7&#45;&gt;Node8</title>
<path fill="none" stroke="midnightblue" d="M222.5,-10C234.04,-10 246.41,-10 258.58,-10"/>
<polygon fill="midnightblue" stroke="midnightblue" points="258.74,-13.5 268.74,-10 258.74,-6.5 258.74,-13.5"/>
</g>
</g>
</svg>
