<?xml version="1.0" encoding="UTF-8" standalone="no"?>
<!DOCTYPE svg PUBLIC "-//W3C//DTD SVG 1.1//EN"
 "http://www.w3.org/Graphics/SVG/1.1/DTD/svg11.dtd">
<!-- Generated by graphviz version 2.43.0 (0)
 -->
<!-- Title: stopButtonClicked Pages: 1 -->
<svg width="397pt" height="142pt"
 viewBox="0.00 0.00 397.00 142.00" xmlns="http://www.w3.org/2000/svg" xmlns:xlink="http://www.w3.org/1999/xlink">
<g id="graph0" class="graph" transform="scale(1 1) rotate(0) translate(4 138)">
<title>stopButtonClicked</title>
<!-- Node1 -->
<g id="node1" class="node">
<title>Node1</title>
<g id="a_node1"><a xlink:title="wird ausgef端hrt wenn der Stop&#45;Knopf gedr端ckt wird">
<polygon fill="#bfbfbf" stroke="black" points="0,-57.5 0,-76.5 105,-76.5 105,-57.5 0,-57.5"/>
<text text-anchor="middle" x="52.5" y="-64.5" font-family="Helvetica,sans-Serif" font-size="10.00">stopButtonClicked</text>
</a>
</g>
</g>
<!-- Node2 -->
<g id="node2" class="node">
<title>Node2</title>
<g id="a_node2"><a xlink:href="classCallHandler.html#a49ab239f771b84300df21bd426788c3e" target="_top" xlink:title="setzt den Speicherplatz der von den Calls besetzt wurde mithilfe von delete frei">
<polygon fill="none" stroke="black" points="141,-114.5 141,-133.5 275,-133.5 275,-114.5 141,-114.5"/>
<text text-anchor="middle" x="208" y="-121.5" font-family="Helvetica,sans-Serif" font-size="10.00">CallHandler::deleteCalls</text>
</a>
</g>
</g>
<!-- Node1&#45;&gt;Node2 -->
<g id="edge1" class="edge">
<title>Node1&#45;&gt;Node2</title>
<path fill="none" stroke="midnightblue" d="M73.36,-76.5C90.9,-84.69 117.31,-96.49 141,-105 147.41,-107.3 154.24,-109.52 160.99,-111.59"/>
<polygon fill="midnightblue" stroke="midnightblue" points="160.18,-115 170.76,-114.48 162.17,-108.28 160.18,-115"/>
</g>
<!-- Node3 -->
<g id="node3" class="node">
<title>Node3</title>
<g id="a_node3"><a xlink:href="classCallHandler.html#afc5654ccaa266f3a81f8230afdb1c2a0" target="_top" xlink:title="Setzt die neuen Calls, die ausgef端hrt werden sollen.">
<polygon fill="none" stroke="black" points="148.5,-76.5 148.5,-95.5 267.5,-95.5 267.5,-76.5 148.5,-76.5"/>
<text text-anchor="middle" x="208" y="-83.5" font-family="Helvetica,sans-Serif" font-size="10.00">CallHandler::setCalls</text>
</a>
</g>
</g>
<!-- Node1&#45;&gt;Node3 -->
<g id="edge2" class="edge">
<title>Node1&#45;&gt;Node3</title>
<path fill="none" stroke="midnightblue" d="M105.04,-73.38C115.71,-74.7 127.11,-76.11 138.28,-77.49"/>
<polygon fill="midnightblue" stroke="midnightblue" points="138.09,-81 148.45,-78.75 138.95,-74.05 138.09,-81"/>
</g>
<!-- Node5 -->
<g id="node5" class="node">
<title>Node5</title>
<g id="a_node5"><a xlink:href="sketch_8ino.html#a902e3350d6dfe8c210f24b31c7b284d8" target="_top" xlink:title="Setzt die Farbe der RGB&#45;Led.">
<polygon fill="none" stroke="black" points="171,-38.5 171,-57.5 245,-57.5 245,-38.5 171,-38.5"/>
<text text-anchor="middle" x="208" y="-45.5" font-family="Helvetica,sans-Serif" font-size="10.00">setLedColor</text>
</a>
</g>
</g>
<!-- Node1&#45;&gt;Node5 -->
<g id="edge4" class="edge">
<title>Node1&#45;&gt;Node5</title>
<path fill="none" stroke="midnightblue" d="M105.04,-60.62C123.1,-58.39 143.25,-55.89 160.84,-53.71"/>
<polygon fill="midnightblue" stroke="midnightblue" points="161.37,-57.18 170.86,-52.47 160.51,-50.23 161.37,-57.18"/>
</g>
<!-- Node6 -->
<g id="node6" class="node">
<title>Node6</title>
<g id="a_node6"><a xlink:href="classCustomServo.html#a2504ffc997018dad9f3811b18b16c672" target="_top" xlink:title="Stoppt den Servo.">
<polygon fill="none" stroke="black" points="153.5,-0.5 153.5,-19.5 262.5,-19.5 262.5,-0.5 153.5,-0.5"/>
<text text-anchor="middle" x="208" y="-7.5" font-family="Helvetica,sans-Serif" font-size="10.00">CustomServo::stop</text>
</a>
</g>
</g>
<!-- Node1&#45;&gt;Node6 -->
<g id="edge5" class="edge">
<title>Node1&#45;&gt;Node6</title>
<path fill="none" stroke="midnightblue" d="M73.36,-57.5C90.9,-49.31 117.31,-37.51 141,-29 147.41,-26.7 154.24,-24.48 160.99,-22.41"/>
<polygon fill="midnightblue" stroke="midnightblue" points="162.17,-25.72 170.76,-19.52 160.18,-19 162.17,-25.72"/>
</g>
<!-- Node4 -->
<g id="node4" class="node">
<title>Node4</title>
<g id="a_node4"><a xlink:href="structCallable.html#a0e146c329fbdf8720a9541f60fe910e9" target="_top" xlink:title="Wird ausgef端hrt wenn der Call an der Reihe ist.">
<polygon fill="none" stroke="black" points="311,-76.5 311,-95.5 389,-95.5 389,-76.5 311,-76.5"/>
<text text-anchor="middle" x="350" y="-83.5" font-family="Helvetica,sans-Serif" font-size="10.00">Callable::run</text>
</a>
</g>
</g>
<!-- Node3&#45;&gt;Node4 -->
<g id="edge3" class="edge">
<title>Node3&#45;&gt;Node4</title>
<path fill="none" stroke="midnightblue" d="M267.56,-86C278.46,-86 289.75,-86 300.31,-86"/>
<polygon fill="midnightblue" stroke="midnightblue" points="300.6,-89.5 310.6,-86 300.6,-82.5 300.6,-89.5"/>
</g>
</g>
</svg>
