<?xml version="1.0" encoding="UTF-8" standalone="no"?>
<!DOCTYPE svg PUBLIC "-//W3C//DTD SVG 1.1//EN"
 "http://www.w3.org/Graphics/SVG/1.1/DTD/svg11.dtd">
<!-- Generated by graphviz version 2.43.0 (0)
 -->
<!-- Title: sketch.ino Pages: 1 -->
<svg width="376pt" height="196pt"
 viewBox="0.00 0.00 375.71 196.00" xmlns="http://www.w3.org/2000/svg" xmlns:xlink="http://www.w3.org/1999/xlink">
<g id="graph0" class="graph" transform="scale(1 1) rotate(0) translate(4 192)">
<title>sketch.ino</title>
<!-- Node1 -->
<g id="node1" class="node">
<title>Node1</title>
<g id="a_node1"><a xlink:title="Hauptdatei.">
<polygon fill="#bfbfbf" stroke="black" points="127.5,-168.5 127.5,-187.5 193.5,-187.5 193.5,-168.5 127.5,-168.5"/>
<text text-anchor="middle" x="160.5" y="-175.5" font-family="Helvetica,sans-Serif" font-size="10.00">sketch.ino</text>
</a>
</g>
</g>
<!-- Node2 -->
<g id="node2" class="node">
<title>Node2</title>
<g id="a_node2"><a xlink:href="customServo_8h.html" target="_top" xlink:title="Header Datei der CustomServo Klasse.">
<polygon fill="none" stroke="black" points="2,-112.5 2,-131.5 91,-131.5 91,-112.5 2,-112.5"/>
<text text-anchor="middle" x="46.5" y="-119.5" font-family="Helvetica,sans-Serif" font-size="10.00">customServo.h</text>
</a>
</g>
</g>
<!-- Node1&#45;&gt;Node2 -->
<g id="edge1" class="edge">
<title>Node1&#45;&gt;Node2</title>
<path fill="none" stroke="midnightblue" d="M142.44,-168.44C123.93,-159.68 94.92,-145.94 73.64,-135.86"/>
<polygon fill="midnightblue" stroke="midnightblue" points="75.01,-132.63 64.48,-131.52 72.02,-138.96 75.01,-132.63"/>
</g>
<!-- Node4 -->
<g id="node4" class="node">
<title>Node4</title>
<g id="a_node4"><a xlink:href="header_8h.html" target="_top" xlink:title="Definiert variablen&#45;types die 端berall im Programm benutzt werden.">
<polygon fill="none" stroke="black" points="188,-0.5 188,-19.5 247,-19.5 247,-0.5 188,-0.5"/>
<text text-anchor="middle" x="217.5" y="-7.5" font-family="Helvetica,sans-Serif" font-size="10.00">header.h</text>
</a>
</g>
</g>
<!-- Node1&#45;&gt;Node4 -->
<g id="edge12" class="edge">
<title>Node1&#45;&gt;Node4</title>
<path fill="none" stroke="midnightblue" d="M155.26,-168.41C143.32,-147.6 116.72,-93.47 138.5,-56 147.24,-40.97 163.08,-30.54 178.29,-23.54"/>
<polygon fill="midnightblue" stroke="midnightblue" points="179.76,-26.72 187.62,-19.61 177.04,-20.27 179.76,-26.72"/>
</g>
<!-- Node5 -->
<g id="node5" class="node">
<title>Node5</title>
<g id="a_node5"><a xlink:href="animLcd_8h.html" target="_top" xlink:title="Header&#45;Datei f端r den animierbaren lcd (AnimatableLcd)">
<polygon fill="none" stroke="black" points="179,-112.5 179,-131.5 246,-131.5 246,-112.5 179,-112.5"/>
<text text-anchor="middle" x="212.5" y="-119.5" font-family="Helvetica,sans-Serif" font-size="10.00">animLcd.h</text>
</a>
</g>
</g>
<!-- Node1&#45;&gt;Node5 -->
<g id="edge4" class="edge">
<title>Node1&#45;&gt;Node5</title>
<path fill="none" stroke="midnightblue" d="M169.09,-168.08C176.66,-160.22 187.88,-148.57 197.01,-139.08"/>
<polygon fill="midnightblue" stroke="midnightblue" points="199.66,-141.38 204.07,-131.75 194.62,-136.53 199.66,-141.38"/>
</g>
<!-- Node8 -->
<g id="node8" class="node">
<title>Node8</title>
<g id="a_node8"><a xlink:href="callHandler_8h.html" target="_top" xlink:title="header datei f端r den CallHandler">
<polygon fill="none" stroke="black" points="275.5,-112.5 275.5,-131.5 355.5,-131.5 355.5,-112.5 275.5,-112.5"/>
<text text-anchor="middle" x="315.5" y="-119.5" font-family="Helvetica,sans-Serif" font-size="10.00">callHandler.h</text>
</a>
</g>
</g>
<!-- Node1&#45;&gt;Node8 -->
<g id="edge9" class="edge">
<title>Node1&#45;&gt;Node8</title>
<path fill="none" stroke="midnightblue" d="M185.06,-168.44C211.02,-159.4 252.17,-145.06 281.3,-134.92"/>
<polygon fill="midnightblue" stroke="midnightblue" points="282.76,-138.11 291.05,-131.52 280.46,-131.5 282.76,-138.11"/>
</g>
<!-- Node3 -->
<g id="node3" class="node">
<title>Node3</title>
<g id="a_node3"><a xlink:title=" ">
<polygon fill="none" stroke="#bfbfbf" points="0,-56.5 0,-75.5 53,-75.5 53,-56.5 0,-56.5"/>
<text text-anchor="middle" x="26.5" y="-63.5" font-family="Helvetica,sans-Serif" font-size="10.00">Servo.h</text>
</a>
</g>
</g>
<!-- Node2&#45;&gt;Node3 -->
<g id="edge2" class="edge">
<title>Node2&#45;&gt;Node3</title>
<path fill="none" stroke="midnightblue" d="M43.2,-112.08C40.52,-104.85 36.65,-94.41 33.31,-85.4"/>
<polygon fill="midnightblue" stroke="midnightblue" points="36.5,-83.91 29.74,-75.75 29.93,-86.34 36.5,-83.91"/>
</g>
<!-- Node2&#45;&gt;Node4 -->
<g id="edge3" class="edge">
<title>Node2&#45;&gt;Node4</title>
<path fill="none" stroke="midnightblue" d="M52.41,-112.27C62.07,-98.59 82.48,-72.02 105.5,-56 127.53,-40.67 155.54,-29.42 178.04,-22"/>
<polygon fill="midnightblue" stroke="midnightblue" points="179.16,-25.32 187.63,-18.96 177.04,-18.65 179.16,-25.32"/>
</g>
<!-- Node6 -->
<g id="node6" class="node">
<title>Node6</title>
<g id="a_node6"><a xlink:title=" ">
<polygon fill="none" stroke="#bfbfbf" points="147.5,-56.5 147.5,-75.5 257.5,-75.5 257.5,-56.5 147.5,-56.5"/>
<text text-anchor="middle" x="202.5" y="-63.5" font-family="Helvetica,sans-Serif" font-size="10.00">LiquidCrystal_I2C.h</text>
</a>
</g>
</g>
<!-- Node5&#45;&gt;Node6 -->
<g id="edge5" class="edge">
<title>Node5&#45;&gt;Node6</title>
<path fill="none" stroke="midnightblue" d="M210.85,-112.08C209.52,-104.93 207.62,-94.64 205.96,-85.69"/>
<polygon fill="midnightblue" stroke="midnightblue" points="209.38,-84.95 204.12,-75.75 202.5,-86.22 209.38,-84.95"/>
</g>
<!-- Node7 -->
<g id="node7" class="node">
<title>Node7</title>
<g id="a_node7"><a xlink:href="animString_8h.html" target="_top" xlink:title="Header datei f端r eine Mehrzahl von animierbaren Strings und der Callable Klasse.">
<polygon fill="none" stroke="black" points="276,-56.5 276,-75.5 355,-75.5 355,-56.5 276,-56.5"/>
<text text-anchor="middle" x="315.5" y="-63.5" font-family="Helvetica,sans-Serif" font-size="10.00">animString.h</text>
</a>
</g>
</g>
<!-- Node5&#45;&gt;Node7 -->
<g id="edge6" class="edge">
<title>Node5&#45;&gt;Node7</title>
<path fill="none" stroke="midnightblue" d="M223.93,-112.32C238.64,-103.62 264.15,-90.12 284.6,-80.11"/>
<polygon fill="midnightblue" stroke="midnightblue" points="286.38,-83.14 293.88,-75.65 283.35,-76.83 286.38,-83.14"/>
</g>
<!-- Node7&#45;&gt;Node4 -->
<g id="edge8" class="edge">
<title>Node7&#45;&gt;Node4</title>
<path fill="none" stroke="midnightblue" d="M299.75,-56.32C284.18,-47.74 260.12,-34.49 242.04,-24.52"/>
<polygon fill="midnightblue" stroke="midnightblue" points="243.65,-21.42 233.21,-19.65 240.28,-27.55 243.65,-21.42"/>
</g>
<!-- Node7&#45;&gt;Node5 -->
<g id="edge7" class="edge">
<title>Node7&#45;&gt;Node5</title>
<path fill="none" stroke="midnightblue" d="M304.34,-75.52C289.57,-84.27 263.62,-98.01 242.97,-108.1"/>
<polygon fill="midnightblue" stroke="midnightblue" points="241.41,-104.96 233.91,-112.44 244.44,-111.27 241.41,-104.96"/>
</g>
<!-- Node8&#45;&gt;Node4 -->
<g id="edge10" class="edge">
<title>Node8&#45;&gt;Node4</title>
<path fill="none" stroke="midnightblue" d="M329.96,-112.38C349,-99.93 378.41,-76.2 363.5,-56 339.3,-23.22 291.58,-13.58 257.27,-11.11"/>
<polygon fill="midnightblue" stroke="midnightblue" points="257.27,-7.6 247.1,-10.55 256.89,-14.59 257.27,-7.6"/>
</g>
<!-- Node8&#45;&gt;Node7 -->
<g id="edge11" class="edge">
<title>Node8&#45;&gt;Node7</title>
<path fill="none" stroke="midnightblue" d="M315.5,-112.08C315.5,-105.01 315.5,-94.86 315.5,-85.99"/>
<polygon fill="midnightblue" stroke="midnightblue" points="319,-85.75 315.5,-75.75 312,-85.75 319,-85.75"/>
</g>
</g>
</svg>
