<?xml version="1.0" encoding="UTF-8" standalone="no"?>
<!DOCTYPE svg PUBLIC "-//W3C//DTD SVG 1.1//EN"
 "http://www.w3.org/Graphics/SVG/1.1/DTD/svg11.dtd">
<!-- Generated by graphviz version 2.43.0 (0)
 -->
<!-- Title: LcdString Pages: 1 -->
<svg width="245pt" height="209pt"
 viewBox="0.00 0.00 244.50 209.00" xmlns="http://www.w3.org/2000/svg" xmlns:xlink="http://www.w3.org/1999/xlink">
<g id="graph0" class="graph" transform="scale(1 1) rotate(0) translate(4 205)">
<title>LcdString</title>
<!-- Node1 -->
<g id="node1" class="node">
<title>Node1</title>
<g id="a_node1"><a xlink:title="Ein String der auf dem AnimatableLcd angezeigt werden kann.">
<polygon fill="#bfbfbf" stroke="black" points="159.5,-124.5 159.5,-143.5 221.5,-143.5 221.5,-124.5 159.5,-124.5"/>
<text text-anchor="middle" x="190.5" y="-131.5" font-family="Helvetica,sans-Serif" font-size="10.00">LcdString</text>
</a>
</g>
</g>
<!-- Node5 -->
<g id="node5" class="node">
<title>Node5</title>
<g id="a_node5"><a xlink:href="classAnimString.html" target="_top" xlink:title="Die Klasse für animierbare LcdStrings.">
<polygon fill="none" stroke="black" points="119,-67.5 119,-86.5 190,-86.5 190,-67.5 119,-67.5"/>
<text text-anchor="middle" x="154.5" y="-74.5" font-family="Helvetica,sans-Serif" font-size="10.00">AnimString</text>
</a>
</g>
</g>
<!-- Node1&#45;&gt;Node5 -->
<g id="edge5" class="edge">
<title>Node1&#45;&gt;Node5</title>
<path fill="none" stroke="midnightblue" d="M179.33,-115.94C172.99,-106.25 165.33,-94.54 160.2,-86.71"/>
<polygon fill="midnightblue" stroke="midnightblue" points="176.47,-117.96 184.88,-124.41 182.33,-114.12 176.47,-117.96"/>
</g>
<!-- Node2 -->
<g id="node2" class="node">
<title>Node2</title>
<g id="a_node2"><a xlink:href="structCallable.html" target="_top" xlink:title="Ein Call der vom CallHandler aufgerufen werden kann.">
<polygon fill="none" stroke="black" points="162.5,-181.5 162.5,-200.5 218.5,-200.5 218.5,-181.5 162.5,-181.5"/>
<text text-anchor="middle" x="190.5" y="-188.5" font-family="Helvetica,sans-Serif" font-size="10.00">Callable</text>
</a>
</g>
</g>
<!-- Node2&#45;&gt;Node1 -->
<g id="edge1" class="edge">
<title>Node2&#45;&gt;Node1</title>
<path fill="none" stroke="midnightblue" d="M190.5,-171.12C190.5,-161.82 190.5,-151.06 190.5,-143.71"/>
<polygon fill="midnightblue" stroke="midnightblue" points="187,-171.41 190.5,-181.41 194,-171.41 187,-171.41"/>
</g>
<!-- Node3 -->
<g id="node3" class="node">
<title>Node3</title>
<g id="a_node3"><a xlink:href="classAnimatableLcd.html" target="_top" xlink:title="Eigener Lcd, ermöglicht es Animationen auf dem Lcd Display anzuzeigen.">
<polygon fill="none" stroke="black" points="110,-0.5 110,-19.5 199,-19.5 199,-0.5 110,-0.5"/>
<text text-anchor="middle" x="154.5" y="-7.5" font-family="Helvetica,sans-Serif" font-size="10.00">AnimatableLcd</text>
</a>
</g>
</g>
<!-- Node3&#45;&gt;Node1 -->
<g id="edge2" class="edge">
<title>Node3&#45;&gt;Node1</title>
<path fill="none" stroke="#9a32cd" stroke-dasharray="5,2" d="M198.22,-24.41C203.88,-27.95 208.93,-32.41 212.5,-38 230.34,-65.98 207.97,-106.8 196.5,-124.4"/>
<polygon fill="#9a32cd" stroke="#9a32cd" points="199.44,-21.1 188.95,-19.57 196.19,-27.31 199.44,-21.1"/>
<text text-anchor="middle" x="227.5" y="-74.5" font-family="Helvetica,sans-Serif" font-size="10.00"> lcd</text>
</g>
<!-- Node4 -->
<g id="node4" class="node">
<title>Node4</title>
<g id="a_node4"><a xlink:title=" ">
<polygon fill="none" stroke="black" points="0,-67.5 0,-86.5 101,-86.5 101,-67.5 0,-67.5"/>
<text text-anchor="middle" x="50.5" y="-74.5" font-family="Helvetica,sans-Serif" font-size="10.00">LiquidCrystal_I2C</text>
</a>
</g>
</g>
<!-- Node4&#45;&gt;Node3 -->
<g id="edge3" class="edge">
<title>Node4&#45;&gt;Node3</title>
<path fill="none" stroke="midnightblue" d="M73.27,-61.77C93.86,-48.9 123.49,-30.38 140.7,-19.63"/>
<polygon fill="midnightblue" stroke="midnightblue" points="71.15,-58.97 64.53,-67.23 74.86,-64.9 71.15,-58.97"/>
</g>
<!-- Node5&#45;&gt;Node3 -->
<g id="edge4" class="edge">
<title>Node5&#45;&gt;Node3</title>
<path fill="none" stroke="#9a32cd" stroke-dasharray="5,2" d="M154.5,-57.04C154.5,-44.67 154.5,-29.12 154.5,-19.63"/>
<polygon fill="#9a32cd" stroke="#9a32cd" points="151,-57.23 154.5,-67.23 158,-57.23 151,-57.23"/>
<text text-anchor="middle" x="183" y="-41" font-family="Helvetica,sans-Serif" font-size="10.00"> animString</text>
</g>
</g>
</svg>
