<?xml version="1.0" encoding="UTF-8" standalone="no"?>
<!DOCTYPE svg PUBLIC "-//W3C//DTD SVG 1.1//EN"
 "http://www.w3.org/Graphics/SVG/1.1/DTD/svg11.dtd">
<!-- Generated by graphviz version 2.43.0 (0)
 -->
<!-- Title: Callable Pages: 1 -->
<svg width="217pt" height="196pt"
 viewBox="0.00 0.00 216.50 196.00" xmlns="http://www.w3.org/2000/svg" xmlns:xlink="http://www.w3.org/1999/xlink">
<g id="graph0" class="graph" transform="scale(1 1) rotate(0) translate(4 192)">
<title>Callable</title>
<!-- Node1 -->
<g id="node1" class="node">
<title>Node1</title>
<g id="a_node1"><a xlink:title="Ein Call der vom CallHandler aufgerufen werden kann.">
<polygon fill="#bfbfbf" stroke="black" points="40,-168.5 40,-187.5 96,-187.5 96,-168.5 40,-168.5"/>
<text text-anchor="middle" x="68" y="-175.5" font-family="Helvetica,sans-Serif" font-size="10.00">Callable</text>
</a>
</g>
</g>
<!-- Node2 -->
<g id="node2" class="node">
<title>Node2</title>
<g id="a_node2"><a xlink:href="structFuncCall.html" target="_top" xlink:title="Ein Call der eine Funktion ausführt.">
<polygon fill="none" stroke="black" points="0,-112.5 0,-131.5 58,-131.5 58,-112.5 0,-112.5"/>
<text text-anchor="middle" x="29" y="-119.5" font-family="Helvetica,sans-Serif" font-size="10.00">FuncCall</text>
</a>
</g>
</g>
<!-- Node1&#45;&gt;Node2 -->
<g id="edge1" class="edge">
<title>Node1&#45;&gt;Node2</title>
<path fill="none" stroke="midnightblue" d="M55.62,-159.86C48.86,-150.5 40.79,-139.33 35.32,-131.75"/>
<polygon fill="midnightblue" stroke="midnightblue" points="52.87,-162.03 61.56,-168.08 58.54,-157.93 52.87,-162.03"/>
</g>
<!-- Node3 -->
<g id="node3" class="node">
<title>Node3</title>
<g id="a_node3"><a xlink:href="structLcdString.html" target="_top" xlink:title="Ein String der auf dem AnimatableLcd angezeigt werden kann.">
<polygon fill="none" stroke="black" points="76,-112.5 76,-131.5 138,-131.5 138,-112.5 76,-112.5"/>
<text text-anchor="middle" x="107" y="-119.5" font-family="Helvetica,sans-Serif" font-size="10.00">LcdString</text>
</a>
</g>
</g>
<!-- Node1&#45;&gt;Node3 -->
<g id="edge2" class="edge">
<title>Node1&#45;&gt;Node3</title>
<path fill="none" stroke="midnightblue" d="M80.38,-159.86C87.14,-150.5 95.21,-139.33 100.68,-131.75"/>
<polygon fill="midnightblue" stroke="midnightblue" points="77.46,-157.93 74.44,-168.08 83.13,-162.03 77.46,-157.93"/>
</g>
<!-- Node4 -->
<g id="node4" class="node">
<title>Node4</title>
<g id="a_node4"><a xlink:href="classAnimString.html" target="_top" xlink:title="Die Klasse für animierbare LcdStrings.">
<polygon fill="none" stroke="black" points="71.5,-56.5 71.5,-75.5 142.5,-75.5 142.5,-56.5 71.5,-56.5"/>
<text text-anchor="middle" x="107" y="-63.5" font-family="Helvetica,sans-Serif" font-size="10.00">AnimString</text>
</a>
</g>
</g>
<!-- Node3&#45;&gt;Node4 -->
<g id="edge3" class="edge">
<title>Node3&#45;&gt;Node4</title>
<path fill="none" stroke="midnightblue" d="M107,-101.8C107,-92.91 107,-82.78 107,-75.75"/>
<polygon fill="midnightblue" stroke="midnightblue" points="103.5,-102.08 107,-112.08 110.5,-102.08 103.5,-102.08"/>
</g>
<!-- Node5 -->
<g id="node5" class="node">
<title>Node5</title>
<g id="a_node5"><a xlink:href="classLcdDotAnim.html" target="_top" xlink:title="Die Klasse der Lcd Punktanimationen.">
<polygon fill="none" stroke="black" points="17,-0.5 17,-19.5 93,-19.5 93,-0.5 17,-0.5"/>
<text text-anchor="middle" x="55" y="-7.5" font-family="Helvetica,sans-Serif" font-size="10.00">LcdDotAnim</text>
</a>
</g>
</g>
<!-- Node4&#45;&gt;Node5 -->
<g id="edge4" class="edge">
<title>Node4&#45;&gt;Node5</title>
<path fill="none" stroke="midnightblue" d="M91.32,-48.72C82.16,-39.2 70.95,-27.56 63.43,-19.75"/>
<polygon fill="midnightblue" stroke="midnightblue" points="88.96,-51.31 98.41,-56.08 94,-46.45 88.96,-51.31"/>
</g>
<!-- Node6 -->
<g id="node6" class="node">
<title>Node6</title>
<g id="a_node6"><a xlink:href="classLcdLoadingAnim.html" target="_top" xlink:title="Die Klasse der Lcd Ladeanimationen.">
<polygon fill="none" stroke="black" points="111.5,-0.5 111.5,-19.5 208.5,-19.5 208.5,-0.5 111.5,-0.5"/>
<text text-anchor="middle" x="160" y="-7.5" font-family="Helvetica,sans-Serif" font-size="10.00">LcdLoadingAnim</text>
</a>
</g>
</g>
<!-- Node4&#45;&gt;Node6 -->
<g id="edge5" class="edge">
<title>Node4&#45;&gt;Node6</title>
<path fill="none" stroke="midnightblue" d="M122.98,-48.72C132.32,-39.2 143.75,-27.56 151.41,-19.75"/>
<polygon fill="midnightblue" stroke="midnightblue" points="120.26,-46.49 115.75,-56.08 125.25,-51.4 120.26,-46.49"/>
</g>
</g>
</svg>
