<?xml version="1.0" encoding="UTF-8" standalone="no"?>
<!DOCTYPE svg PUBLIC "-//W3C//DTD SVG 1.1//EN"
 "http://www.w3.org/Graphics/SVG/1.1/DTD/svg11.dtd">
<!-- Generated by graphviz version 2.43.0 (0)
 -->
<!-- Title: Callable::run Pages: 1 -->
<svg width="340pt" height="104pt"
 viewBox="0.00 0.00 340.00 104.00" xmlns="http://www.w3.org/2000/svg" xmlns:xlink="http://www.w3.org/1999/xlink">
<g id="graph0" class="graph" transform="scale(1 1) rotate(0) translate(4 100)">
<title>Callable::run</title>
<!-- Node1 -->
<g id="node1" class="node">
<title>Node1</title>
<g id="a_node1"><a xlink:title="Wird ausgeführt wenn der Call an der Reihe ist.">
<polygon fill="#bfbfbf" stroke="black" points="254,-19.5 254,-38.5 332,-38.5 332,-19.5 254,-19.5"/>
<text text-anchor="middle" x="293" y="-26.5" font-family="Helvetica,sans-Serif" font-size="10.00">Callable::run</text>
</a>
</g>
</g>
<!-- Node2 -->
<g id="node2" class="node">
<title>Node2</title>
<g id="a_node2"><a xlink:href="classCallHandler.html#afc5654ccaa266f3a81f8230afdb1c2a0" target="_top" xlink:title="Setzt die neuen Calls, die ausgeführt werden sollen.">
<polygon fill="none" stroke="black" points="99,-38.5 99,-57.5 218,-57.5 218,-38.5 99,-38.5"/>
<text text-anchor="middle" x="158.5" y="-45.5" font-family="Helvetica,sans-Serif" font-size="10.00">CallHandler::setCalls</text>
</a>
</g>
</g>
<!-- Node1&#45;&gt;Node2 -->
<g id="edge1" class="edge">
<title>Node1&#45;&gt;Node2</title>
<path fill="none" stroke="midnightblue" d="M243.58,-35.94C235.42,-37.11 226.86,-38.34 218.46,-39.55"/>
<polygon fill="midnightblue" stroke="midnightblue" points="244.27,-39.38 253.68,-34.5 243.28,-32.45 244.27,-39.38"/>
</g>
<!-- Node6 -->
<g id="node6" class="node">
<title>Node6</title>
<g id="a_node6"><a xlink:href="classCallHandler.html#a57ff2e7ae3955d5ed4806dcc6469dcf7" target="_top" xlink:title="Wechselt zum nächsten Call, wenn der Aktuelle vorbei ist und aktualisiert den jetzigen (z....">
<polygon fill="none" stroke="black" points="102,-0.5 102,-19.5 215,-19.5 215,-0.5 102,-0.5"/>
<text text-anchor="middle" x="158.5" y="-7.5" font-family="Helvetica,sans-Serif" font-size="10.00">CallHandler::update</text>
</a>
</g>
</g>
<!-- Node1&#45;&gt;Node6 -->
<g id="edge5" class="edge">
<title>Node1&#45;&gt;Node6</title>
<path fill="none" stroke="midnightblue" d="M243.6,-22.06C234.46,-20.75 224.83,-19.37 215.48,-18.03"/>
<polygon fill="midnightblue" stroke="midnightblue" points="243.28,-25.55 253.68,-23.5 244.27,-18.62 243.28,-25.55"/>
</g>
<!-- Node3 -->
<g id="node3" class="node">
<title>Node3</title>
<g id="a_node3"><a xlink:href="sketch_8ino.html#a6afc180dd30470854b71b1a9877a0d39" target="_top" xlink:title="Bewegt einen Ball zum Loch, legt ihn Ab und geht zurück.">
<polygon fill="none" stroke="black" points="0,-76.5 0,-95.5 63,-95.5 63,-76.5 0,-76.5"/>
<text text-anchor="middle" x="31.5" y="-83.5" font-family="Helvetica,sans-Serif" font-size="10.00">legBallAb</text>
</a>
</g>
</g>
<!-- Node2&#45;&gt;Node3 -->
<g id="edge2" class="edge">
<title>Node2&#45;&gt;Node3</title>
<path fill="none" stroke="midnightblue" d="M116.11,-60.58C98.83,-65.83 79.12,-71.83 63.17,-76.68"/>
<polygon fill="midnightblue" stroke="midnightblue" points="117.41,-63.85 125.96,-57.59 115.37,-57.15 117.41,-63.85"/>
</g>
<!-- Node4 -->
<g id="node4" class="node">
<title>Node4</title>
<g id="a_node4"><a xlink:href="sketch_8ino.html#afe461d27b9c48d5921c00d521181f12f" target="_top" xlink:title="Wird immer wieder ausgeführt.">
<polygon fill="none" stroke="black" points="12.5,-0.5 12.5,-19.5 50.5,-19.5 50.5,-0.5 12.5,-0.5"/>
<text text-anchor="middle" x="31.5" y="-7.5" font-family="Helvetica,sans-Serif" font-size="10.00">loop</text>
</a>
</g>
</g>
<!-- Node2&#45;&gt;Node4 -->
<g id="edge3" class="edge">
<title>Node2&#45;&gt;Node4</title>
<path fill="none" stroke="midnightblue" d="M116.13,-35.42C94.03,-28.71 67.93,-20.77 50.84,-15.58"/>
<polygon fill="midnightblue" stroke="midnightblue" points="115.37,-38.85 125.96,-38.41 117.41,-32.15 115.37,-38.85"/>
</g>
<!-- Node5 -->
<g id="node5" class="node">
<title>Node5</title>
<g id="a_node5"><a xlink:href="sketch_8ino.html#a4fc01d736fe50cf5b977f755b675f11d" target="_top" xlink:title="Wird am Anfang des Programms aufgerufen.">
<polygon fill="none" stroke="black" points="9.5,-38.5 9.5,-57.5 53.5,-57.5 53.5,-38.5 9.5,-38.5"/>
<text text-anchor="middle" x="31.5" y="-45.5" font-family="Helvetica,sans-Serif" font-size="10.00">setup</text>
</a>
</g>
</g>
<!-- Node2&#45;&gt;Node5 -->
<g id="edge4" class="edge">
<title>Node2&#45;&gt;Node5</title>
<path fill="none" stroke="midnightblue" d="M88.48,-48C75.83,-48 63.54,-48 53.72,-48"/>
<polygon fill="midnightblue" stroke="midnightblue" points="88.66,-51.5 98.66,-48 88.66,-44.5 88.66,-51.5"/>
</g>
<!-- Node6&#45;&gt;Node4 -->
<g id="edge6" class="edge">
<title>Node6&#45;&gt;Node4</title>
<path fill="none" stroke="midnightblue" d="M91.92,-10C76.66,-10 61.65,-10 50.53,-10"/>
<polygon fill="midnightblue" stroke="midnightblue" points="91.95,-13.5 101.95,-10 91.95,-6.5 91.95,-13.5"/>
</g>
</g>
</svg>
