<?xml version="1.0" encoding="UTF-8" standalone="no"?>
<!DOCTYPE svg PUBLIC "-//W3C//DTD SVG 1.1//EN"
 "http://www.w3.org/Graphics/SVG/1.1/DTD/svg11.dtd">
<!-- Generated by graphviz version 2.43.0 (0)
 -->
<!-- Title: temp.cpp Pages: 1 -->
<svg width="276pt" height="196pt"
 viewBox="0.00 0.00 275.55 196.00" xmlns="http://www.w3.org/2000/svg" xmlns:xlink="http://www.w3.org/1999/xlink">
<g id="graph0" class="graph" transform="scale(1 1) rotate(0) translate(4 192)">
<title>temp.cpp</title>
<!-- Node1 -->
<g id="node1" class="node">
<title>Node1</title>
<g id="a_node1"><a xlink:title=" ">
<polygon fill="#bfbfbf" stroke="black" points="132,-168.5 132,-187.5 194,-187.5 194,-168.5 132,-168.5"/>
<text text-anchor="middle" x="163" y="-175.5" font-family="Helvetica,sans-Serif" font-size="10.00">temp.cpp</text>
</a>
</g>
</g>
<!-- Node2 -->
<g id="node2" class="node">
<title>Node2</title>
<g id="a_node2"><a xlink:title=" ">
<polygon fill="none" stroke="#bfbfbf" points="0,-56.5 0,-75.5 110,-75.5 110,-56.5 0,-56.5"/>
<text text-anchor="middle" x="55" y="-63.5" font-family="Helvetica,sans-Serif" font-size="10.00">LiquidCrystal_I2C.h</text>
</a>
</g>
</g>
<!-- Node1&#45;&gt;Node2 -->
<g id="edge1" class="edge">
<title>Node1&#45;&gt;Node2</title>
<path fill="none" stroke="midnightblue" d="M132.16,-168.39C112.87,-161.51 88.94,-149.97 74,-132 63.09,-118.87 58.44,-99.73 56.46,-85.61"/>
<polygon fill="midnightblue" stroke="midnightblue" points="59.93,-85.15 55.38,-75.58 52.98,-85.9 59.93,-85.15"/>
</g>
<!-- Node3 -->
<g id="node3" class="node">
<title>Node3</title>
<g id="a_node3"><a xlink:href="header_8h.html" target="_top" xlink:title="Definiert variablen&#45;types die 端berall im Programm benutzt werden.">
<polygon fill="none" stroke="black" points="206.5,-0.5 206.5,-19.5 265.5,-19.5 265.5,-0.5 206.5,-0.5"/>
<text text-anchor="middle" x="236" y="-7.5" font-family="Helvetica,sans-Serif" font-size="10.00">header.h</text>
</a>
</g>
</g>
<!-- Node1&#45;&gt;Node3 -->
<g id="edge2" class="edge">
<title>Node1&#45;&gt;Node3</title>
<path fill="none" stroke="midnightblue" d="M194.03,-171.33C216.04,-165.51 244.04,-154.05 258,-132 278.37,-99.81 259.66,-53.72 246.45,-28.73"/>
<polygon fill="midnightblue" stroke="midnightblue" points="249.34,-26.73 241.42,-19.7 243.23,-30.14 249.34,-26.73"/>
</g>
<!-- Node4 -->
<g id="node4" class="node">
<title>Node4</title>
<g id="a_node4"><a xlink:href="animLcd_8h.html" target="_top" xlink:title="Header&#45;Datei f端r den animierbaren lcd (AnimatableLcd)">
<polygon fill="none" stroke="black" points="83.5,-112.5 83.5,-131.5 150.5,-131.5 150.5,-112.5 83.5,-112.5"/>
<text text-anchor="middle" x="117" y="-119.5" font-family="Helvetica,sans-Serif" font-size="10.00">animLcd.h</text>
</a>
</g>
</g>
<!-- Node1&#45;&gt;Node4 -->
<g id="edge3" class="edge">
<title>Node1&#45;&gt;Node4</title>
<path fill="none" stroke="midnightblue" d="M155.4,-168.08C148.77,-160.3 138.98,-148.8 130.94,-139.37"/>
<polygon fill="midnightblue" stroke="midnightblue" points="133.6,-137.09 124.45,-131.75 128.27,-141.63 133.6,-137.09"/>
</g>
<!-- Node6 -->
<g id="node6" class="node">
<title>Node6</title>
<g id="a_node6"><a xlink:href="callHandler_8h.html" target="_top" xlink:title="header datei f端r den CallHandler">
<polygon fill="none" stroke="black" points="169,-112.5 169,-131.5 249,-131.5 249,-112.5 169,-112.5"/>
<text text-anchor="middle" x="209" y="-119.5" font-family="Helvetica,sans-Serif" font-size="10.00">callHandler.h</text>
</a>
</g>
</g>
<!-- Node1&#45;&gt;Node6 -->
<g id="edge8" class="edge">
<title>Node1&#45;&gt;Node6</title>
<path fill="none" stroke="midnightblue" d="M170.6,-168.08C177.23,-160.3 187.02,-148.8 195.06,-139.37"/>
<polygon fill="midnightblue" stroke="midnightblue" points="197.73,-141.63 201.55,-131.75 192.4,-137.09 197.73,-141.63"/>
</g>
<!-- Node4&#45;&gt;Node2 -->
<g id="edge4" class="edge">
<title>Node4&#45;&gt;Node2</title>
<path fill="none" stroke="midnightblue" d="M107.04,-112.32C97.87,-104.34 84.06,-92.31 72.97,-82.65"/>
<polygon fill="midnightblue" stroke="midnightblue" points="74.98,-79.76 65.14,-75.83 70.38,-85.04 74.98,-79.76"/>
</g>
<!-- Node5 -->
<g id="node5" class="node">
<title>Node5</title>
<g id="a_node5"><a xlink:href="animString_8h.html" target="_top" xlink:title="Header datei f端r eine Mehrzahl von animierbaren Strings und der Callable Klasse.">
<polygon fill="none" stroke="black" points="128.5,-56.5 128.5,-75.5 207.5,-75.5 207.5,-56.5 128.5,-56.5"/>
<text text-anchor="middle" x="168" y="-63.5" font-family="Helvetica,sans-Serif" font-size="10.00">animString.h</text>
</a>
</g>
</g>
<!-- Node4&#45;&gt;Node5 -->
<g id="edge5" class="edge">
<title>Node4&#45;&gt;Node5</title>
<path fill="none" stroke="midnightblue" d="M120.26,-112.08C126.14,-104.06 137.1,-92.1 147.17,-82.51"/>
<polygon fill="midnightblue" stroke="midnightblue" points="149.56,-85.07 154.6,-75.75 144.85,-79.89 149.56,-85.07"/>
</g>
<!-- Node5&#45;&gt;Node3 -->
<g id="edge7" class="edge">
<title>Node5&#45;&gt;Node3</title>
<path fill="none" stroke="midnightblue" d="M178.93,-56.32C189.17,-48.18 204.72,-35.84 217,-26.09"/>
<polygon fill="midnightblue" stroke="midnightblue" points="219.22,-28.79 224.88,-19.83 214.87,-23.31 219.22,-28.79"/>
</g>
<!-- Node5&#45;&gt;Node4 -->
<g id="edge6" class="edge">
<title>Node5&#45;&gt;Node4</title>
<path fill="none" stroke="midnightblue" d="M164.81,-75.83C158.93,-83.87 147.9,-95.91 137.77,-105.54"/>
<polygon fill="midnightblue" stroke="midnightblue" points="135.35,-103.01 130.31,-112.32 140.06,-108.19 135.35,-103.01"/>
</g>
<!-- Node6&#45;&gt;Node3 -->
<g id="edge9" class="edge">
<title>Node6&#45;&gt;Node3</title>
<path fill="none" stroke="midnightblue" d="M211.12,-112.37C215.48,-94.62 225.53,-53.67 231.44,-29.6"/>
<polygon fill="midnightblue" stroke="midnightblue" points="234.91,-30.14 233.89,-19.59 228.11,-28.47 234.91,-30.14"/>
</g>
<!-- Node6&#45;&gt;Node5 -->
<g id="edge10" class="edge">
<title>Node6&#45;&gt;Node5</title>
<path fill="none" stroke="midnightblue" d="M202.23,-112.08C196.44,-104.46 187.94,-93.26 180.86,-83.94"/>
<polygon fill="midnightblue" stroke="midnightblue" points="183.48,-81.6 174.64,-75.75 177.9,-85.83 183.48,-81.6"/>
</g>
</g>
</svg>
